<svg width="227" height="107" viewBox="0 0 227 107" fill="none" xmlns="http://www.w3.org/2000/svg">
<g clip-path="url(#clip0_81_38)">
<path d="M74.8559 -13.8869L225.295 -13.8868C225.747 -13.8868 226.181 -13.7066 226.501 -13.3856C226.82 -13.0647 227 -12.6294 227 -12.1755C227 -11.7217 226.82 -11.2864 226.501 -10.9654C226.181 -10.6445 225.747 -10.4642 225.295 -10.4642L73.7193 -10.4642C73.5379 -10.4813 73.3553 -10.4813 73.1738 -10.4642L72.6055 -10.4642C71.2372 -10.2187 69.9363 -9.68517 68.7883 -8.8986C67.6403 -8.11204 66.6713 -7.09033 65.9451 -5.90075C65.1927 -4.6942 64.7046 -3.34089 64.513 -1.93053C64.4061 -0.556666 64.3681 0.821726 64.3993 2.19942L64.3993 25.5645C64.5073 31.866 62.1699 37.9627 57.8811 42.5657C53.5924 47.1687 47.6884 49.9172 41.4174 50.2302L37.894 50.2302L23.3002 50.2302C21.1001 50.4003 19.0235 51.3178 17.4126 52.8314C15.8826 54.2087 14.8113 56.0249 14.3438 58.0337C14.2439 58.4924 14.1756 58.9575 14.1392 59.4256L14.1392 59.9732C14.1392 60.3383 14.1392 60.7034 14.1392 61.2739L14.1392 94.3592C14.1392 94.813 13.9596 95.2483 13.6399 95.5692C13.3202 95.8902 12.8865 96.0705 12.4344 96.0705C11.9822 96.0705 11.5485 95.8902 11.2288 95.5692C10.9091 95.2483 10.7295 94.813 10.7295 94.3592L10.7295 61.3423C10.7295 60.7034 10.7295 60.247 10.7295 59.8135L10.7295 59.3572C10.7842 58.6807 10.8905 58.0094 11.0477 57.3492C11.6918 54.56 13.2009 52.0478 15.3576 50.1741C17.5144 48.3003 20.2078 47.1615 23.0501 46.9217L25.687 46.9217L41.2583 46.9217C43.8592 46.7993 46.413 46.1798 48.7825 45.0963C53.7192 42.8498 57.5859 38.7557 59.5575 33.6876C60.5396 31.1341 61.0256 28.4155 60.9895 25.6786L60.9895 2.47322C60.9413 0.950196 60.9945 -0.57436 61.1486 -2.09027C61.5738 -4.90384 62.8618 -7.51445 64.8337 -9.55915C66.8055 -11.6038 69.3631 -12.981 72.1508 -13.499L72.6055 -13.499C72.9738 -13.5619 73.3459 -13.6 73.7193 -13.6131L74.8559 -13.6131L74.8559 -13.8869Z" fill="#4D4C4F"/>
<path d="M74.9014 -24.5883L225.295 -24.5883C225.747 -24.5883 226.181 -24.408 226.501 -24.087C226.82 -23.7661 227 -23.3308 227 -22.8769C227 -22.4231 226.82 -21.9878 226.501 -21.6669C226.181 -21.3459 225.747 -21.1656 225.295 -21.1656L75.0833 -21.1656C74.5832 -21.1656 73.7876 -21.1656 73.1056 -21.1656C72.5553 -21.1603 72.0069 -21.0992 71.4689 -20.9831L70.787 -20.9831C66.4786 -20.1988 62.5283 -18.0653 59.5023 -14.8885C56.4763 -11.7118 54.5302 -7.655 53.9427 -3.29961C53.7502 -1.51156 53.6819 0.287787 53.7381 2.08535L53.7381 25.5645C53.7665 27.3874 53.4502 29.1992 52.8061 30.9038C51.5217 34.2161 48.9903 36.8881 45.7592 38.3423C44.2201 39.0461 42.5613 39.4489 40.8719 39.5288L37.894 39.5288L22.3909 39.5288C18.0356 39.9087 13.9103 41.6563 10.6009 44.5235C7.29143 47.3908 4.96618 51.2318 3.95536 55.501C3.73303 56.4698 3.58113 57.4536 3.50076 58.4445C3.50076 59.38 3.3871 60.4296 3.50076 61.0685L3.50076 94.1538C3.50076 94.6077 3.32115 95.0429 3.00142 95.3639C2.68169 95.6848 2.24804 95.8651 1.79587 95.8651C1.34371 95.8651 0.910054 95.6848 0.590326 95.3639C0.270598 95.0429 0.0909865 94.6077 0.0909865 94.1538L0.0909894 61.3423C0.0909894 60.6578 0.0909895 59.5169 0.0909896 58.3988C0.192349 57.239 0.374629 56.0877 0.636531 54.9534C1.79499 49.9516 4.50222 45.4468 8.36971 42.0853C12.2372 38.7239 17.0661 36.6787 22.1636 36.2431L25.687 36.2431L40.69 36.2431C41.9623 36.1993 43.2135 35.9046 44.3725 35.376C46.7706 34.2664 48.651 32.2727 49.6236 29.8086C50.1262 28.4916 50.3657 27.0883 50.3283 25.6786L50.3283 2.4276C50.2706 0.47758 50.3465 -1.47411 50.5556 -3.41367C51.2419 -8.50954 53.5225 -13.2551 57.0686 -16.9663C60.6147 -20.6774 65.2432 -23.1625 70.2869 -24.0634L70.9234 -24.1776C71.571 -24.2798 72.2235 -24.3484 72.8783 -24.3829L74.9014 -24.5883Z" fill="#4D4C4F"/>
<path d="M24.6187 6.42066C24.6187 7.26182 24.2858 8.06854 23.6932 8.66334C23.1007 9.25813 22.297 9.59232 21.459 9.59232C20.621 9.59232 19.8173 9.25813 19.2247 8.66334C18.6321 8.06854 18.2992 7.26182 18.2992 6.42065C18.3052 5.58345 18.6408 4.7826 19.2327 4.19274C19.8246 3.60287 20.6249 3.27181 21.459 3.27183C21.8728 3.26882 22.2832 3.34807 22.6664 3.50497C23.0496 3.66186 23.3981 3.89329 23.6918 4.18598C23.9856 4.47868 24.2187 4.82683 24.3777 5.21036C24.5368 5.59388 24.6187 6.00522 24.6187 6.42066Z" fill="#4D4C4F"/>
<path d="M47.8279 88.8602L62.9445 88.8602C63.3967 88.8602 63.8303 89.0404 64.1501 89.3614C64.4698 89.6823 64.6494 90.1176 64.6494 90.5715C64.6494 91.0253 64.4698 91.4606 64.1501 91.7815C63.8303 92.1025 63.3967 92.2828 62.9445 92.2828L49.5328 92.2828L49.5328 105.289C49.5328 105.743 49.3532 106.178 49.0334 106.499C48.7137 106.82 48.28 107 47.8279 107C47.3757 107 46.9421 106.82 46.6223 106.499C46.3026 106.178 46.123 105.743 46.123 105.289L46.123 90.5715C46.123 90.1176 46.3026 89.6823 46.6223 89.3614C46.9421 89.0404 47.3757 88.8602 47.8279 88.8602Z" fill="#4D4C4F"/>
<path d="M47.8278 74.1429C48.2782 74.1488 48.7084 74.331 49.0269 74.6507C49.3453 74.9703 49.5268 75.4022 49.5327 75.8542L49.5327 90.5715C49.5327 91.0253 49.3531 91.4606 49.0334 91.7815C48.7136 92.1025 48.28 92.2828 47.8278 92.2828L32.7112 92.2828C32.259 92.2828 31.8254 92.1025 31.5056 91.7815C31.1859 91.4606 31.0063 91.0253 31.0063 90.5715C31.0063 90.1176 31.1859 89.6823 31.5056 89.3614C31.8254 89.0404 32.259 88.8602 32.7112 88.8602L46.1229 88.8602L46.1229 75.9455C46.1106 75.7132 46.1455 75.4808 46.2256 75.2625C46.3057 75.0442 46.4294 74.8447 46.589 74.6759C46.7485 74.5072 46.9407 74.373 47.1537 74.2813C47.3667 74.1896 47.5961 74.1426 47.8278 74.1429Z" fill="#4D4C4F"/>
<path d="M184.469 13.6994L193.425 13.6994C193.877 13.6994 194.311 13.8797 194.631 14.2006C194.95 14.5216 195.13 14.9569 195.13 15.4107C195.13 15.8646 194.95 16.2999 194.631 16.6208C194.311 16.9418 193.877 17.122 193.425 17.122L184.469 17.122C184.016 17.122 183.583 16.9418 183.263 16.6208C182.943 16.2999 182.764 15.8646 182.764 15.4107C182.764 14.9569 182.943 14.5216 183.263 14.2006C183.583 13.8797 184.016 13.6994 184.469 13.6994Z" fill="#4D4C4F"/>
<path d="M169.739 13.6994L178.695 13.6994C179.147 13.6994 179.581 13.8797 179.901 14.2006C180.22 14.5216 180.4 14.9569 180.4 15.4107C180.4 15.8646 180.22 16.2999 179.901 16.6208C179.581 16.9418 179.147 17.122 178.695 17.122L169.739 17.122C169.287 17.122 168.853 16.9418 168.533 16.6208C168.213 16.2999 168.034 15.8646 168.034 15.4107C168.034 14.9569 168.213 14.5216 168.533 14.2006C168.853 13.8797 169.287 13.6994 169.739 13.6994Z" fill="#4D4C4F"/>
<path d="M155.008 13.6994L163.942 13.6994C164.394 13.6994 164.828 13.8797 165.148 14.2006C165.467 14.5216 165.647 14.9569 165.647 15.4107C165.647 15.8646 165.467 16.2999 165.148 16.6208C164.828 16.9418 164.394 17.122 163.942 17.122L155.008 17.122C154.556 17.122 154.123 16.9418 153.803 16.6208C153.483 16.2999 153.304 15.8646 153.304 15.4107C153.304 14.9569 153.483 14.5216 153.803 14.2006C154.123 13.8797 154.556 13.6994 155.008 13.6994Z" fill="#4D4C4F"/>
<path d="M140.255 13.6994L149.212 13.6994C149.664 13.6994 150.097 13.8797 150.417 14.2006C150.737 14.5216 150.917 14.9569 150.917 15.4107C150.917 15.8646 150.737 16.2999 150.417 16.6208C150.097 16.9418 149.664 17.122 149.212 17.122L140.255 17.122C139.803 17.122 139.369 16.9418 139.05 16.6208C138.73 16.2999 138.55 15.8646 138.55 15.4107C138.55 14.9569 138.73 14.5216 139.05 14.2006C139.369 13.8797 139.803 13.6994 140.255 13.6994Z" fill="#4D4C4F"/>
<path d="M125.525 13.6994L134.482 13.6994C134.934 13.6994 135.367 13.8797 135.687 14.2006C136.007 14.5216 136.187 14.9569 136.187 15.4107C136.187 15.8646 136.007 16.2999 135.687 16.6208C135.367 16.9418 134.934 17.122 134.482 17.122L125.525 17.122C125.073 17.122 124.639 16.9418 124.32 16.6208C124 16.2999 123.82 15.8646 123.82 15.4107C123.82 14.9569 124 14.5216 124.32 14.2006C124.639 13.8797 125.073 13.6994 125.525 13.6994Z" fill="#4D4C4F"/>
<path d="M110.772 13.6994L119.729 13.6994C120.181 13.6994 120.614 13.8797 120.934 14.2006C121.254 14.5216 121.434 14.9569 121.434 15.4107C121.434 15.8646 121.254 16.2999 120.934 16.6208C120.614 16.9418 120.181 17.122 119.729 17.122L110.772 17.122C110.32 17.122 109.887 16.9418 109.567 16.6208C109.247 16.2999 109.067 15.8646 109.067 15.4107C109.067 14.9569 109.247 14.5216 109.567 14.2006C109.887 13.8797 110.32 13.6994 110.772 13.6994Z" fill="#4D4C4F"/>
</g>
<defs>
<clipPath id="clip0_81_38">
<rect width="227" height="138" fill="white" transform="translate(227 107) rotate(-180)"/>
</clipPath>
</defs>
</svg>
