<svg width="89" height="270" viewBox="0 0 89 270" fill="none" xmlns="http://www.w3.org/2000/svg">
<g clip-path="url(#clip0_81_75)">
<path d="M56.8402 52.7666C52.852 52.772 48.9518 51.5943 45.6331 49.3823C42.3144 47.1703 39.7262 44.0236 38.1962 40.3401C36.6662 36.6567 36.2631 32.6022 37.0378 28.6895C37.8125 24.7769 39.7303 21.182 42.5484 18.3597C45.3666 15.5374 48.9585 13.6145 52.8696 12.8344C56.7808 12.0542 60.8354 12.4519 64.5206 13.977C68.2057 15.5021 71.3558 18.0861 73.5721 21.4021C75.7884 24.7182 76.9713 28.6172 76.9713 32.6058C76.964 37.9457 74.8416 43.0653 71.0687 46.8438C67.2957 50.6223 62.1796 52.7519 56.8402 52.7666ZM56.8402 16.6209C53.6712 16.6155 50.5718 17.5506 47.9346 19.308C45.2974 21.0654 43.2411 23.5659 42.0258 26.4929C40.8105 29.4199 40.4911 32.6418 41.108 35.7505C41.7249 38.8592 43.2504 41.7149 45.4912 43.9559C47.7321 46.197 50.5874 47.7226 53.6958 48.3396C56.8042 48.9565 60.0257 48.6371 62.9524 47.4217C65.8792 46.2063 68.3795 44.1497 70.1367 41.5122C71.8939 38.8747 72.8289 35.7751 72.8234 32.6058C72.8089 28.3708 71.1203 24.3135 68.126 21.3189C65.1317 18.3243 61.0748 16.6355 56.8402 16.6209Z" fill="#E83C35"/>
<path d="M56.8401 45.6315C56.29 45.6315 55.7625 45.413 55.3735 45.024C54.9846 44.635 54.7661 44.1074 54.7661 43.5573V21.6819C54.7661 21.1318 54.9846 20.6042 55.3735 20.2152C55.7625 19.8263 56.29 19.6077 56.8401 19.6077C57.3901 19.6077 57.9176 19.8263 58.3066 20.2152C58.6955 20.6042 58.914 21.1318 58.914 21.6819V43.5573C58.9068 44.1052 58.686 44.6286 58.2986 45.016C57.9112 45.4035 57.3879 45.6243 56.8401 45.6315Z" fill="#E83C35"/>
<path d="M67.6799 34.6799H45.779C45.229 34.6799 44.7015 34.4614 44.3125 34.0724C43.9236 33.6834 43.7051 33.1559 43.7051 32.6058C43.7051 32.0557 43.9236 31.5281 44.3125 31.1391C44.7015 30.7501 45.229 30.5316 45.779 30.5316H67.6246C68.1746 30.5316 68.7022 30.7501 69.0911 31.1391C69.48 31.5281 69.6985 32.0557 69.6985 32.6058C69.6985 33.1559 69.48 33.6834 69.0911 34.0724C68.7022 34.4614 68.1746 34.6799 67.6246 34.6799H67.6799Z" fill="#E83C35"/>
<path d="M63.9468 267.926L65.274 267.705C66.2104 267.537 67.1343 267.306 68.0393 267.013C69.0625 266.737 70.0303 266.267 70.8046 265.99L71.9937 265.382L63.9468 267.926Z" fill="white"/>
<path d="M63.9467 270C63.4265 269.999 62.9257 269.802 62.5439 269.448C62.162 269.095 61.9269 268.611 61.8851 268.092C61.8434 267.574 61.998 267.058 62.3185 266.648C62.6389 266.239 63.1016 265.964 63.6149 265.879L64.9422 265.658C65.6174 265.555 66.2832 265.398 66.9332 265.188L67.5692 265.022C68.1499 264.856 68.7306 264.607 69.256 264.414C69.543 264.275 69.8385 264.155 70.1409 264.054L71.1088 263.556C71.5938 263.313 72.1551 263.269 72.6721 263.434C73.1891 263.6 73.6206 263.961 73.874 264.441C74.1085 264.931 74.1444 265.492 73.9743 266.008C73.8042 266.523 73.4412 266.953 72.9614 267.207L71.8001 267.815L70.7769 268.23C70.1409 268.479 69.4219 268.756 68.6753 268.977L68.0393 269.17C67.1951 269.418 66.3362 269.612 65.4676 269.751L64.2509 269.945L63.9467 270Z" fill="#E83C35"/>
<path d="M81.0361 257.638L81.8104 256.532C82.2528 255.896 82.7783 254.955 83.3037 254.043C83.8291 253.13 84.2715 252.135 84.548 251.277L85.0181 250.033L81.0361 257.638Z" fill="white"/>
<path d="M81.0084 259.795C80.5769 259.793 80.1584 259.647 79.8194 259.38C79.3979 259.07 79.1133 258.608 79.0256 258.093C78.9379 257.577 79.054 257.047 79.3493 256.615L80.1236 255.536C80.4001 255.121 80.7043 254.568 81.0638 253.96L81.9486 252.301C82.1975 251.775 82.4464 251.277 82.6123 250.835L83.0824 249.59C83.1797 249.326 83.3298 249.084 83.5236 248.88C83.7173 248.675 83.9507 248.513 84.2095 248.401C84.4682 248.29 84.7469 248.233 85.0286 248.233C85.3102 248.233 85.5889 248.29 85.8476 248.401C86.117 248.491 86.3644 248.638 86.5735 248.83C86.7825 249.022 86.9486 249.257 87.0608 249.518C87.1731 249.779 87.2289 250.061 87.2248 250.345C87.2206 250.629 87.1566 250.909 87.0368 251.167L86.5666 252.411C86.3272 253.036 86.0502 253.645 85.7371 254.236L84.7416 256.145L83.6078 258.025L82.7782 259.131C82.5613 259.38 82.2861 259.571 81.9771 259.687C81.6682 259.803 81.3353 259.84 81.0084 259.795Z" fill="#E83C35"/>
<path d="M84.8242 239.856H83.497C83.05 239.947 82.5889 239.947 82.1419 239.856C81.9059 239.743 81.7102 239.561 81.5816 239.333C81.4529 239.105 81.3976 238.844 81.423 238.583V234.324L84.8242 239.856Z" fill="white"/>
<path d="M82.8612 241.93C82.3196 241.948 81.7807 241.844 81.285 241.625C80.6633 241.327 80.146 240.848 79.8007 240.251C79.4554 239.654 79.2981 238.967 79.3493 238.279V234.186C79.3493 233.636 79.5678 233.109 79.9568 232.72C80.3457 232.331 80.8732 232.112 81.4233 232.112C81.9733 232.112 82.5008 232.331 82.8897 232.72C83.2786 233.109 83.4972 233.636 83.4972 234.186V237.671H84.8245C85.3745 237.671 85.9021 237.889 86.291 238.278C86.6799 238.667 86.8984 239.195 86.8984 239.745C86.8984 240.295 86.6799 240.823 86.291 241.212C85.9021 241.601 85.3745 241.819 84.8245 241.819H83.4972L83.11 239.745V241.819L82.8612 241.93Z" fill="#E83C35"/>
<path d="M81.4231 224.286C80.873 224.286 80.3455 224.067 79.9566 223.678C79.5676 223.289 79.3491 222.762 79.3491 222.211V213.694C79.3491 213.143 79.5676 212.616 79.9566 212.227C80.3455 211.838 80.873 211.619 81.4231 211.619C81.9731 211.619 82.5006 211.838 82.8895 212.227C83.2784 212.616 83.497 213.143 83.497 213.694V222.211C83.4899 222.759 83.269 223.283 82.8817 223.67C82.4943 224.058 81.9709 224.278 81.4231 224.286Z" fill="#E83C35"/>
<path d="M81.4233 203.765C81.1499 203.769 80.8785 203.718 80.6252 203.615C80.3719 203.512 80.1417 203.359 79.9484 203.166C79.7551 202.973 79.6024 202.743 79.4995 202.489C79.3966 202.236 79.3456 201.965 79.3493 201.691V193.173C79.3493 192.623 79.5678 192.096 79.9567 191.707C80.3457 191.318 80.8732 191.099 81.4233 191.099C81.9733 191.099 82.5007 191.318 82.8897 191.707C83.2786 192.096 83.4972 192.623 83.4972 193.173V201.719C83.4899 202.264 83.2682 202.785 82.8801 203.168C82.4919 203.551 81.9685 203.765 81.4233 203.765Z" fill="#E83C35"/>
<path d="M86.926 187.67C86.376 187.67 85.8484 187.451 85.4595 187.062C85.0705 186.673 84.8521 186.146 84.8521 185.596V177.078C84.8521 176.528 85.0705 176 85.4595 175.611C85.8484 175.222 86.376 175.004 86.926 175.004C87.476 175.004 88.0036 175.222 88.3925 175.611C88.7815 176 88.9999 176.528 88.9999 177.078V185.596C89.0037 185.869 88.9526 186.14 88.8496 186.394C88.7467 186.647 88.5941 186.877 88.4008 187.071C88.2075 187.264 87.9774 187.417 87.7241 187.519C87.4708 187.622 87.1994 187.673 86.926 187.67Z" fill="#E83C35"/>
<path d="M86.926 167.177C86.3782 167.17 85.8548 166.949 85.4674 166.562C85.08 166.174 84.8592 165.651 84.8521 165.103V156.585C84.8521 156.035 85.0705 155.507 85.4595 155.118C85.8484 154.729 86.376 154.511 86.926 154.511C87.476 154.511 88.0036 154.729 88.3925 155.118C88.7815 155.507 88.9999 156.035 88.9999 156.585V165.103C88.9999 165.653 88.7815 166.181 88.3925 166.57C88.0036 166.959 87.476 167.177 86.926 167.177Z" fill="#E83C35"/>
<path d="M86.926 146.657C86.376 146.657 85.8484 146.438 85.4595 146.049C85.0705 145.66 84.8521 145.133 84.8521 144.583V136.065C84.8521 135.515 85.0705 134.987 85.4595 134.598C85.8484 134.209 86.376 133.991 86.926 133.991C87.476 133.991 88.0036 134.209 88.3925 134.598C88.7815 134.987 88.9999 135.515 88.9999 136.065V144.583C89.0037 144.856 88.9526 145.127 88.8496 145.381C88.7467 145.634 88.5941 145.864 88.4008 146.058C88.2075 146.251 87.9774 146.404 87.7241 146.506C87.4708 146.609 87.1994 146.66 86.926 146.657Z" fill="#E83C35"/>
<path d="M86.926 126.164C86.3782 126.157 85.8548 125.936 85.4674 125.549C85.08 125.161 84.8592 124.638 84.8521 124.09V115.572C84.8521 115.022 85.0705 114.494 85.4595 114.105C85.8484 113.716 86.376 113.498 86.926 113.498C87.476 113.498 88.0036 113.716 88.3925 114.105C88.7815 114.494 88.9999 115.022 88.9999 115.572V124.09C88.9999 124.64 88.7815 125.168 88.3925 125.557C88.0036 125.946 87.476 126.164 86.926 126.164Z" fill="#E83C35"/>
<path d="M86.926 105.644C86.376 105.644 85.8484 105.425 85.4595 105.036C85.0705 104.647 84.8521 104.12 84.8521 103.57V95.0517C84.8521 94.5016 85.0705 93.9741 85.4595 93.5851C85.8484 93.1961 86.376 92.9775 86.926 92.9775C87.476 92.9775 88.0036 93.1961 88.3925 93.5851C88.7815 93.9741 88.9999 94.5016 88.9999 95.0517V103.57C89.0037 103.843 88.9526 104.114 88.8496 104.368C88.7467 104.621 88.5941 104.851 88.4008 105.045C88.2075 105.238 87.9774 105.391 87.7241 105.493C87.4708 105.596 87.1994 105.647 86.926 105.644Z" fill="#E83C35"/>
<path d="M86.926 85.1511C86.3782 85.144 85.8548 84.9231 85.4674 84.5357C85.08 84.1482 84.8592 83.6248 84.8521 83.077V74.5038C84.8521 73.9537 85.0705 73.4261 85.4595 73.0371C85.8484 72.6481 86.376 72.4296 86.926 72.4296C87.476 72.4296 88.0036 72.6481 88.3925 73.0371C88.7815 73.4261 88.9999 73.9537 88.9999 74.5038V83.0216C89.0073 83.2986 88.9592 83.5743 88.8583 83.8324C88.7573 84.0904 88.6058 84.3257 88.4124 84.5242C88.2191 84.7227 87.988 84.8804 87.7327 84.9881C87.4774 85.0958 87.2031 85.1512 86.926 85.1511Z" fill="#E83C35"/>
<path d="M86.926 64.6307C86.376 64.6307 85.8484 64.4122 85.4595 64.0232C85.0705 63.6342 84.8521 63.1067 84.8521 62.5566V54.0387C84.8521 53.4886 85.0705 52.961 85.4595 52.5721C85.8484 52.1831 86.376 51.9646 86.926 51.9646C87.476 51.9646 88.0036 52.1831 88.3925 52.5721C88.7815 52.961 88.9999 53.4886 88.9999 54.0387V62.5566C89.0037 62.83 88.9526 63.1014 88.8496 63.3547C88.7467 63.608 88.5941 63.8382 88.4008 64.0315C88.2075 64.2249 87.9774 64.3775 87.7241 64.4805C87.4708 64.5834 87.1994 64.6344 86.926 64.6307Z" fill="#E83C35"/>
<path d="M86.926 44.0828C86.3782 44.0756 85.8548 43.8548 85.4674 43.4673C85.08 43.0799 84.8592 42.5565 84.8521 42.0086V33.4907C84.8521 32.9406 85.0705 32.413 85.4595 32.0241C85.8484 31.6351 86.376 31.4166 86.926 31.4166C87.476 31.4166 88.0036 31.6351 88.3925 32.0241C88.7815 32.413 88.9999 32.9406 88.9999 33.4907V42.0086C88.9999 42.5587 88.7815 43.0863 88.3925 43.4753C88.0036 43.8642 87.476 44.0828 86.926 44.0828Z" fill="#E83C35"/>
<path d="M85.5989 21.6819C84.9143 19.3956 83.9873 17.1891 82.8337 15.0999C82.6172 14.7077 82.3771 14.3291 82.1147 13.966L85.5989 21.6819Z" fill="white"/>
<path d="M85.5988 23.756C85.1489 23.7606 84.7101 23.6168 84.3502 23.3468C83.9903 23.0769 83.7294 22.6958 83.6078 22.2626C83.2409 21.0033 82.7787 19.7737 82.2252 18.5844C81.9794 18.0116 81.6929 17.457 81.3679 16.9251C81.202 16.6209 81.0361 16.3167 80.8979 16.0125C80.7596 15.7083 80.4277 15.2935 80.4001 15.2381C80.2096 15.0265 80.0648 14.7779 79.9746 14.5079C79.8844 14.2379 79.8507 13.9522 79.8757 13.6686C79.9007 13.3849 79.9838 13.1095 80.1198 12.8594C80.2559 12.6093 80.4419 12.3899 80.6664 12.2149C80.8909 12.0398 81.1491 11.9128 81.4248 11.8419C81.7005 11.7709 81.9878 11.7575 82.269 11.8024C82.5501 11.8474 82.8189 11.9497 83.0588 12.1031C83.2986 12.2564 83.5044 12.4575 83.6631 12.6938C84.0116 13.1338 84.3172 13.6061 84.5756 14.1043C84.7139 14.4085 84.8522 14.6297 84.9904 14.9063C85.3754 15.556 85.7172 16.2304 86.0136 16.9251C86.6441 18.2751 87.1711 19.6711 87.5898 21.1011C87.7352 21.6327 87.6659 22.2002 87.3969 22.6813C87.128 23.1624 86.6809 23.5185 86.1519 23.673C85.9731 23.7298 85.7864 23.7578 85.5988 23.756Z" fill="#E83C35"/>
<path d="M73.5974 5.61406L72.436 4.97799C71.5558 4.47631 70.6299 4.0596 69.6707 3.73351C68.3422 3.21634 66.9734 2.80935 65.5781 2.51666L73.5974 5.61406Z" fill="white"/>
<path d="M73.5973 7.68819C73.2286 7.69104 72.8659 7.59559 72.5464 7.41164L71.4404 6.80322C70.6808 6.35932 69.8853 5.98004 69.0623 5.66936C67.8405 5.19985 66.5828 4.8299 65.3015 4.56314C64.7685 4.45599 64.2988 4.14382 63.9937 3.69382C63.6885 3.24382 63.5723 2.69198 63.67 2.15711C63.7165 1.88895 63.816 1.63276 63.9627 1.40354C64.1094 1.17432 64.3004 0.976663 64.5244 0.822147C64.7484 0.667631 65.001 0.559368 65.2674 0.503672C65.5337 0.447977 65.8086 0.445969 66.0757 0.497786C67.6088 0.792664 69.1092 1.23729 70.5554 1.82526C71.5692 2.19282 72.5499 2.64616 73.4866 3.18037L74.6204 3.81645C75.0813 4.08846 75.4192 4.52813 75.5635 5.04353C75.7078 5.55893 75.6473 6.11017 75.3947 6.58199C75.2238 6.91231 74.9663 7.18982 74.6496 7.38472C74.3329 7.57962 73.9691 7.68453 73.5973 7.68819Z" fill="#E83C35"/>
<path d="M53.7429 4.14831H45.2258C44.6758 4.14831 44.1483 3.9298 43.7594 3.54082C43.3704 3.15184 43.1519 2.62426 43.1519 2.07416C43.1519 1.52406 43.3704 0.996496 43.7594 0.607516C44.1483 0.218536 44.6758 0 45.2258 0H53.7429C54.2929 0 54.8204 0.218536 55.2094 0.607516C55.5983 0.996496 55.8168 1.52406 55.8168 2.07416C55.8168 2.62426 55.5983 3.15184 55.2094 3.54082C54.8204 3.9298 54.2929 4.14831 53.7429 4.14831Z" fill="#E83C35"/>
<path d="M33.2523 2.07414H28.9661C28.4515 2.01838 27.9322 2.01838 27.4175 2.07414C26.9702 2.16437 26.5523 2.36388 26.2009 2.6549C25.8525 2.93521 25.5774 3.29583 25.3989 3.70582L33.2523 2.07414Z" fill="white"/>
<path d="M25.3989 5.89061C25.1322 5.88847 24.8688 5.83199 24.6246 5.72466C24.3652 5.62145 24.1288 5.46756 23.9295 5.27198C23.7302 5.0764 23.5719 4.84306 23.4638 4.58559C23.3556 4.32812 23.2999 4.05168 23.2998 3.77242C23.2997 3.49316 23.3552 3.21667 23.4632 2.95912C23.7554 2.22421 24.2315 1.57667 24.8458 1.07855C25.4665 0.55471 26.2077 0.193566 27.0027 0.0276521C27.4984 -0.0369273 28.0003 -0.0369273 28.496 0.0276521H33.2522C33.8023 0.0276521 34.3298 0.246188 34.7188 0.635168C35.1077 1.02415 35.3262 1.55171 35.3262 2.10181C35.3262 2.65191 35.1077 3.17947 34.7188 3.56845C34.3298 3.95743 33.8023 4.17597 33.2522 4.17597H28.4407C28.2382 4.16174 28.0349 4.16174 27.8323 4.17597C27.7413 4.15568 27.6469 4.15568 27.5558 4.17597C27.4493 4.26332 27.3561 4.36581 27.2793 4.48018C27.1523 4.88219 26.9027 5.23437 26.5655 5.48732C26.2283 5.74027 25.8203 5.8813 25.3989 5.89061Z" fill="#E83C35"/>
<path d="M24.9844 10.1772C25.3514 10.961 25.576 11.8037 25.648 12.6662C25.7187 13.5298 25.6439 14.3992 25.4268 15.2381L24.9844 10.1772Z" fill="white"/>
<path d="M25.4268 17.3123C25.2341 17.3392 25.0386 17.3392 24.846 17.3123C24.5845 17.2361 24.3406 17.109 24.1283 16.9385C23.9159 16.768 23.7392 16.5573 23.6083 16.3185C23.4773 16.0796 23.3946 15.8173 23.365 15.5466C23.3354 15.2758 23.3595 15.0018 23.4358 14.7404C23.57 14.1511 23.6258 13.5466 23.6017 12.9428C23.5439 12.3219 23.3851 11.7147 23.1315 11.1451C22.8895 10.6501 22.8541 10.0791 23.033 9.55786C23.2119 9.03663 23.5905 8.60783 24.0856 8.36578C24.5806 8.12374 25.1515 8.08828 25.6727 8.26721C26.1938 8.44614 26.6226 8.82481 26.8647 9.3199C27.8107 11.3725 28.0063 13.6921 27.4177 15.8742C27.2749 16.2902 27.0069 16.6518 26.6504 16.9093C26.2939 17.1668 25.8665 17.3076 25.4268 17.3123Z" fill="#E83C35"/>
<path d="M20.5595 20.2714C19.7384 20.5453 18.8808 20.6945 18.0155 20.7139H15.3608L20.5595 20.2714Z" fill="white"/>
<path d="M15.3611 22.8157C14.811 22.8157 14.2835 22.5972 13.8945 22.2082C13.5056 21.8193 13.2871 21.2917 13.2871 20.7416C13.2871 20.1915 13.5056 19.6639 13.8945 19.2749C14.2835 18.8859 14.811 18.6674 15.3611 18.6674H18.1263C18.7581 18.6608 19.3843 18.5487 19.9791 18.3356C20.2431 18.2262 20.5269 18.1725 20.8127 18.178C21.0984 18.1835 21.38 18.248 21.6396 18.3674C21.8993 18.4869 22.1315 18.6587 22.3216 18.8721C22.5117 19.0856 22.6556 19.336 22.7443 19.6077C22.8586 19.8695 22.9168 20.1523 22.9151 20.438C22.9135 20.7236 22.8522 21.0058 22.735 21.2663C22.6178 21.5268 22.4473 21.7599 22.2346 21.9505C22.0219 22.1412 21.7717 22.2851 21.4999 22.3732C20.4632 22.7526 19.3685 22.9491 18.2645 22.954L15.3611 22.8157Z" fill="#E83C35"/>
<path d="M8.11592 22.8157H2.91721C2.36716 22.8157 1.83964 22.5972 1.45069 22.2082C1.06175 21.8193 0.843262 21.2917 0.843262 20.7416C0.843262 20.1915 1.06175 19.6639 1.45069 19.2749C1.83964 18.8859 2.36716 18.6674 2.91721 18.6674H8.11592C8.66596 18.6674 9.19349 18.8859 9.58243 19.2749C9.97137 19.6639 10.1899 20.1915 10.1899 20.7416C10.1899 21.2917 9.97137 21.8193 9.58243 22.2082C9.19349 22.5972 8.66596 22.8157 8.11592 22.8157Z" fill="#E83C35"/>
</g>
<defs>
<clipPath id="clip0_81_75">
<rect width="178" height="270" fill="white" transform="translate(-89)"/>
</clipPath>
</defs>
</svg>
