<svg width="219" height="196" viewBox="0 0 219 196" fill="none" xmlns="http://www.w3.org/2000/svg">
<g clip-path="url(#clip0_81_53)">
<path d="M221.946 64.4315C217.216 64.4327 212.659 62.6468 209.182 59.4292C205.706 62.6485 201.149 64.4361 196.418 64.4361C191.687 64.4361 187.13 62.6485 183.654 59.4292C181.643 61.2997 179.248 62.7066 176.638 63.5513C174.028 64.3961 171.266 64.6583 168.544 64.3197C165.822 63.981 163.208 63.0497 160.882 61.5908C158.557 60.132 156.578 58.1809 155.083 55.8742C154.855 55.5224 154.773 55.0949 154.855 54.6831C154.937 54.2714 155.177 53.9084 155.522 53.6719C155.872 53.4472 156.296 53.3707 156.702 53.4592C157.107 53.5477 157.461 53.7939 157.686 54.1438C158.994 56.1695 160.749 57.8661 162.816 59.1023C164.882 60.3386 167.204 61.0812 169.603 61.2728C172.001 61.4644 174.411 61.0999 176.646 60.2074C178.882 59.3149 180.882 57.9183 182.493 56.1259C182.643 55.9673 182.822 55.8408 183.022 55.7543C183.222 55.6677 183.436 55.6229 183.654 55.6225C183.871 55.6247 184.085 55.6704 184.285 55.7568C184.484 55.8432 184.664 55.9687 184.814 56.1259C186.284 57.7479 188.075 59.044 190.074 59.9309C192.072 60.8177 194.233 61.2758 196.418 61.2758C198.603 61.2758 200.764 60.8177 202.762 59.9309C204.761 59.044 206.552 57.7479 208.022 56.1259C208.332 55.8222 208.749 55.6523 209.182 55.6523C209.616 55.6523 210.032 55.8222 210.343 56.1259C211.812 57.7479 213.604 59.044 215.602 59.9309C217.6 60.8177 219.761 61.2758 221.946 61.2758C224.132 61.2758 226.293 60.8177 228.291 59.9309C230.289 59.044 232.08 57.7479 233.55 56.1259C233.849 55.8356 234.248 55.6733 234.664 55.6733C235.079 55.6733 235.478 55.8356 235.777 56.1259C235.924 56.2721 236.041 56.4461 236.12 56.6378C236.2 56.8294 236.241 57.0351 236.241 57.2427C236.241 57.4504 236.2 57.656 236.12 57.8477C236.041 58.0393 235.924 58.2133 235.777 58.3596C234.014 60.2747 231.876 61.8029 229.495 62.8479C227.115 63.8929 224.545 64.4321 221.946 64.4315Z" fill="#3EB073"/>
<path d="M40.1115 196C39.4877 196 38.8894 195.751 38.4483 195.309C38.0072 194.866 37.7594 194.266 37.7594 193.64V165.924C37.7439 165.819 37.7439 165.713 37.7594 165.609C37.7456 165.505 37.7456 165.399 37.7594 165.294C37.8776 164.437 38.2347 163.631 38.7896 162.969C39.3444 162.307 40.0744 161.815 40.8956 161.551C41.3017 161.377 41.7399 161.291 42.1814 161.299C42.5571 161.269 42.9346 161.269 43.3104 161.299H94.9944C95.5476 161.344 96.1034 161.344 96.6566 161.299C99.6356 161.095 102.482 159.987 104.818 158.121C107.154 156.256 108.869 153.721 109.734 150.854C110.053 149.833 110.242 148.776 110.299 147.708C110.299 147.299 110.299 146.607 110.299 146.324V103.726C110.276 103.496 110.276 103.264 110.299 103.034C110.283 102.929 110.283 102.823 110.299 102.719C110.284 102.657 110.284 102.592 110.299 102.53C110.364 102.221 110.448 101.917 110.55 101.618C110.838 100.957 111.269 100.369 111.811 99.8961C112.354 99.4229 112.994 99.0761 113.686 98.8809C114.05 98.8301 114.419 98.8301 114.784 98.8809H313.46C314.084 98.8809 314.682 99.1295 315.123 99.572C315.564 100.014 315.812 100.615 315.812 101.24C315.812 101.866 315.564 102.466 315.123 102.909C314.682 103.351 314.084 103.6 313.46 103.6H115.066C115.079 103.673 115.079 103.747 115.066 103.82V146.386C115.066 146.67 115.066 147.551 115.066 148.148C114.936 149.49 114.684 150.817 114.313 152.112C113.562 154.653 112.301 157.013 110.608 159.048C108.914 161.082 106.824 162.747 104.466 163.942C102.132 165.093 99.5964 165.777 97.0016 165.955C95.9666 165.955 95.4648 165.955 94.9944 165.955H42.5264V193.577C42.535 193.898 42.4785 194.217 42.3602 194.515C42.2419 194.813 42.0643 195.083 41.8383 195.31C41.6123 195.536 41.3427 195.715 41.0458 195.833C40.7489 195.952 40.431 196.009 40.1115 196Z" fill="#3EB073"/>
<path d="M25.3717 196C24.7478 196 24.1495 195.751 23.7084 195.309C23.2673 194.866 23.0195 194.266 23.0195 193.64V165.326C23.0195 164.665 23.0195 164.004 23.0195 163.344C23.4753 159.96 24.8171 156.757 26.9084 154.063C29.1266 151.17 32.1332 148.985 35.5642 147.771C37.3419 147.092 39.2153 146.699 41.1152 146.607H95.4336C95.447 146.523 95.447 146.438 95.4336 146.355V103.726C95.4336 103.537 95.4336 102.593 95.4336 101.933C95.4515 101.373 95.5144 100.815 95.6217 100.265V99.8562C95.8834 98.4152 96.3151 97.0106 96.9076 95.6719C98.0522 93.0206 99.7723 90.659 101.943 88.7595C104.113 86.8599 106.678 85.4703 109.452 84.6921C110.843 84.2979 112.274 84.0657 113.717 84H313.272C313.895 84 314.494 84.2486 314.935 84.6911C315.376 85.1336 315.624 85.7338 315.624 86.3596C315.624 86.9854 315.376 87.5855 314.935 88.028C314.494 88.4705 313.895 88.7191 313.272 88.7191H114.251C113.188 88.7738 112.135 88.9533 111.114 89.254C109.034 89.8504 107.112 90.9018 105.485 92.3324C103.858 93.7631 102.568 95.5374 101.706 97.5281C101.272 98.5366 100.956 99.5924 100.765 100.674V101.052C100.765 101.461 100.765 101.838 100.765 102.216C100.765 102.593 100.765 103.443 100.765 103.663V147.016C100.731 147.281 100.679 147.544 100.608 147.802C100.447 148.443 100.147 149.04 99.7295 149.551C99.3122 150.062 98.7877 150.475 98.1934 150.76C97.6497 151.044 97.0501 151.206 96.4372 151.231C95.9045 151.264 95.3703 151.264 94.8377 151.231H41.5543C40.1157 151.3 38.6972 151.597 37.3518 152.112C34.849 153.041 32.6483 154.641 30.9893 156.738C29.3304 158.835 28.2768 161.348 27.9433 164.005C27.9149 164.497 27.9149 164.991 27.9433 165.483V193.609C27.9543 193.942 27.8937 194.274 27.7657 194.582C27.6377 194.89 27.4452 195.166 27.2014 195.393C26.9575 195.62 26.6679 195.791 26.3523 195.896C26.0366 196.001 25.7022 196.036 25.3717 196ZM100.326 146.701C100.326 146.701 100.326 146.984 100.326 147.047C100.34 146.932 100.34 146.816 100.326 146.701Z" fill="#3EB073"/>
<path d="M75.5816 102.939C74.9578 102.939 74.3595 102.691 73.9184 102.248C73.4773 101.806 73.2295 101.206 73.2295 100.58V86.4539C73.2295 85.8281 73.4773 85.228 73.9184 84.7855C74.3595 84.343 74.9578 84.0944 75.5816 84.0944C76.2054 84.0944 76.8037 84.343 77.2448 84.7855C77.6859 85.228 77.9337 85.8281 77.9337 86.4539V100.58C77.938 100.891 77.88 101.2 77.7633 101.488C77.6466 101.776 77.4735 102.038 77.2542 102.258C77.035 102.478 76.774 102.651 76.4867 102.768C76.1994 102.885 75.8917 102.944 75.5816 102.939Z" fill="#3EB073"/>
<path d="M75.5815 112.881V118.575C75.6571 119.886 75.5409 121.2 75.2365 122.476C75.0877 123.049 74.8883 123.607 74.6406 124.144L75.5815 112.881Z" fill="#3EB073"/>
<path d="M74.6407 126.503C74.2569 126.503 73.8795 126.405 73.543 126.22C73.2732 126.078 73.0339 125.883 72.839 125.648C72.6441 125.413 72.4973 125.141 72.407 124.849C72.3167 124.557 72.2848 124.25 72.3129 123.945C72.341 123.641 72.4286 123.345 72.5708 123.074C72.7391 122.688 72.8755 122.288 72.9785 121.879C73.2235 120.849 73.3081 119.788 73.2294 118.733V112.975C73.2294 112.349 73.4772 111.749 73.9183 111.307C74.3594 110.864 74.9577 110.616 75.5815 110.616C76.2054 110.616 76.8036 110.864 77.2447 111.307C77.6859 111.749 77.9337 112.349 77.9337 112.975V118.67C78.0294 120.214 77.8812 121.765 77.4946 123.263C77.3071 123.981 77.0443 124.677 76.7106 125.339C76.4994 125.7 76.1964 125.998 75.8327 126.202C75.469 126.407 75.0576 126.511 74.6407 126.503Z" fill="#3EB073"/>
<path d="M68.682 129.398C67.6689 129.727 66.6109 129.897 65.5458 129.901H62.4097L68.682 129.398Z" fill="#3EB073"/>
<path d="M65.7026 132.261H62.3782C61.7544 132.261 61.1562 132.012 60.7151 131.57C60.2739 131.127 60.0261 130.527 60.0261 129.901C60.0261 129.275 60.2739 128.675 60.7151 128.233C61.1562 127.79 61.7544 127.542 62.3782 127.542H65.5144C66.3218 127.519 67.1229 127.392 67.8979 127.164C68.4813 126.99 69.1089 127.051 69.6491 127.331C70.1893 127.612 70.6 128.092 70.7948 128.671C70.9896 129.249 70.9535 129.88 70.6941 130.432C70.4346 130.985 69.9719 131.414 69.4032 131.631C68.2081 132.026 66.9606 132.238 65.7026 132.261Z" fill="#3EB073"/>
<path d="M53.2833 129.901H30.8284C19.6323 129.901 8.31073 129.586 8.4989 130.656L53.2833 129.901Z" fill="#3EB073"/>
<path d="M8.49911 133.016C7.9407 133.015 7.4006 132.816 6.97541 132.453C6.55022 132.09 6.2677 131.587 6.17835 131.034C6.12838 130.672 6.15267 130.304 6.24975 129.953C6.34684 129.601 6.51466 129.273 6.74286 128.989C7.90325 127.636 9.56541 127.479 22.7373 127.542H53.2835C53.9074 127.542 54.5056 127.79 54.9468 128.233C55.3879 128.675 55.6357 129.275 55.6357 129.901C55.6357 130.527 55.3879 131.127 54.9468 131.57C54.5056 132.012 53.9074 132.261 53.2835 132.261H22.7373C17.8135 132.261 11.7921 132.261 9.97311 132.512C9.65529 132.764 9.27652 132.927 8.87546 132.984L8.49911 133.016Z" fill="#3EB073"/>
<path d="M2.35212 147.582C1.7283 147.582 1.13004 147.333 0.688931 146.891C0.247823 146.448 0 145.848 0 145.222V141.353C0 140.727 0.247823 140.127 0.688931 139.684C1.13004 139.242 1.7283 138.993 2.35212 138.993C2.97595 138.993 3.57421 139.242 4.01532 139.684C4.45643 140.127 4.70425 140.727 4.70425 141.353V145.222C4.69613 145.846 4.4457 146.441 4.00634 146.882C3.56698 147.323 2.97342 147.574 2.35212 147.582Z" fill="#3EB073"/>
<path d="M2.35209 157.933C2.04204 157.937 1.73429 157.879 1.44701 157.762C1.15973 157.645 0.89876 157.471 0.679499 157.251C0.460238 157.031 0.287138 156.769 0.170427 156.481C0.0537155 156.193 -0.00424831 155.884 -2.93176e-05 155.573V151.735C-2.93176e-05 151.109 0.247793 150.509 0.688902 150.066C1.13001 149.624 1.72827 149.375 2.35209 149.375C2.97592 149.375 3.57418 149.624 4.01529 150.066C4.4564 150.509 4.70422 151.109 4.70422 151.735V155.573C4.70422 156.199 4.4564 156.799 4.01529 157.241C3.57418 157.684 2.97592 157.933 2.35209 157.933Z" fill="#3EB073"/>
<path d="M2.35212 168.315C1.7283 168.315 1.13004 168.066 0.688931 167.623C0.247823 167.181 0 166.581 0 165.955V162.085C0 161.46 0.247823 160.859 0.688931 160.417C1.13004 159.974 1.7283 159.726 2.35212 159.726C2.97595 159.726 3.57421 159.974 4.01532 160.417C4.45643 160.859 4.70425 161.46 4.70425 162.085V165.955C4.69613 166.578 4.4457 167.174 4.00634 167.614C3.56698 168.055 2.97342 168.306 2.35212 168.315Z" fill="#3EB073"/>
<path d="M2.35209 178.665C2.04204 178.669 1.73429 178.611 1.44701 178.494C1.15973 178.377 0.89876 178.203 0.679499 177.983C0.460238 177.764 0.287138 177.502 0.170427 177.214C0.0537155 176.925 -0.00424831 176.617 -2.93176e-05 176.306V172.467C-2.93176e-05 171.842 0.247793 171.241 0.688902 170.799C1.13001 170.356 1.72827 170.108 2.35209 170.108C2.97592 170.108 3.57418 170.356 4.01529 170.799C4.4564 171.241 4.70422 171.842 4.70422 172.467V176.306C4.70422 176.931 4.4564 177.532 4.01529 177.974C3.57418 178.417 2.97592 178.665 2.35209 178.665Z" fill="#3EB073"/>
<path d="M198.174 38.8539C194.34 38.8539 190.591 37.7128 187.403 35.575C184.215 33.4373 181.731 30.3989 180.265 26.8444C178.799 23.2898 178.417 19.3789 179.167 15.6066C179.918 11.8342 181.767 8.3699 184.481 5.65205C187.194 2.93419 190.651 1.08495 194.412 0.338306C198.174 -0.408338 202.072 -0.0188266 205.613 1.45757C209.154 2.93397 212.179 5.43088 214.305 8.63235C216.43 11.8338 217.562 15.596 217.556 19.4427C217.547 24.5938 215.502 29.531 211.868 33.1704C208.234 36.8098 203.309 38.8539 198.174 38.8539ZM198.174 3.14608C194.961 3.14608 191.82 4.10186 189.149 5.89255C186.477 7.68325 184.395 10.2284 183.165 13.2063C181.936 16.1841 181.614 19.4608 182.241 22.622C182.868 25.7833 184.415 28.687 186.687 30.9662C188.959 33.2453 191.854 34.7974 195.005 35.4262C198.156 36.055 201.423 35.7323 204.391 34.4988C207.359 33.2654 209.897 31.1766 211.682 28.4966C213.467 25.8167 214.42 22.6659 214.42 19.4427C214.42 17.3026 213.999 15.1835 213.183 13.2063C212.367 11.2291 211.17 9.43252 209.661 7.91924C208.153 6.40595 206.362 5.20556 204.391 4.38658C202.42 3.5676 200.308 3.14608 198.174 3.14608Z" fill="#3EB073"/>
<path d="M157.153 129.146H141.943C141.319 129.146 140.721 128.898 140.28 128.455C139.839 128.013 139.591 127.412 139.591 126.787C139.591 126.161 139.839 125.561 140.28 125.118C140.721 124.676 141.319 124.427 141.943 124.427H157.153C157.777 124.427 158.375 124.676 158.817 125.118C159.258 125.561 159.505 126.161 159.505 126.787C159.505 127.412 159.258 128.013 158.817 128.455C158.375 128.898 157.777 129.146 157.153 129.146Z" fill="#3EB073"/>
<path d="M182.148 129.146H166.969C166.345 129.146 165.747 128.898 165.306 128.455C164.865 128.013 164.617 127.412 164.617 126.787C164.617 126.161 164.865 125.561 165.306 125.118C165.747 124.676 166.345 124.427 166.969 124.427H182.148C182.772 124.427 183.37 124.676 183.812 125.118C184.253 125.561 184.5 126.161 184.5 126.787C184.5 127.412 184.253 128.013 183.812 128.455C183.37 128.898 182.772 129.146 182.148 129.146Z" fill="#3EB073"/>
<path d="M207.175 129.146H191.996C191.372 129.146 190.774 128.898 190.333 128.455C189.892 128.013 189.644 127.412 189.644 126.787C189.644 126.161 189.892 125.561 190.333 125.118C190.774 124.676 191.372 124.427 191.996 124.427H207.175C207.799 124.427 208.397 124.676 208.838 125.118C209.279 125.561 209.527 126.161 209.527 126.787C209.527 127.412 209.279 128.013 208.838 128.455C208.397 128.898 207.799 129.146 207.175 129.146Z" fill="#3EB073"/>
<path d="M232.202 129.146H216.991C216.367 129.146 215.769 128.898 215.328 128.455C214.887 128.013 214.639 127.412 214.639 126.787C214.639 126.161 214.887 125.561 215.328 125.118C215.769 124.676 216.367 124.427 216.991 124.427H232.202C232.826 124.427 233.424 124.676 233.865 125.118C234.306 125.561 234.554 126.161 234.554 126.787C234.554 127.412 234.306 128.013 233.865 128.455C233.424 128.898 232.826 129.146 232.202 129.146Z" fill="#3EB073"/>
</g>
<defs>
<clipPath id="clip0_81_53">
<rect width="316" height="196" fill="white"/>
</clipPath>
</defs>
</svg>
