<svg width="47" height="47" viewBox="0 0 47 47" fill="none" xmlns="http://www.w3.org/2000/svg">
<g clip-path="url(#clip0_66_209)">
<path d="M23.6128 47C18.9604 47.0064 14.4107 45.6326 10.5392 43.0525C6.66776 40.4724 3.64858 36.8019 1.86375 32.5055C0.0789199 28.2091 -0.391319 23.4797 0.51241 18.9159C1.41614 14.3521 3.65329 10.1589 6.94079 6.8669C10.2283 3.57488 14.4184 1.332 18.981 0.422003C23.5435 -0.48799 28.2734 -0.0241688 32.5723 1.75476C36.8712 3.53369 40.5459 6.54779 43.1313 10.4157C45.7167 14.2836 47.0967 18.8315 47.0967 23.4839C47.0882 29.7126 44.6123 35.6842 40.211 40.0915C35.8096 44.4989 29.8415 46.983 23.6128 47ZM23.6128 4.83876C19.9161 4.83238 16.3005 5.92316 13.2241 7.97301C10.1476 10.0229 7.74877 12.9395 6.33113 16.3537C4.91348 19.7678 4.54081 23.526 5.26045 27.152C5.9801 30.7781 7.7597 34.109 10.3737 36.723C12.9877 39.3371 16.3187 41.1166 19.9447 41.8363C23.5708 42.5559 27.3289 42.1833 30.743 40.7656C34.1572 39.348 37.0739 36.9491 39.1237 33.8726C41.1736 30.7962 42.2644 27.1807 42.258 23.4839C42.241 18.5441 40.2712 13.8116 36.7782 10.3186C33.2853 6.82562 28.5526 4.85576 23.6128 4.83876Z" fill="#3EB073"/>
<path d="M23.613 38.6774C22.9713 38.6774 22.3559 38.4225 21.9022 37.9688C21.4485 37.5151 21.1936 36.8997 21.1936 36.2581V10.7419C21.1936 10.1003 21.4485 9.48494 21.9022 9.03122C22.3559 8.5775 22.9713 8.32257 23.613 8.32257C24.2546 8.32257 24.87 8.5775 25.3237 9.03122C25.7774 9.48494 26.0323 10.1003 26.0323 10.7419V36.2581C26.024 36.8971 25.7664 37.5077 25.3145 37.9596C24.8625 38.4115 24.252 38.6691 23.613 38.6774Z" fill="#3EB073"/>
<path d="M36.2581 25.9032H10.7096C10.068 25.9032 9.4526 25.6483 8.99888 25.1946C8.54516 24.7409 8.29028 24.1255 8.29028 23.4839C8.29028 22.8422 8.54516 22.2268 8.99888 21.7731C9.4526 21.3194 10.068 21.0645 10.7096 21.0645H36.1935C36.8351 21.0645 37.4505 21.3194 37.9042 21.7731C38.358 22.2268 38.6128 22.8422 38.6128 23.4839C38.6128 24.1255 38.358 24.7409 37.9042 25.1946C37.4505 25.6483 36.8351 25.9032 36.1935 25.9032H36.2581Z" fill="#3EB073"/>
</g>
<defs>
<clipPath id="clip0_66_209">
<rect width="47" height="47" fill="white"/>
</clipPath>
</defs>
</svg>
