<svg width="380" height="264" viewBox="0 0 380 264" fill="none" xmlns="http://www.w3.org/2000/svg">
<g clip-path="url(#clip0_66_407)">
<path d="M170.869 309.233L168.757 307.524C187.311 284.917 194.867 266.062 191.855 249.882C187.753 227.86 164.382 214.506 143.764 202.724C132.189 196.109 121.255 189.862 115.081 182.783C110.447 177.468 108.524 171.708 109.372 165.666C111.292 151.964 126.71 141.758 127.366 141.331L128.863 143.581C128.711 143.681 113.81 153.551 112.065 166.048C111.335 171.281 113.043 176.32 117.139 181.023C123.014 187.763 133.753 193.899 145.124 200.394C166.253 212.466 190.202 226.151 194.531 249.39C197.696 266.407 189.955 285.977 170.869 309.233Z" fill="#D9D9D9"/>
<path d="M8.63089 158.784C8.29171 158.086 0.277958 141.453 -1.5329 120.73C-4.01636 92.4343 6.31126 70.3548 28.3002 56.8781C44.3651 47.0304 62.0454 44.1761 79.4325 48.6171C99.487 53.7446 115.474 67.8851 119.961 75.8184L110.47 81.0912C107.478 75.8042 94.086 63.5096 76.7104 59.0601C62.0511 55.3085 47.6994 57.6557 34.026 66.0363C15.5006 77.3937 7.18508 95.4795 9.30637 119.792C10.9448 138.559 18.352 153.93 18.4267 154.084L8.63089 158.784Z" fill="#D9D9D9"/>
<path d="M126.256 67.3888L100.021 82.3995L104.179 89.5365L130.414 74.5257L126.256 67.3888Z" fill="#D9D9D9"/>
<path d="M326.068 48.5829H308.158V130.822H326.068V48.5829Z" fill="#455A64"/>
<path d="M327.974 105.732H306.991C305.081 107.274 303.542 109.219 302.487 111.425C301.432 113.631 300.887 116.043 300.892 118.485L300.92 133.534L334.096 133.497L334.068 118.448C334.067 116.013 333.52 113.609 332.467 111.409C331.413 109.21 329.878 107.27 327.974 105.732Z" fill="#F2F2F2"/>
<path d="M337.203 133.463H297.994V138.177H337.203V133.463Z" fill="#455A64"/>
<path d="M289.868 219.223L283.151 220.197L264.088 171.338L282.409 168.683L289.868 219.223Z" fill="#455A64"/>
<path d="M359.707 218.861L366.49 218.607L376.249 167.122L357.744 167.82L359.707 218.861Z" fill="#455A64"/>
<path d="M338.574 155.867L299.103 155.841C296.786 155.834 294.566 154.918 292.929 153.293C291.291 151.668 290.37 149.467 290.365 147.17C290.373 144.874 291.297 142.674 292.937 141.051C294.577 139.428 296.798 138.515 299.115 138.51L338.586 138.536C340.903 138.544 343.122 139.461 344.759 141.086C346.397 142.71 347.318 144.911 347.324 147.207C347.315 149.503 346.39 151.702 344.75 153.325C343.111 154.947 340.891 155.861 338.574 155.867Z" fill="#F2F2F2"/>
<path d="M303.633 141.328C302.318 139.896 300.491 139.03 298.542 138.914C296.592 138.797 294.673 139.439 293.194 140.704L267.379 162.772C265.978 163.946 264.856 165.411 264.093 167.064C263.329 168.717 262.943 170.516 262.962 172.334C262.981 174.152 263.404 175.943 264.202 177.58C265 179.217 266.152 180.659 267.577 181.804C268.94 182.899 270.52 183.697 272.215 184.145C273.909 184.593 275.681 184.682 277.413 184.405C279.144 184.129 280.798 183.493 282.264 182.539C283.731 181.586 284.978 180.336 285.924 178.872L304.404 150.344C305.296 148.967 305.704 147.337 305.566 145.707C305.428 144.077 304.751 142.537 303.639 141.328H303.633Z" fill="#F2F2F2"/>
<path d="M272.145 168.916C271.507 169.702 271.138 170.668 271.091 171.675C271.044 172.682 271.322 173.678 271.884 174.518C272.446 175.358 273.264 175.999 274.218 176.349C275.173 176.698 276.214 176.737 277.193 176.46C278.171 176.183 279.035 175.605 279.659 174.81C280.284 174.014 280.637 173.042 280.667 172.034C280.697 171.026 280.403 170.035 279.827 169.204C279.25 168.373 278.422 167.746 277.462 167.412C276.528 167.089 275.515 167.06 274.563 167.329C273.611 167.599 272.766 168.153 272.145 168.916Z" fill="#455A64"/>
<path d="M294.746 144.661C294.255 145.265 293.971 146.008 293.935 146.782C293.899 147.557 294.113 148.323 294.545 148.969C294.977 149.615 295.606 150.108 296.34 150.377C297.074 150.646 297.875 150.675 298.628 150.463C299.38 150.25 300.045 149.805 300.525 149.193C301.005 148.581 301.277 147.833 301.299 147.058C301.322 146.283 301.096 145.521 300.652 144.882C300.209 144.243 299.572 143.76 298.833 143.504C298.115 143.256 297.336 143.234 296.605 143.441C295.873 143.648 295.224 144.074 294.746 144.661Z" fill="#455A64"/>
<path d="M332.883 141.692C333.995 140.1 335.689 139 337.607 138.628C339.524 138.256 341.512 138.64 343.148 139.698L371.664 158.209C373.209 159.188 374.517 160.494 375.494 162.032C376.471 163.57 377.094 165.303 377.317 167.108C377.541 168.912 377.36 170.743 376.787 172.47C376.214 174.196 375.264 175.777 374.004 177.098C372.799 178.361 371.339 179.359 369.718 180.025C368.098 180.691 366.353 181.011 364.6 180.963C362.846 180.915 361.122 180.501 359.541 179.747C357.96 178.994 356.557 177.918 355.424 176.591L333.314 150.728C332.248 149.48 331.626 147.918 331.547 146.284C331.467 144.65 331.934 143.036 332.875 141.692H332.883Z" fill="#F2F2F2"/>
<path d="M335.89 145.794C335.735 146.554 335.828 147.343 336.156 148.047C336.483 148.75 337.029 149.332 337.712 149.708C338.396 150.084 339.183 150.235 339.959 150.138C340.735 150.041 341.46 149.702 342.028 149.17C342.596 148.638 342.979 147.94 343.12 147.177C343.262 146.415 343.155 145.628 342.814 144.93C342.474 144.232 341.919 143.66 341.228 143.296C340.538 142.932 339.748 142.795 338.974 142.906C338.222 143.014 337.523 143.349 336.97 143.866C336.418 144.383 336.041 145.057 335.89 145.794Z" fill="#455A64"/>
<path d="M359.707 167.452C359.508 168.441 359.631 169.467 360.06 170.382C360.488 171.297 361.199 172.053 362.09 172.54C362.98 173.028 364.004 173.222 365.014 173.095C366.023 172.968 366.965 172.526 367.704 171.833C368.443 171.139 368.941 170.231 369.124 169.239C369.308 168.248 369.169 167.224 368.726 166.316C368.284 165.407 367.561 164.662 366.663 164.188C365.765 163.714 364.738 163.535 363.731 163.678C362.749 163.817 361.834 164.255 361.114 164.931C360.393 165.607 359.901 166.488 359.707 167.452Z" fill="#455A64"/>
<path d="M320.523 44.2502H254.531V65.2928H320.523V44.2502Z" fill="#D9D9D9"/>
<path d="M219.814 31.7391H262.567V77.8039H219.814C213.65 77.8039 207.738 75.3771 203.379 71.0575C199.021 66.7378 196.572 60.879 196.572 54.7701C196.572 48.6612 199.021 42.8024 203.379 38.4827C207.738 34.1631 213.65 31.7363 219.814 31.7363V31.7391Z" fill="#F2F2F2"/>
<path d="M287.816 31.7391H317.942C324.106 31.7391 330.018 34.1659 334.377 38.4856C338.736 42.8053 341.184 48.664 341.184 54.7729C341.184 60.8819 338.736 66.7406 334.377 71.0603C330.018 75.38 324.106 77.8067 317.942 77.8067H287.816V31.7391Z" fill="#F2F2F2"/>
<path d="M323.424 65.7657C321.189 66.6935 318.728 66.9439 316.35 66.4853C313.972 66.0266 311.785 64.8796 310.065 63.1891C308.346 61.4987 307.17 59.3407 306.688 56.9882C306.205 54.6357 306.438 52.1942 307.355 49.9726C308.273 47.7509 309.835 45.8488 311.843 44.5068C313.852 43.1648 316.217 42.4432 318.639 42.4331C321.061 42.4231 323.432 43.1252 325.452 44.4506C327.472 45.7759 329.049 47.665 329.986 49.879C331.237 52.8485 331.25 56.1888 330.019 59.1671C328.789 62.1454 326.417 64.5185 323.424 65.7657ZM315.95 48.0901C314.657 48.6276 313.553 49.5331 312.779 50.6921C312.005 51.8512 311.595 53.2116 311.601 54.6016C311.607 55.9915 312.029 57.3484 312.813 58.5007C313.598 59.653 314.709 60.5489 316.007 61.0752C317.305 61.6015 318.732 61.7345 320.106 61.4574C321.48 61.1803 322.741 60.5055 323.728 59.5183C324.716 58.5312 325.386 57.2761 325.653 55.9117C325.921 54.5473 325.774 53.1349 325.232 51.8531C324.502 50.1352 323.115 48.7742 321.375 48.0687C319.634 47.3632 317.682 47.3709 315.947 48.0901H315.95Z" fill="#D9D9D9"/>
<path d="M134.399 151.395L97.5576 94.8713L85.6519 102.493L122.493 159.016L134.399 151.395Z" fill="#D9D9D9"/>
<path d="M17.4296 186.128C16.1137 184.102 15.2134 181.839 14.7801 179.469C14.3469 177.098 14.3892 174.666 14.9046 172.312C15.4201 169.957 16.3986 167.727 17.7842 165.747C19.1698 163.768 20.9353 162.078 22.98 160.775L118.202 100.023L138.225 130.873L43.0029 191.617C40.96 192.921 38.6781 193.813 36.2873 194.242C33.8965 194.672 31.4438 194.631 29.0691 194.121C26.6944 193.612 24.4442 192.643 22.4471 191.272C20.45 189.9 18.7451 188.152 17.4296 186.128Z" fill="#D9D9D9"/>
<path d="M130.007 160.111L233.025 84.5095C239.403 79.8287 243.74 72.9131 245.15 65.1729C246.561 57.4326 244.939 49.4506 240.616 42.8544C236.293 36.2579 229.595 31.5438 221.886 29.6731C214.177 27.8025 206.039 28.9163 199.13 32.7874L87.751 95.2915L130.007 160.111Z" fill="#F2F2F2"/>
<path d="M225.25 76.3767C221.932 78.5114 218.05 79.6233 214.095 79.5717C210.14 79.5202 206.289 78.3075 203.03 76.0871C199.77 73.8666 197.248 70.7381 195.782 67.0972C194.316 63.4563 193.973 59.4664 194.795 55.6321C195.618 51.7977 197.569 48.2912 200.402 45.5558C203.235 42.8203 206.823 40.9789 210.713 40.2644C214.602 39.5498 218.617 39.9942 222.252 41.5413C225.886 43.0884 228.976 45.6687 231.131 48.9561C234.014 53.3668 235.014 58.731 233.912 63.8717C232.809 69.0124 229.694 73.5097 225.25 76.3767ZM208.049 50.1269C206.129 51.3633 204.621 53.1363 203.717 55.2219C202.813 57.3074 202.553 59.6118 202.971 61.8436C203.388 64.0754 204.464 66.1344 206.062 67.7603C207.66 69.3862 209.709 70.5059 211.949 70.9779C214.19 71.4499 216.521 71.253 218.648 70.412C220.776 69.5711 222.604 68.1238 223.901 66.2533C225.198 64.3828 225.907 62.1731 225.937 59.9035C225.968 57.6338 225.318 55.4063 224.071 53.5025C222.396 50.9514 219.769 49.1631 216.765 48.5302C213.761 47.8974 210.626 48.4716 208.049 50.1269Z" fill="#D9D9D9"/>
<path d="M170.082 344.436C145.017 365.974 107.078 363.299 85.3422 338.454L-13.312 225.712C-35.048 200.872 -32.349 163.273 -7.27586 141.732C17.7887 120.191 55.7275 122.869 77.4635 147.714L176.118 260.465C197.845 285.296 195.146 322.895 170.082 344.436Z" fill="#F2F2F2"/>
<path d="M9.03607 160.388C4.31448 164.45 0.91427 169.809 -0.734691 175.786C-2.38365 181.763 -2.20732 188.091 -0.227996 193.969C1.75133 199.847 5.44478 205.011 10.3854 208.809C15.326 212.607 21.292 214.868 27.529 215.306C33.7661 215.744 39.9941 214.339 45.4258 211.27C50.8575 208.2 55.2489 203.604 58.0449 198.061C60.8409 192.519 61.9159 186.279 61.134 180.131C60.3521 173.983 57.7484 168.203 53.6521 163.521C50.9309 160.411 47.618 157.863 43.9027 156.022C40.1874 154.181 36.1425 153.084 31.9992 152.793C27.8559 152.502 23.6953 153.023 19.7552 154.326C15.8151 155.629 12.1727 157.689 9.03607 160.388ZM42.1488 198.229C39.3228 200.657 35.8335 202.201 32.1221 202.665C28.4108 203.128 24.644 202.491 21.2983 200.833C17.9525 199.175 15.178 196.571 13.3256 193.35C11.4732 190.129 10.6261 186.437 10.8914 182.739C11.1567 179.041 12.5226 175.504 14.8162 172.575C17.1098 169.647 20.2282 167.458 23.777 166.286C27.3258 165.114 31.1457 165.011 34.7535 165.99C38.3613 166.97 41.5951 168.987 44.0459 171.788C47.3323 175.543 48.9787 180.439 48.6229 185.398C48.2671 190.356 45.9383 194.972 42.1488 198.229Z" fill="#D9D9D9"/>
<path d="M137.156 254.842C144.323 254.841 151.421 256.24 158.043 258.958C164.665 261.676 170.682 265.66 175.75 270.683C180.819 275.706 184.839 281.669 187.582 288.231C190.325 294.794 191.737 301.828 191.737 308.931V355.34H82.5771V308.931C82.5771 294.586 88.3274 280.828 98.5628 270.684C108.798 260.54 122.681 254.842 137.156 254.842Z" fill="#D9D9D9"/>
<path d="M350.17 37.068C352.446 34.548 352.207 30.6548 349.634 28.3723C347.062 26.0898 343.131 26.2823 340.854 28.8022C338.578 31.3222 338.817 35.2154 341.39 37.4979C343.962 39.7804 347.893 39.5879 350.17 37.068Z" fill="#F2F2F2"/>
<path d="M341.961 1.95414C341.959 1.43961 342.163 0.945427 342.528 0.579733C342.894 0.214039 343.39 0.00661384 343.909 0.00284937C363.3 -0.0227881 378.804 14.4025 379.997 33.5622C380.026 34.0766 379.848 34.5813 379.502 34.9658C379.156 35.3503 378.671 35.5831 378.152 35.6132C377.62 35.6525 377.094 35.4806 376.689 35.1356C376.285 34.7905 376.036 34.3004 375.996 33.773C374.789 16.8381 361.095 4.09914 343.947 3.97095C343.414 3.96419 342.905 3.748 342.533 3.36985C342.16 2.9917 341.954 2.48251 341.961 1.95414Z" fill="#F2F2F2"/>
<path d="M341.929 10.2094C341.93 9.94961 341.982 9.69255 342.084 9.45318C342.186 9.2138 342.335 8.9969 342.522 8.81506C342.71 8.63322 342.931 8.49009 343.175 8.39398C343.418 8.29788 343.679 8.25073 343.941 8.25526C358.698 8.54012 370.463 19.4674 371.67 34.0294C371.693 34.2896 371.664 34.5518 371.583 34.8006C371.502 35.0493 371.373 35.2796 371.201 35.4778C371.029 35.6761 370.819 35.8383 370.583 35.955C370.348 36.0717 370.091 36.1405 369.828 36.1573H369.813C369.29 36.1931 368.774 36.0253 368.374 35.6896C367.974 35.3539 367.722 34.8769 367.672 34.3599C366.522 21.9229 356.462 12.5908 343.863 12.2291C343.339 12.209 342.843 11.9866 342.481 11.6093C342.12 11.232 341.922 10.7296 341.929 10.2094Z" fill="#F2F2F2"/>
<path d="M341.897 18.2168V18.1912C341.898 17.9273 341.952 17.6662 342.057 17.4237C342.161 17.1811 342.315 16.9621 342.507 16.78C342.7 16.5979 342.928 16.4564 343.177 16.364C343.427 16.2717 343.692 16.2304 343.958 16.2427C348.899 16.4503 353.6 18.407 357.209 21.7575C360.818 25.108 363.094 29.63 363.625 34.5023C363.655 34.7653 363.63 35.0315 363.552 35.2847C363.475 35.538 363.346 35.7729 363.174 35.9753C363.002 36.1776 362.79 36.343 362.551 36.4615C362.312 36.58 362.052 36.649 361.785 36.6644H361.759C361.246 36.6953 360.74 36.5319 360.344 36.2072C359.947 35.8825 359.69 35.4208 359.624 34.9153C359.128 31.0217 357.275 27.422 354.385 24.7387C351.495 22.0553 347.75 20.4568 343.797 20.2194C343.284 20.1855 342.802 19.9601 342.45 19.5886C342.097 19.217 341.9 18.7268 341.897 18.2168Z" fill="#F2F2F2"/>
</g>
<defs>
<clipPath id="clip0_66_407">
<rect width="408" height="528" fill="white" transform="translate(-28)"/>
</clipPath>
</defs>
</svg>
