<svg width="326" height="304" viewBox="0 0 326 304" fill="none" xmlns="http://www.w3.org/2000/svg">
<path d="M59.1169 298.661C59.1169 276.928 76.7356 259.309 98.4693 259.309H218.577C239.522 259.309 256.797 275.715 257.877 296.632L260.246 342.509C261.429 365.396 242.881 384.447 219.971 383.879L97.4934 380.841C76.1464 380.311 59.1169 362.854 59.1169 341.5V298.661Z" fill="#C9C9C9"/>
<rect x="116.89" y="231.094" width="61.8041" height="28.2149" fill="#D9D9D9"/>
<path d="M52.3989 298.661C52.3989 276.928 70.0176 259.309 91.7513 259.309H211.859C232.804 259.309 250.079 275.715 251.159 296.632L253.528 342.509C254.71 365.396 236.163 384.447 213.253 383.879L90.7753 380.841C69.4284 380.311 52.3989 362.854 52.3989 341.5V298.661Z" fill="#F2F2F2"/>
<rect x="253.934" y="110.173" width="71.209" height="50.3674" rx="15.6257" fill="#D9D9D9"/>
<rect y="110.173" width="71.209" height="50.3674" rx="15.6257" fill="#D9D9D9"/>
<rect x="170.018" y="35.9078" width="71.209" height="50.3674" rx="15.6257" transform="rotate(85.8934 170.018 35.9078)" fill="#D9D9D9"/>
<path d="M16.1226 109.258C16.1226 79.261 39.5918 54.5065 69.5465 52.9086L247.281 43.4279C279.229 41.7237 306.202 66.8931 306.709 98.8824L308.087 185.711C308.596 217.792 282.288 243.842 250.214 243.017L71.1017 238.411C40.5116 237.624 16.1226 212.6 16.1226 182V109.258Z" fill="#D9D9D9"/>
<path d="M16.1226 108.872C16.1226 78.9208 39.5216 54.1876 69.4265 52.5285L231.071 43.5606C263.07 41.7853 290.122 66.9838 290.62 99.0285L292.008 188.568C292.497 220.072 267.093 245.873 235.585 245.873H72.5524C41.3871 245.873 16.1226 220.609 16.1226 189.443V108.872Z" fill="#F2F2F2"/>
<path d="M47.0251 116.821C47.0251 102.52 58.2117 90.7158 72.493 89.9485L218.405 82.1091C233.617 81.2919 246.473 93.2516 246.756 108.482L248.051 178.154C248.331 193.21 236.202 205.565 221.144 205.565H73.9368C59.0739 205.565 47.0251 193.517 47.0251 178.654V116.821Z" fill="#455A64"/>
<rect x="142.418" y="13.4359" width="5.37427" height="26.8713" fill="#D9D9D9"/>
<circle cx="144.433" cy="11.4203" r="11.4203" fill="#D9D9D9"/>
<circle cx="94.7211" cy="143.09" r="11.4203" fill="#D9D9D9"/>
<circle cx="196.832" cy="143.09" r="11.4203" fill="#D9D9D9"/>
</svg>
