<svg width="255" height="196" viewBox="0 0 255 196" fill="none" xmlns="http://www.w3.org/2000/svg">
<g clip-path="url(#clip0_66_232)">
<path d="M160.946 64.4315C156.216 64.4327 151.659 62.6468 148.182 59.4292C144.706 62.6485 140.149 64.4361 135.418 64.4361C130.687 64.4361 126.13 62.6485 122.654 59.4292C120.643 61.2997 118.248 62.7066 115.638 63.5513C113.028 64.3961 110.266 64.6583 107.544 64.3197C104.822 63.981 102.208 63.0496 99.8824 61.5908C97.5572 60.1319 95.578 58.1808 94.0834 55.8741C93.8548 55.5224 93.7727 55.0948 93.8548 54.6831C93.9369 54.2714 94.1766 53.9084 94.5225 53.6719C94.872 53.4472 95.296 53.3707 95.7017 53.4592C96.1073 53.5476 96.4614 53.7938 96.6864 54.1438C97.9944 56.1695 99.7494 57.8661 101.816 59.1023C103.882 60.3385 106.204 61.0812 108.603 61.2728C111.001 61.4644 113.411 61.0999 115.646 60.2074C117.882 59.3148 119.882 57.9183 121.493 56.1258C121.643 55.9672 121.822 55.8408 122.022 55.7543C122.222 55.6677 122.436 55.6229 122.654 55.6225C122.871 55.6247 123.085 55.6703 123.285 55.7568C123.484 55.8432 123.664 55.9687 123.814 56.1258C125.284 57.7479 127.075 59.044 129.074 59.9308C131.072 60.8177 133.233 61.2758 135.418 61.2758C137.603 61.2758 139.764 60.8177 141.762 59.9308C143.761 59.044 145.552 57.7479 147.022 56.1258C147.332 55.8222 147.749 55.6523 148.182 55.6523C148.616 55.6523 149.032 55.8222 149.343 56.1258C150.812 57.7479 152.604 59.044 154.602 59.9308C156.6 60.8177 158.761 61.2758 160.946 61.2758C163.132 61.2758 165.293 60.8177 167.291 59.9308C169.289 59.044 171.08 57.7479 172.55 56.1258C172.849 55.8356 173.248 55.6733 173.664 55.6733C174.079 55.6733 174.478 55.8356 174.777 56.1258C174.924 56.2721 175.041 56.4461 175.12 56.6377C175.2 56.8294 175.241 57.035 175.241 57.2427C175.241 57.4504 175.2 57.6559 175.12 57.8476C175.041 58.0393 174.924 58.2133 174.777 58.3595C173.014 60.2747 170.876 61.8029 168.495 62.8479C166.115 63.8929 163.545 64.4321 160.946 64.4315Z" fill="#3EB073"/>
<path d="M-20.8882 196C-21.5121 196 -22.1103 195.751 -22.5515 195.309C-22.9926 194.866 -23.2404 194.266 -23.2404 193.64V165.924C-23.2558 165.819 -23.2558 165.713 -23.2404 165.609C-23.2542 165.505 -23.2542 165.399 -23.2404 165.294C-23.1221 164.437 -22.765 163.631 -22.2102 162.969C-21.6554 162.307 -20.9254 161.815 -20.1042 161.551C-19.698 161.377 -19.2599 161.291 -18.8184 161.299C-18.4426 161.269 -18.0651 161.269 -17.6894 161.299H33.9947C34.5478 161.344 35.1037 161.344 35.6568 161.299C38.6359 161.095 41.4827 159.987 43.8187 158.121C46.1547 156.256 47.8693 153.721 48.7346 150.854C49.0531 149.833 49.2427 148.776 49.2992 147.708C49.2992 147.299 49.2992 146.607 49.2992 146.324V103.726C49.2761 103.496 49.2761 103.264 49.2992 103.034C49.2837 102.929 49.2837 102.823 49.2992 102.719C49.2845 102.657 49.2845 102.592 49.2992 102.53C49.3641 102.221 49.4479 101.917 49.5501 101.618C49.8386 100.958 50.2694 100.369 50.8117 99.8962C51.354 99.4229 51.9943 99.0761 52.6862 98.8809C53.0504 98.8301 53.4197 98.8301 53.7838 98.8809H252.46C253.084 98.8809 253.682 99.1295 254.123 99.572C254.564 100.014 254.812 100.615 254.812 101.24C254.812 101.866 254.564 102.466 254.123 102.909C253.682 103.351 253.084 103.6 252.46 103.6H54.0661C54.079 103.673 54.079 103.747 54.0661 103.82V146.386C54.0661 146.67 54.0661 147.551 54.0661 148.148C53.9367 149.49 53.6847 150.817 53.3134 152.112C52.5624 154.653 51.3014 157.013 49.6079 159.048C47.9145 161.082 45.8243 162.747 43.4659 163.942C41.132 165.093 38.5966 165.777 36.0018 165.955C34.9669 165.955 34.4651 165.955 33.9947 165.955H-18.4734V193.578C-18.4648 193.898 -18.5213 194.217 -18.6396 194.515C-18.7579 194.813 -18.9355 195.083 -19.1614 195.31C-19.3874 195.536 -19.6571 195.715 -19.954 195.833C-20.2509 195.952 -20.5688 196.009 -20.8882 196Z" fill="#3EB073"/>
<path d="M-35.6283 196C-36.2522 196 -36.8505 195.751 -37.2916 195.309C-37.7327 194.866 -37.9805 194.266 -37.9805 193.64V165.326C-37.9805 164.665 -37.9805 164.004 -37.9805 163.344C-37.5247 159.96 -36.1829 156.757 -34.0916 154.063C-31.8734 151.17 -28.8668 148.985 -25.4358 147.771C-23.6581 147.092 -21.7847 146.699 -19.8848 146.607H34.4336C34.447 146.523 34.447 146.438 34.4336 146.355V103.726C34.4336 103.537 34.4336 102.593 34.4336 101.933C34.4515 101.373 34.5144 100.815 34.6217 100.265V99.8562C34.8834 98.4152 35.3151 97.0106 35.9076 95.6719C37.0522 93.0206 38.7723 90.659 40.9426 88.7595C43.1128 86.8599 45.6785 85.4703 48.4522 84.6921C49.8428 84.2979 51.2739 84.0657 52.7174 84H252.272C252.895 84 253.494 84.2486 253.935 84.6911C254.376 85.1336 254.624 85.7338 254.624 86.3596C254.624 86.9854 254.376 87.5855 253.935 88.028C253.494 88.4705 252.895 88.7191 252.272 88.7191H53.2506C52.1879 88.7738 51.1354 88.9533 50.1144 89.254C48.0343 89.8504 46.1118 90.9018 44.485 92.3324C42.8583 93.7631 41.5676 95.5374 40.7059 97.5281C40.2717 98.5366 39.9559 99.5924 39.765 100.674V101.052C39.765 101.461 39.765 101.838 39.765 102.216C39.765 102.593 39.765 103.443 39.765 103.663V147.016C39.731 147.281 39.6786 147.544 39.6082 147.802C39.4469 148.443 39.1469 149.04 38.7295 149.551C38.3122 150.062 37.7877 150.475 37.1934 150.76C36.6497 151.044 36.0501 151.206 35.4372 151.231C34.9045 151.264 34.3703 151.264 33.8377 151.231H-19.4457C-20.8843 151.3 -22.3028 151.597 -23.6482 152.112C-26.151 153.041 -28.3517 154.641 -30.0107 156.738C-31.6696 158.835 -32.7232 161.348 -33.0567 164.005C-33.0851 164.497 -33.0851 164.991 -33.0567 165.483V193.609C-33.0457 193.942 -33.1063 194.274 -33.2343 194.582C-33.3623 194.89 -33.5548 195.166 -33.7986 195.393C-34.0425 195.62 -34.3321 195.791 -34.6477 195.896C-34.9634 196.001 -35.2978 196.036 -35.6283 196ZM39.326 146.701C39.326 146.701 39.326 146.984 39.326 147.047C39.3401 146.932 39.3401 146.816 39.326 146.701Z" fill="#3EB073"/>
<path d="M14.5816 102.939C13.9578 102.939 13.3595 102.691 12.9184 102.248C12.4773 101.806 12.2295 101.206 12.2295 100.58V86.4539C12.2295 85.8281 12.4773 85.228 12.9184 84.7855C13.3595 84.343 13.9578 84.0944 14.5816 84.0944C15.2054 84.0944 15.8037 84.343 16.2448 84.7855C16.6859 85.228 16.9337 85.8281 16.9337 86.4539V100.58C16.938 100.891 16.88 101.2 16.7633 101.488C16.6466 101.776 16.4735 102.038 16.2542 102.258C16.035 102.478 15.774 102.651 15.4867 102.768C15.1994 102.885 14.8917 102.944 14.5816 102.939Z" fill="#3EB073"/>
<path d="M14.5815 112.881V118.575C14.6571 119.886 14.5409 121.2 14.2365 122.476C14.0877 123.049 13.8883 123.607 13.6406 124.144L14.5815 112.881Z" fill="#3EB073"/>
<path d="M13.6409 126.503C13.2572 126.503 12.8797 126.405 12.5433 126.22C12.2734 126.078 12.0342 125.883 11.8393 125.648C11.6443 125.413 11.4976 125.141 11.4073 124.849C11.317 124.557 11.285 124.25 11.3131 123.945C11.3412 123.641 11.4289 123.345 11.5711 123.074C11.7394 122.688 11.8757 122.288 11.9788 121.879C12.2237 120.849 12.3083 119.788 12.2297 118.733V112.975C12.2297 112.349 12.4775 111.749 12.9186 111.307C13.3597 110.864 13.958 110.616 14.5818 110.616C15.2056 110.616 15.8039 110.864 16.245 111.307C16.6861 111.749 16.9339 112.349 16.9339 112.975V118.67C17.0296 120.214 16.8815 121.765 16.4948 123.263C16.3073 123.981 16.0445 124.677 15.7108 125.339C15.4996 125.7 15.1966 125.998 14.8329 126.202C14.4692 126.407 14.0578 126.511 13.6409 126.503Z" fill="#3EB073"/>
<path d="M7.682 129.398C6.66889 129.727 5.61089 129.897 4.54583 129.901H1.40967L7.682 129.398Z" fill="#3EB073"/>
<path d="M4.70284 132.261H1.37849C0.754669 132.261 0.156407 132.012 -0.284702 131.57C-0.72581 131.127 -0.973633 130.527 -0.973633 129.901C-0.973633 129.275 -0.72581 128.675 -0.284702 128.233C0.156407 127.79 0.754669 127.542 1.37849 127.542H4.51468C5.32204 127.519 6.1231 127.392 6.89815 127.164C7.48151 126.991 8.10918 127.051 8.64937 127.331C9.18955 127.612 9.6002 128.092 9.79504 128.671C9.98989 129.249 9.95379 129.88 9.69431 130.433C9.43483 130.985 8.97216 131.414 8.40349 131.631C7.20837 132.026 5.96088 132.238 4.70284 132.261Z" fill="#3EB073"/>
<path d="M137.174 38.8539C133.34 38.8539 129.591 37.7128 126.403 35.575C123.215 33.4373 120.731 30.3989 119.265 26.8444C117.799 23.2898 117.417 19.3789 118.168 15.6066C118.918 11.8342 120.767 8.3699 123.481 5.65205C126.194 2.93419 129.651 1.08495 133.413 0.338306C137.174 -0.408338 141.072 -0.0188266 144.613 1.45757C148.154 2.93397 151.179 5.43088 153.305 8.63235C155.431 11.8338 156.562 15.596 156.556 19.4427C156.548 24.5938 154.502 29.531 150.868 33.1704C147.234 36.8098 142.309 38.8539 137.174 38.8539ZM137.174 3.14608C133.961 3.14608 130.821 4.10186 128.149 5.89255C125.477 7.68325 123.395 10.2284 122.166 13.2063C120.936 16.1841 120.614 19.4608 121.241 22.622C121.868 25.7833 123.415 28.687 125.687 30.9662C127.959 33.2453 130.854 34.7974 134.005 35.4262C137.156 36.055 140.423 35.7323 143.391 34.4988C146.36 33.2654 148.897 31.1766 150.682 28.4966C152.467 25.8167 153.42 22.6659 153.42 19.4427C153.42 17.3026 153 15.1835 152.183 13.2063C151.367 11.2291 150.17 9.43252 148.662 7.91924C147.153 6.40595 145.362 5.20556 143.391 4.38658C141.42 3.5676 139.308 3.14608 137.174 3.14608Z" fill="#3EB073"/>
<path d="M96.1533 129.146H80.9429C80.3191 129.146 79.7208 128.897 79.2797 128.455C78.8386 128.012 78.5908 127.412 78.5908 126.787C78.5908 126.161 78.8386 125.561 79.2797 125.118C79.7208 124.676 80.3191 124.427 80.9429 124.427H96.1533C96.7771 124.427 97.3754 124.676 97.8165 125.118C98.2576 125.561 98.5054 126.161 98.5054 126.787C98.5054 127.412 98.2576 128.012 97.8165 128.455C97.3754 128.897 96.7771 129.146 96.1533 129.146Z" fill="#3EB073"/>
<path d="M121.148 129.146H105.969C105.345 129.146 104.747 128.897 104.306 128.455C103.865 128.012 103.617 127.412 103.617 126.787C103.617 126.161 103.865 125.561 104.306 125.118C104.747 124.676 105.345 124.427 105.969 124.427H121.148C121.772 124.427 122.37 124.676 122.812 125.118C123.253 125.561 123.5 126.161 123.5 126.787C123.5 127.412 123.253 128.012 122.812 128.455C122.37 128.897 121.772 129.146 121.148 129.146Z" fill="#3EB073"/>
<path d="M146.175 129.146H130.996C130.372 129.146 129.774 128.897 129.333 128.455C128.892 128.012 128.644 127.412 128.644 126.787C128.644 126.161 128.892 125.561 129.333 125.118C129.774 124.676 130.372 124.427 130.996 124.427H146.175C146.799 124.427 147.397 124.676 147.838 125.118C148.28 125.561 148.527 126.161 148.527 126.787C148.527 127.412 148.28 128.012 147.838 128.455C147.397 128.897 146.799 129.146 146.175 129.146Z" fill="#3EB073"/>
<path d="M171.202 129.146H155.991C155.367 129.146 154.769 128.897 154.328 128.455C153.887 128.012 153.639 127.412 153.639 126.787C153.639 126.161 153.887 125.561 154.328 125.118C154.769 124.676 155.367 124.427 155.991 124.427H171.202C171.826 124.427 172.424 124.676 172.865 125.118C173.306 125.561 173.554 126.161 173.554 126.787C173.554 127.412 173.306 128.012 172.865 128.455C172.424 128.897 171.826 129.146 171.202 129.146Z" fill="#3EB073"/>
<path d="M196.228 129.146H181.018C180.394 129.146 179.796 128.897 179.354 128.455C178.913 128.012 178.666 127.412 178.666 126.787C178.666 126.161 178.913 125.561 179.354 125.118C179.796 124.676 180.394 124.427 181.018 124.427H196.228C196.852 124.427 197.45 124.676 197.891 125.118C198.332 125.561 198.58 126.161 198.58 126.787C198.58 127.412 198.332 128.012 197.891 128.455C197.45 128.897 196.852 129.146 196.228 129.146Z" fill="#3EB073"/>
<path d="M221.224 129.146H206.045C205.421 129.146 204.822 128.897 204.381 128.455C203.94 128.012 203.692 127.412 203.692 126.787C203.692 126.161 203.94 125.561 204.381 125.118C204.822 124.676 205.421 124.427 206.045 124.427H221.224C221.847 124.427 222.446 124.676 222.887 125.118C223.328 125.561 223.576 126.161 223.576 126.787C223.576 127.412 223.328 128.012 222.887 128.455C222.446 128.897 221.847 129.146 221.224 129.146Z" fill="#3EB073"/>
</g>
<defs>
<clipPath id="clip0_66_232">
<rect width="316" height="196" fill="white" transform="translate(-61)"/>
</clipPath>
</defs>
</svg>
