<svg width="110" height="33" viewBox="0 0 110 33" fill="none" xmlns="http://www.w3.org/2000/svg">
<g clip-path="url(#clip0_66_368)">
<path d="M104.03 33H95.7268C95.387 32.9955 95.0623 32.8582 94.822 32.6171C94.5816 32.3761 94.4446 32.0504 94.4402 31.7096V1.29042C94.4402 0.948184 94.5757 0.619957 94.817 0.377959C95.0583 0.13596 95.3856 1.48579e-05 95.7268 1.48579e-05H104.03C104.2 -0.00229974 104.368 0.0295 104.525 0.0935294C104.682 0.157559 104.825 0.252524 104.945 0.372813C105.065 0.493102 105.16 0.63626 105.223 0.793865C105.287 0.95147 105.319 1.12032 105.317 1.29042V31.7096C105.317 32.0518 105.181 32.3801 104.94 32.6221C104.698 32.8641 104.371 33 104.03 33ZM97.0821 30.3504H102.812V2.58083H97.0821V30.3504Z" fill="#FDCF2A"/>
<path d="M104.27 30.0235H104.03C103.69 30.019 103.365 29.8816 103.125 29.6406C102.885 29.3995 102.748 29.0739 102.743 28.7331V4.26694C102.748 3.92609 102.885 3.60045 103.125 3.35941C103.365 3.11837 103.69 2.98099 104.03 2.97653H104.27C105.788 2.98107 107.243 3.58799 108.317 4.6647C109.39 5.74142 109.995 7.20044 110 8.72314V24.208C110.007 24.9678 109.864 25.7215 109.579 26.4256C109.294 27.1298 108.873 27.7705 108.341 28.311C107.808 28.8514 107.175 29.281 106.476 29.5749C105.777 29.8688 105.028 30.0212 104.27 30.0235ZM105.316 5.74661V27.2534C105.933 27.0334 106.467 26.6277 106.844 26.0918C107.222 25.5559 107.426 24.916 107.427 24.2597V8.77478C107.438 8.11144 107.24 7.46149 106.861 6.91769C106.482 6.3739 105.941 5.96403 105.316 5.74661Z" fill="#FDCF2A"/>
<path d="M5.97008 30.0235H5.74705C4.99234 30.0235 4.24497 29.8744 3.54771 29.5847C2.85045 29.295 2.21695 28.8705 1.68328 28.3353C1.14962 27.8001 0.726285 27.1647 0.437469 26.4654C0.148654 25.7661 0 25.0166 0 24.2597V8.77478C0.00454102 7.2491 0.612017 5.78746 1.6893 4.71025C2.76659 3.63305 4.22581 3.02814 5.74705 3.02814H5.97008C6.30993 3.0326 6.63462 3.16999 6.87496 3.41102C7.1153 3.65206 7.25228 3.9777 7.25672 4.31855V28.7847C7.23931 29.1164 7.09661 29.4292 6.85763 29.6592C6.61865 29.8893 6.30133 30.0195 5.97008 30.0235ZM4.68342 5.7466C4.06684 5.96122 3.53225 6.36321 3.15406 6.89669C2.77588 7.43016 2.57289 8.06857 2.5733 8.72314V24.208C2.57437 24.8643 2.77768 25.5043 3.15542 26.0402C3.53316 26.5761 4.06687 26.9818 4.68342 27.2018V5.7466Z" fill="#FDCF2A"/>
<path d="M14.2732 30.3504C14.1208 30.3467 13.97 30.3177 13.8271 30.2643C13.6601 30.2073 13.5066 30.1165 13.3761 29.9974C13.2455 29.8784 13.1408 29.7337 13.0684 29.5723C12.996 29.4109 12.9575 29.2364 12.9552 29.0594C12.9529 28.8825 12.9869 28.707 13.0551 28.5438L21.9931 3.768C22.0711 3.50191 22.2384 3.27098 22.4665 3.11424C22.6947 2.9575 22.9698 2.88457 23.2454 2.90773C23.5149 2.91862 23.7742 3.01418 23.9866 3.1809C24.199 3.34762 24.3538 3.57705 24.4291 3.83681L31.7888 28.6298C31.8592 28.7973 31.8935 28.9778 31.8895 29.1595C31.8854 29.3413 31.8432 29.5201 31.7655 29.6843C31.6878 29.8485 31.5764 29.9943 31.4385 30.1124C31.3007 30.2304 31.1396 30.3179 30.9657 30.3691C30.7918 30.4203 30.6091 30.4341 30.4295 30.4096C30.2499 30.3851 30.0776 30.3228 29.9237 30.2268C29.7698 30.1308 29.6379 30.0033 29.5365 29.8526C29.4352 29.702 29.3667 29.5315 29.3356 29.3525L23.091 8.32743L15.474 29.4213C15.4002 29.6851 15.2435 29.9181 15.0271 30.0855C14.8108 30.2528 14.5464 30.3457 14.2732 30.3504Z" fill="#FDCF2A"/>
<path d="M30.5707 30.3504C30.3658 30.3474 30.1645 30.296 29.983 30.2003C29.8016 30.1047 29.6453 29.9675 29.5266 29.7999C29.408 29.6323 29.3304 29.439 29.3001 29.2357C29.2699 29.0324 29.2879 28.8248 29.3527 28.6298L38.2906 3.85403C38.3733 3.59429 38.5393 3.36917 38.7626 3.21363C38.9859 3.05809 39.2542 2.98082 39.5258 2.99376C39.7983 3.00108 40.0614 3.09498 40.2772 3.26196C40.493 3.42895 40.6505 3.66037 40.7267 3.92284L48.0863 28.6298C48.1818 28.9584 48.1434 29.3115 47.9793 29.6116C47.8152 29.9117 47.539 30.1341 47.2114 30.2299C46.8838 30.3257 46.5317 30.2872 46.2324 30.1226C45.9332 29.958 45.7115 29.681 45.6159 29.3525L39.3714 8.32743L31.7716 29.4213C31.6953 29.6838 31.538 29.9152 31.3222 30.0821C31.1063 30.2491 30.8432 30.3431 30.5707 30.3504Z" fill="#FDCF2A"/>
<path d="M46.8512 30.3504C46.7043 30.3468 46.5592 30.3177 46.4223 30.2643C46.2553 30.2073 46.1017 30.1165 45.9712 29.9974C45.8407 29.8784 45.736 29.7337 45.6636 29.5723C45.5912 29.4109 45.5527 29.2364 45.5504 29.0594C45.5481 28.8825 45.5822 28.707 45.6504 28.5438L54.5711 3.768C54.6546 3.50527 54.8232 3.27799 55.05 3.12217C55.2769 2.96634 55.5491 2.89087 55.8235 2.90773C56.096 2.91505 56.3591 3.00898 56.5749 3.17596C56.7907 3.34294 56.9482 3.57433 57.0244 3.83681L64.384 28.6298C64.4795 28.9584 64.4411 29.3115 64.277 29.6116C64.1129 29.9117 63.8366 30.1341 63.5091 30.2299C63.1815 30.3257 62.8293 30.2872 62.5301 30.1226C62.2309 29.958 62.0092 29.681 61.9136 29.3525L55.6691 8.32742L48.0693 29.4213C47.9921 29.6865 47.8322 29.9199 47.6129 30.0872C47.3937 30.2544 47.1266 30.3467 46.8512 30.3504Z" fill="#FDCF2A"/>
<path d="M63.1487 30.3504C63.0235 30.3678 62.8965 30.3678 62.7713 30.3504C62.6058 30.2913 62.4539 30.1992 62.3247 30.0797C62.1955 29.9602 62.0918 29.8158 62.0197 29.6551C61.9476 29.4944 61.9085 29.3207 61.905 29.1446C61.9015 28.9684 61.9336 28.7933 61.9993 28.6298L70.9372 3.85403C71.0181 3.58964 71.186 3.36058 71.4135 3.20431C71.6409 3.04804 71.9145 2.97382 72.1896 2.99376C72.4606 3.00616 72.7214 3.10198 72.9362 3.26821C73.1511 3.43445 73.3097 3.66302 73.3904 3.92284L80.6643 28.6298C80.7347 28.7973 80.769 28.9778 80.765 29.1595C80.761 29.3413 80.7188 29.5201 80.641 29.6843C80.5633 29.8485 80.4519 29.9943 80.314 30.1124C80.1762 30.2304 80.0151 30.3179 79.8412 30.3691C79.6673 30.4203 79.4846 30.4341 79.3051 30.4096C79.1255 30.385 78.9531 30.3228 78.7992 30.2268C78.6453 30.1308 78.5134 30.0033 78.412 29.8526C78.3107 29.702 78.2422 29.5315 78.2111 29.3525L71.9665 8.32742L64.3496 29.4213C64.2757 29.6851 64.119 29.9181 63.9027 30.0854C63.6863 30.2528 63.4219 30.3457 63.1487 30.3504Z" fill="#FDCF2A"/>
<path d="M79.4464 30.3504C79.2415 30.3474 79.0402 30.296 78.8588 30.2003C78.6774 30.1047 78.521 29.9675 78.4023 29.7999C78.2837 29.6323 78.2061 29.439 78.1759 29.2357C78.1456 29.0324 78.1637 28.8248 78.2284 28.6298L87.1663 3.85403C87.2523 3.59291 87.4215 3.3673 87.6477 3.2119C87.874 3.05649 88.1448 2.97987 88.4187 2.99376C88.6882 3.00464 88.9475 3.10018 89.1599 3.2669C89.3723 3.43362 89.5271 3.66308 89.6024 3.92284L96.962 28.6298C97.0576 28.9584 97.0191 29.3115 96.855 29.6116C96.6909 29.9117 96.4147 30.1341 96.0871 30.2299C95.7595 30.3257 95.4074 30.2872 95.1082 30.1226C94.809 29.958 94.5872 29.681 94.4916 29.3525L88.2471 8.32742L80.6473 29.4213C80.5711 29.6838 80.4137 29.9152 80.1979 30.0821C79.982 30.2491 79.7189 30.3431 79.4464 30.3504Z" fill="#FDCF2A"/>
<path d="M14.2733 33H5.97012C5.62888 33 5.3016 32.8641 5.06031 32.6221C4.81902 32.3801 4.68347 32.0518 4.68347 31.7096V1.29042C4.68116 1.12032 4.71281 0.95147 4.77666 0.793865C4.8405 0.63626 4.93519 0.493102 5.05513 0.372813C5.17507 0.252524 5.31786 0.157559 5.47501 0.0935294C5.63215 0.0295 5.80051 -0.00229974 5.97012 1.48579e-05H14.2733C14.6145 1.48579e-05 14.9418 0.13596 15.183 0.377959C15.4243 0.619957 15.5599 0.948184 15.5599 1.29042V31.7096C15.5555 32.0504 15.4185 32.3761 15.1782 32.6171C14.9378 32.8582 14.6132 32.9955 14.2733 33ZM7.25677 30.4192H13.0209V2.58083H7.29106L7.25677 30.4192Z" fill="#FDCF2A"/>
</g>
<defs>
<clipPath id="clip0_66_368">
<rect width="110" height="33" fill="white"/>
</clipPath>
</defs>
</svg>
