<svg width="1200" height="120" viewBox="0 0 1200 120" fill="none" xmlns="http://www.w3.org/2000/svg">
<path fill-rule="evenodd" clip-rule="evenodd" d="M111.229 1.7007C109.238 1.7007 107.625 3.3146 107.625 5.30545V114.303C107.625 116.294 109.238 117.908 111.229 117.908H188.223C190.214 117.908 191.828 116.294 191.828 114.303V92.3491C191.828 90.3582 190.214 88.7443 188.223 88.7443H142.045V73.5359H184.667C186.658 73.5359 188.272 71.922 188.272 69.9311V47.9769C188.272 45.9861 186.658 44.3722 184.667 44.3722H142.045V30.8644H188.223C190.214 30.8644 191.828 29.2505 191.828 27.2596V5.30545C191.828 3.3146 190.214 1.7007 188.223 1.7007H111.229Z" fill="#1E9053"/>
<path fill-rule="evenodd" clip-rule="evenodd" d="M267.38 0C254.86 0 243.889 2.4089 234.602 7.38454C225.34 12.3459 218.18 19.3868 213.199 28.4629L213.199 28.4629L213.192 28.4765C208.319 37.4466 205.952 47.9041 205.952 59.727C205.952 71.5514 208.32 82.0522 213.183 91.1159L213.199 91.1457C218.18 100.222 225.34 107.263 234.602 112.224C243.889 117.2 254.86 119.609 267.38 119.609C274.962 119.609 282.293 118.47 289.36 116.187L289.407 116.172C296.431 113.795 302.293 110.653 306.859 106.657C307.993 105.666 308.39 104.074 307.856 102.666L299.353 80.2481C298.954 79.1977 298.089 78.393 297.012 78.0721C295.935 77.7511 294.771 77.9505 293.862 78.6113C289.568 81.734 285.34 84.0303 281.179 85.5475C277.025 86.9594 272.791 87.662 268.462 87.662C259.554 87.662 253.46 85.1926 249.503 80.8229C245.447 76.2411 243.155 69.3904 243.155 59.727C243.155 50.1635 245.448 43.4267 249.491 38.9531L249.514 38.9277C253.476 34.4597 259.566 31.9466 268.462 31.9466C272.776 31.9466 276.997 32.6951 281.145 34.2033C281.168 34.2116 281.191 34.2196 281.214 34.2275C285.354 35.639 289.571 37.8764 293.862 40.9973C294.771 41.6582 295.935 41.8575 297.012 41.5366C298.089 41.2156 298.954 40.411 299.353 39.3605L307.856 16.9425C308.39 15.5345 307.993 13.9429 306.859 12.9512C302.284 8.94776 296.412 5.85683 289.384 3.58362C282.312 1.19285 274.971 0 267.38 0Z" fill="#1E9053"/>
<path fill-rule="evenodd" clip-rule="evenodd" d="M325.042 1.7007C323.051 1.7007 321.437 3.3146 321.437 5.30545V114.303C321.437 116.294 323.051 117.908 325.042 117.908H353.489C355.48 117.908 357.094 116.294 357.094 114.303V74.3089H394.875V114.303C394.875 116.294 396.489 117.908 398.48 117.908H426.773C428.764 117.908 430.378 116.294 430.378 114.303V5.30545C430.378 3.3146 428.764 1.7007 426.773 1.7007H398.48C396.489 1.7007 394.875 3.3146 394.875 5.30545V43.7538H357.094V5.30545C357.094 3.3146 355.48 1.7007 353.489 1.7007H325.042Z" fill="#1E9053"/>
<path fill-rule="evenodd" clip-rule="evenodd" d="M453.341 1.7007C451.35 1.7007 449.736 3.3146 449.736 5.30545V114.303C449.736 116.294 451.35 117.908 453.341 117.908H479.005C480.996 117.908 482.61 116.294 482.61 114.303V69.1436L500.467 100.028C501.111 101.143 502.301 101.829 503.588 101.829H519.048C520.337 101.829 521.527 101.142 522.171 100.026L540.335 68.5478V114.303C540.335 116.294 541.949 117.908 543.94 117.908H569.605C571.596 117.908 573.21 116.294 573.21 114.303V5.30545C573.21 3.3146 571.596 1.7007 569.605 1.7007H546.568C545.261 1.7007 544.056 2.40899 543.419 3.55152L511.782 60.358L480.145 3.55152C479.508 2.40899 478.303 1.7007 476.995 1.7007H453.341Z" fill="#1E9053"/>
<path fill-rule="evenodd" clip-rule="evenodd" d="M648.541 0C636.995 0 626.686 2.43197 617.724 7.41094C608.776 12.3824 601.796 19.4213 596.834 28.4629L596.834 28.4629L596.827 28.4765C591.954 37.4466 589.587 47.9041 589.587 59.727C589.587 71.4672 592.014 81.9259 596.989 90.9911C601.941 100.015 608.851 107.096 617.678 112.172L617.724 112.198C626.686 117.177 636.995 119.609 648.541 119.609C660.085 119.609 670.351 117.177 679.22 112.188L679.232 112.181C688.165 107.109 695.135 100.026 700.093 90.9911C705.068 81.9259 707.495 71.4672 707.495 59.727C707.495 47.8946 705.072 37.4286 700.088 28.4539C695.128 19.4194 688.153 12.3851 679.211 7.41555C670.344 2.43006 660.082 0 648.541 0ZM632.339 38.1694C636.101 33.467 641.342 31.0189 648.541 31.0189C655.74 31.0189 660.981 33.467 664.743 38.1694C668.594 42.9841 670.755 50.0155 670.755 59.727C670.755 69.4171 668.553 76.5055 664.593 81.4331L664.588 81.4392C660.817 86.1536 655.619 88.5897 648.541 88.5897C641.349 88.5897 636.11 86.146 632.349 81.4517C628.482 76.5223 626.326 69.4253 626.326 59.727C626.326 50.0155 628.487 42.9841 632.339 38.1694Z" fill="#1E9053"/>
<path fill-rule="evenodd" clip-rule="evenodd" d="M727.33 1.7007C725.339 1.7007 723.725 3.3146 723.725 5.30544V114.303C723.725 116.294 725.339 117.908 727.33 117.908H772.475C791.925 117.908 807.539 113.012 818.811 102.744L818.825 102.731C830.138 92.3143 835.603 77.8078 835.603 59.7271C835.603 41.6479 830.138 27.1826 818.811 16.8644C807.539 6.59655 791.925 1.7007 772.475 1.7007H727.33ZM759.382 87.6621V31.9466H770.62C780.825 31.9466 787.732 34.4027 792.06 38.6463C796.369 42.8701 798.864 49.6481 798.864 59.7271C798.864 69.7996 796.371 76.6513 792.035 80.9876C787.825 85.1976 780.946 87.6621 770.62 87.6621H759.382Z" fill="#1E9053"/>
<path fill-rule="evenodd" clip-rule="evenodd" d="M855.25 1.7007C853.26 1.7007 851.646 3.3146 851.646 5.30545V114.303C851.646 116.294 853.26 117.908 855.25 117.908H932.245C934.236 117.908 935.849 116.294 935.849 114.303V92.3491C935.849 90.3582 934.236 88.7443 932.245 88.7443H886.066V73.5359H928.689C930.68 73.5359 932.293 71.922 932.293 69.9311V47.9769C932.293 45.9861 930.68 44.3722 928.689 44.3722H886.066V30.8644H932.245C934.236 30.8644 935.849 29.2505 935.849 27.2596V5.30545C935.849 3.3146 934.236 1.7007 932.245 1.7007H855.25Z" fill="#1E9053"/>
<path fill-rule="evenodd" clip-rule="evenodd" d="M956.56 1.7007C954.569 1.7007 952.955 3.3146 952.955 5.30545V114.303C952.955 116.294 954.569 117.908 956.56 117.908H982.225C984.216 117.908 985.83 116.294 985.83 114.303V69.1436L1003.69 100.028C1004.33 101.143 1005.52 101.829 1006.81 101.829H1022.27C1023.56 101.829 1024.75 101.142 1025.39 100.026L1043.55 68.5478V114.303C1043.55 116.294 1045.17 117.908 1047.16 117.908H1072.82C1074.82 117.908 1076.43 116.294 1076.43 114.303V5.30545C1076.43 3.3146 1074.82 1.7007 1072.82 1.7007H1049.79C1048.48 1.7007 1047.28 2.40899 1046.64 3.55152L1015 60.358L983.364 3.55152C982.728 2.40899 981.523 1.7007 980.215 1.7007H956.56Z" fill="#1E9053"/>
<path fill-rule="evenodd" clip-rule="evenodd" d="M1083.24 1.7007C1081.9 1.7007 1080.67 2.44352 1080.05 3.6295C1079.42 4.81548 1079.51 6.24901 1080.27 7.3518L1121.53 67.1883V114.303C1121.53 116.294 1123.15 117.908 1125.14 117.908H1153.59C1155.58 117.908 1157.19 116.294 1157.19 114.303V67.1883L1198.45 7.3518C1199.21 6.24901 1199.3 4.81548 1198.68 3.6295C1198.05 2.44352 1196.82 1.7007 1195.48 1.7007H1163.79C1162.59 1.7007 1161.47 2.29419 1160.8 3.28488L1139.83 34.2794L1118.85 3.28488C1118.18 2.29419 1117.06 1.7007 1115.86 1.7007H1083.24Z" fill="#1E9053"/>
<path fill-rule="evenodd" clip-rule="evenodd" d="M-13.3953 0.393066C-15.3861 0.393066 -17 2.00697 -17 3.99781V27.1888C-17 29.1797 -15.3861 30.7936 -13.3953 30.7936H17.6319V112.996C17.6319 114.986 19.2458 116.6 21.2367 116.6H49.6843C51.6752 116.6 53.2891 114.986 53.2891 112.996V30.7936H84.3162C86.3071 30.7936 87.921 29.1797 87.921 27.1888V3.99781C87.921 2.00697 86.3071 0.393066 84.3162 0.393066H-13.3953Z" fill="#1E9053"/>
</svg>
