<svg width="21" height="24" viewBox="0 0 21 24" fill="none" xmlns="http://www.w3.org/2000/svg">
<path fill-rule="evenodd" clip-rule="evenodd" d="M0.910156 9.81528C0.910156 4.39121 5.31892 0 10.7502 0C16.1814 0 20.5902 4.39121 20.5902 9.81528C20.5902 12.4402 18.9697 14.9522 16.2527 17.3476C16.0996 17.5839 15.9822 17.9442 15.9822 18.5092C15.9822 18.519 15.982 18.5287 15.9818 18.5385L15.9737 18.8704C15.9733 18.888 15.9724 18.9057 15.9712 18.9233L15.9538 19.1771C15.9526 19.1937 15.9512 19.2104 15.9493 19.227L15.9189 19.5014C15.9168 19.5204 15.9142 19.5393 15.9112 19.5581L15.865 19.8485C15.8633 19.8587 15.8616 19.8688 15.8597 19.8789C15.7065 20.7033 15.3537 21.7454 14.5262 22.5894C13.6683 23.4643 12.4246 24 10.7502 24C9.07572 24 7.83198 23.4643 6.97417 22.5894C6.14667 21.7454 5.79384 20.7033 5.64061 19.8789C5.63873 19.8688 5.63698 19.8587 5.63536 19.8485L5.58907 19.5581C5.58749 19.5482 5.58603 19.5383 5.5847 19.5283C5.57713 19.4717 5.57037 19.416 5.56434 19.3613C5.56342 19.353 5.56258 19.3446 5.56183 19.3362L5.53827 19.0715C5.53688 19.0559 5.5358 19.0403 5.53503 19.0247L5.523 18.7829C5.52245 18.7718 5.52205 18.7606 5.52181 18.7495L5.51179 18.2899C5.48529 17.8477 5.38002 17.5514 5.24689 17.3465C2.53214 14.9401 0.910156 12.428 0.910156 9.81528ZM10.7502 2.4C6.63791 2.4 3.31016 5.72317 3.31016 9.81528C3.31016 11.4185 4.33456 13.3561 6.9331 15.6336C6.99164 15.6849 7.04505 15.7417 7.09257 15.8034C7.61482 16.4809 7.86137 17.2997 7.90926 18.1773C7.90998 18.1903 7.91048 18.2034 7.91076 18.2165L7.92087 18.6805L7.9309 18.882L7.9512 19.1101C7.9544 19.1385 7.95788 19.1672 7.96166 19.1961L8.00286 19.4546C8.10804 20.0101 8.31859 20.5325 8.68789 20.9091C9.03004 21.2581 9.62243 21.6 10.7502 21.6C11.8779 21.6 12.4703 21.2581 12.8124 20.9091C13.1817 20.5325 13.3923 20.0101 13.4975 19.4546L13.5367 19.2086L13.5612 18.9876L13.5751 18.7852L13.5822 18.4938C13.5846 17.497 13.8222 16.563 14.4077 15.8034C14.456 15.7408 14.5102 15.6832 14.5698 15.6313C17.1649 13.3698 18.1902 11.4323 18.1902 9.81528C18.1902 5.72317 14.8624 2.4 10.7502 2.4Z" fill="white"/>
<path fill-rule="evenodd" clip-rule="evenodd" d="M5.66669 17.5852C5.89956 16.9647 6.59134 16.6505 7.21182 16.8834C8.31547 17.2976 9.49196 17.5077 10.75 17.5077C12.0079 17.5077 13.1845 17.2976 14.2883 16.8833C14.9088 16.6505 15.6006 16.9647 15.8334 17.5852C16.0663 18.2057 15.7521 18.8975 15.1316 19.1303C13.7451 19.6506 12.2817 19.9077 10.75 19.9077C9.21822 19.9077 7.75485 19.6506 6.36852 19.1303C5.74803 18.8975 5.43382 18.2057 5.66669 17.5852Z" fill="white"/>
</svg>
