<svg width="17" height="22" viewBox="0 0 17 22" fill="none" xmlns="http://www.w3.org/2000/svg">
<path d="M4.24311 21.8619C4.44044 21.978 4.67161 22.0229 4.89802 21.989C5.12443 21.9552 5.33238 21.8446 5.48711 21.6759L16.4871 9.67594C16.6183 9.53289 16.7051 9.35474 16.7368 9.16322C16.7685 8.9717 16.7438 8.7751 16.6656 8.5974C16.5875 8.4197 16.4593 8.26859 16.2967 8.16249C16.1342 8.0564 15.9442 7.99992 15.7501 7.99994H9.88311L10.7421 1.12394C10.7692 0.904172 10.7225 0.681643 10.6094 0.491254C10.4964 0.300865 10.3233 0.153382 10.1174 0.0719363C9.91152 -0.00950983 9.68441 -0.0203135 9.4717 0.0412198C9.259 0.102753 9.07273 0.233143 8.94211 0.411941L0.942116 11.4119C0.833706 11.5611 0.768634 11.7373 0.754092 11.9211C0.73955 12.1049 0.776104 12.2891 0.859715 12.4534C0.943325 12.6177 1.07074 12.7558 1.22787 12.8522C1.38501 12.9487 1.56574 12.9998 1.75012 12.9999H6.36211L3.80212 20.6839C3.72968 20.9011 3.73395 21.1366 3.81421 21.351C3.89447 21.5654 4.04587 21.7457 4.24311 21.8619ZM3.71412 10.9999L8.27611 4.72694L7.75811 8.87594C7.74053 9.01661 7.75307 9.15941 7.79488 9.29487C7.83669 9.43033 7.90683 9.55536 8.00064 9.66165C8.09444 9.76794 8.20978 9.85307 8.33899 9.91139C8.46821 9.96972 8.60835 9.9999 8.75011 9.99994H13.4771L7.18211 16.8669L8.69811 12.3159C8.74816 12.1657 8.7618 12.0057 8.73792 11.8491C8.71404 11.6926 8.65331 11.5439 8.56075 11.4154C8.46818 11.2869 8.34642 11.1823 8.20549 11.11C8.06455 11.0378 7.90848 11.0001 7.75011 10.9999H3.71412Z" fill="white"/>
</svg>