<svg width="151" height="138" viewBox="0 0 151 138" fill="none" xmlns="http://www.w3.org/2000/svg">
<g clip-path="url(#clip0_106_466)">
<path d="M74.8559 17.1131L225.295 17.1131C225.747 17.1131 226.181 17.2934 226.501 17.6143C226.82 17.9352 227 18.3705 227 18.8244C227 19.2783 226.82 19.7136 226.501 20.0345C226.181 20.3554 225.747 20.5357 225.295 20.5357L73.7193 20.5357C73.5379 20.5187 73.3552 20.5187 73.1738 20.5357L72.6055 20.5357C71.2373 20.7812 69.9363 21.3148 68.7883 22.1013C67.6403 22.8879 66.6713 23.9096 65.9451 25.0992C65.1927 26.3057 64.7046 27.6591 64.513 29.0694C64.4061 30.4433 64.3681 31.8217 64.3993 33.1994L64.3993 56.5645C64.5073 62.8659 62.1699 68.9626 57.8811 73.5656C53.5924 78.1686 47.6884 80.9171 41.4174 81.2301L37.894 81.2301L23.3002 81.2301C21.1001 81.4003 19.0235 82.3177 17.4126 83.8313C15.8826 85.2087 14.8113 87.0248 14.3438 89.0337C14.2439 89.4924 14.1756 89.9574 14.1392 90.4255L14.1392 90.9732C14.1392 91.3383 14.1392 91.7034 14.1392 92.2738L14.1392 125.359C14.1392 125.813 13.9596 126.248 13.6399 126.569C13.3202 126.89 12.8865 127.07 12.4344 127.07C11.9822 127.07 11.5485 126.89 11.2288 126.569C10.9091 126.248 10.7295 125.813 10.7295 125.359L10.7295 92.3422C10.7295 91.7034 10.7295 91.247 10.7295 90.8134L10.7295 90.3571C10.7842 89.6806 10.8905 89.0093 11.0477 88.3492C11.6918 85.56 13.2009 83.0478 15.3576 81.174C17.5144 79.3002 20.2078 78.1615 23.0501 77.9216L25.687 77.9216L41.2583 77.9216C43.8592 77.7993 46.413 77.1798 48.7825 76.0962C53.7192 73.8497 57.5859 69.7556 59.5575 64.6875C60.5396 62.134 61.0256 59.4155 60.9895 56.6785L60.9895 33.4732C60.9413 31.9501 60.9945 30.4256 61.1486 28.9097C61.5738 26.0961 62.8618 23.4855 64.8337 21.4408C66.8055 19.3961 69.3631 18.0189 72.1508 17.5009L72.6055 17.5009C72.9738 17.4381 73.3459 17.4 73.7193 17.3869L74.8559 17.3869L74.8559 17.1131Z" fill="#3B69B1"/>
<path d="M74.9014 6.41174L225.295 6.41175C225.747 6.41175 226.181 6.59203 226.501 6.91297C226.82 7.2339 227 7.66919 227 8.12305C227 8.57693 226.82 9.01221 226.501 9.33315C226.181 9.65408 225.747 9.83437 225.295 9.83437L75.0833 9.83435C74.5832 9.83435 73.7876 9.83435 73.1056 9.83435C72.5553 9.83965 72.007 9.90078 71.4689 10.0169L70.787 10.0169C66.4786 10.8012 62.5283 12.9347 59.5023 16.1115C56.4763 19.2882 54.5302 23.345 53.9427 27.7004C53.7502 29.4884 53.6819 31.2878 53.7381 33.0854L53.7381 56.5645C53.7665 58.3874 53.4502 60.1992 52.8061 61.9038C51.5217 65.2161 48.9903 67.8881 45.7592 69.3423C44.2201 70.0461 42.5613 70.4489 40.8719 70.5288L37.894 70.5288L22.3909 70.5288C18.0356 70.9087 13.9103 72.6563 10.6008 75.5235C7.29143 78.3908 4.96618 82.2318 3.95536 86.501C3.73304 87.4698 3.58112 88.4536 3.50077 89.4445C3.50077 90.38 3.3871 91.4296 3.50077 92.0685L3.50076 125.154C3.50076 125.608 3.32115 126.043 3.00142 126.364C2.68169 126.685 2.24803 126.865 1.79587 126.865C1.3437 126.865 0.910049 126.685 0.590332 126.364C0.270599 126.043 0.0909883 125.608 0.0909883 125.154L0.0909912 92.3423C0.0909912 91.6578 0.0909913 90.5169 0.0909914 89.3988C0.192356 88.239 0.374622 87.0877 0.636524 85.9534C1.79499 80.9516 4.50222 76.4468 8.36971 73.0853C12.2372 69.7239 17.0661 67.6787 22.1636 67.2431L25.687 67.2431L40.69 67.2431C41.9623 67.1993 43.2136 66.9046 44.3725 66.376C46.7706 65.2664 48.651 63.2727 49.6236 60.8086C50.1262 59.4916 50.3657 58.0883 50.3283 56.6786L50.3283 33.4276C50.2706 31.4776 50.3465 29.5259 50.5556 27.5863C51.2419 22.4905 53.5225 17.7449 57.0686 14.0337C60.6147 10.3226 65.2432 7.83746 70.2869 6.93656L70.9234 6.82244C71.5711 6.72018 72.2235 6.65164 72.8783 6.61708L74.9014 6.41174Z" fill="#3B69B1"/>
<path d="M24.6187 37.4206C24.6187 38.2618 24.2858 39.0685 23.6932 39.6633C23.1007 40.2581 22.297 40.5923 21.459 40.5923C20.621 40.5923 19.8173 40.2581 19.2247 39.6633C18.6321 39.0685 18.2992 38.2618 18.2992 37.4206C18.3052 36.5834 18.6408 35.7826 19.2327 35.1927C19.8246 34.6028 20.6249 34.2718 21.459 34.2718C21.8728 34.2688 22.2832 34.348 22.6664 34.5049C23.0496 34.6618 23.3981 34.8933 23.6918 35.186C23.9856 35.4786 24.2187 35.8268 24.3777 36.2103C24.5368 36.5939 24.6187 37.0052 24.6187 37.4206Z" fill="#3B69B1"/>
<path d="M24.6187 26.0119C24.6187 26.8531 24.2858 27.6598 23.6932 28.2546C23.1007 28.8494 22.297 29.1836 21.459 29.1836C20.621 29.1836 19.8173 28.8494 19.2247 28.2546C18.6321 27.6598 18.2992 26.8531 18.2992 26.0119C18.2992 25.1708 18.6321 24.364 19.2247 23.7693C19.8173 23.1745 20.621 22.8403 21.459 22.8403C22.297 22.8403 23.1007 23.1745 23.6932 23.7693C24.2858 24.364 24.6187 25.1708 24.6187 26.0119Z" fill="#3B69B1"/>
<path d="M24.6187 14.6032C24.6187 15.0186 24.5368 15.4299 24.3777 15.8135C24.2187 16.197 23.9856 16.5452 23.6918 16.8378C23.3981 17.1305 23.0496 17.362 22.6664 17.5189C22.2832 17.6758 21.8728 17.755 21.459 17.752C20.6249 17.752 19.8246 17.421 19.2327 16.8311C18.6408 16.2412 18.3052 15.4404 18.2992 14.6032C18.2992 13.762 18.6321 12.9553 19.2247 12.3605C19.8173 11.7657 20.621 11.4316 21.459 11.4316C22.297 11.4316 23.1007 11.7657 23.6932 12.3605C24.2858 12.9553 24.6187 13.762 24.6187 14.6032Z" fill="#3B69B1"/>
<path d="M24.6187 3.1716C24.6187 4.01277 24.2858 4.81949 23.6932 5.41428C23.1007 6.00908 22.297 6.34326 21.459 6.34326C20.621 6.34326 19.8173 6.00908 19.2247 5.41428C18.6321 4.81949 18.2992 4.01277 18.2992 3.1716C18.3052 2.33439 18.6408 1.53355 19.2327 0.943681C19.8246 0.353812 20.6249 0.0228278 21.459 0.0228498C21.8728 0.0198395 22.2832 0.0990184 22.6664 0.255913C23.0496 0.412807 23.3981 0.644303 23.6918 0.936997C23.9856 1.22969 24.2187 1.57778 24.3777 1.9613C24.5368 2.34483 24.6187 2.75617 24.6187 3.1716Z" fill="#3B69B1"/>
<path d="M47.8279 119.86L62.9445 119.86C63.3967 119.86 63.8303 120.04 64.1501 120.361C64.4698 120.682 64.6494 121.118 64.6494 121.571C64.6494 122.025 64.4698 122.461 64.1501 122.781C63.8303 123.102 63.3967 123.283 62.9445 123.283L49.5328 123.283L49.5328 136.289C49.5328 136.743 49.3532 137.178 49.0334 137.499C48.7137 137.82 48.28 138 47.8279 138C47.3757 138 46.9421 137.82 46.6223 137.499C46.3026 137.178 46.123 136.743 46.123 136.289L46.123 121.571C46.123 121.118 46.3026 120.682 46.6223 120.361C46.9421 120.04 47.3757 119.86 47.8279 119.86Z" fill="#3B69B1"/>
<path d="M47.8278 105.143C48.2782 105.149 48.7084 105.331 49.0269 105.651C49.3453 105.97 49.5268 106.402 49.5327 106.854L49.5327 121.571C49.5327 122.025 49.3531 122.461 49.0334 122.781C48.7136 123.102 48.28 123.283 47.8278 123.283L32.7112 123.283C32.259 123.283 31.8254 123.102 31.5056 122.781C31.1859 122.461 31.0063 122.025 31.0063 121.571C31.0063 121.118 31.1859 120.682 31.5056 120.361C31.8254 120.04 32.259 119.86 32.7112 119.86L46.1229 119.86L46.1229 106.945C46.1106 106.713 46.1455 106.481 46.2256 106.262C46.3057 106.044 46.4294 105.845 46.589 105.676C46.7485 105.507 46.9407 105.373 47.1537 105.281C47.3667 105.19 47.5961 105.143 47.8278 105.143Z" fill="#3B69B1"/>
<path d="M140.256 44.6995L149.212 44.6995C149.664 44.6995 150.098 44.8797 150.417 45.2007C150.737 45.5216 150.917 45.9569 150.917 46.4108C150.917 46.8646 150.737 47.2999 150.417 47.6208C150.098 47.9418 149.664 48.1221 149.212 48.1221L140.256 48.1221C139.803 48.1221 139.37 47.9418 139.05 47.6208C138.73 47.2999 138.551 46.8646 138.551 46.4108C138.551 45.9569 138.73 45.5216 139.05 45.2007C139.37 44.8797 139.803 44.6994 140.256 44.6995Z" fill="#3B69B1"/>
<path d="M125.525 44.6995L134.481 44.6995C134.934 44.6995 135.367 44.8797 135.687 45.2007C136.007 45.5216 136.186 45.9569 136.186 46.4108C136.186 46.8646 136.007 47.2999 135.687 47.6208C135.367 47.9418 134.934 48.1221 134.481 48.1221L125.525 48.1221C125.073 48.1221 124.639 47.9418 124.32 47.6208C124 47.2999 123.82 46.8646 123.82 46.4108C123.82 45.9569 124 45.5216 124.32 45.2007C124.639 44.8797 125.073 44.6994 125.525 44.6995Z" fill="#3B69B1"/>
<path d="M110.772 44.6995L119.728 44.6995C120.181 44.6995 120.614 44.8797 120.934 45.2007C121.254 45.5216 121.433 45.9569 121.433 46.4108C121.433 46.8646 121.254 47.2999 120.934 47.6208C120.614 47.9418 120.181 48.1221 119.728 48.1221L110.772 48.1221C110.32 48.1221 109.886 47.9418 109.567 47.6208C109.247 47.2999 109.067 46.8646 109.067 46.4108C109.067 45.9569 109.247 45.5216 109.567 45.2007C109.886 44.8797 110.32 44.6994 110.772 44.6995Z" fill="#3B69B1"/>
</g>
<defs>
<clipPath id="clip0_106_466">
<rect width="227" height="138" fill="white" transform="translate(227 138) rotate(-180)"/>
</clipPath>
</defs>
</svg>
