<svg width="158" height="196" viewBox="0 0 158 196" fill="none" xmlns="http://www.w3.org/2000/svg">
<g clip-path="url(#clip0_106_444)">
<path d="M63.9464 64.4314C59.2162 64.4327 54.659 62.6467 51.1822 59.4292C47.7062 62.6484 43.1489 64.436 38.418 64.436C33.6872 64.436 29.1299 62.6484 25.6539 59.4292C23.6427 61.2996 21.2483 62.7065 18.6383 63.5513C16.0283 64.396 13.2658 64.6583 10.5441 64.3196C7.82248 63.981 5.20752 63.0496 2.88235 61.5907C0.55718 60.1319 -1.42199 58.1808 -2.91661 55.8741C-3.14522 55.5224 -3.22729 55.0948 -3.1452 54.6831C-3.06312 54.2713 -2.82342 53.9083 -2.47754 53.6719C-2.12804 53.4472 -1.70397 53.3707 -1.29832 53.4591C-0.892678 53.5476 -0.538551 53.7938 -0.313582 54.1438C0.99437 56.1695 2.74941 57.8661 4.81575 59.1023C6.88209 60.3385 9.2043 61.0811 11.6026 61.2728C14.0009 61.4644 16.411 61.0998 18.6463 60.2073C20.8817 59.3148 22.8823 57.9183 24.4934 56.1258C24.6426 55.9672 24.8225 55.8408 25.022 55.7542C25.2215 55.6677 25.4365 55.6228 25.6539 55.6224C25.8709 55.6246 26.0854 55.6703 26.2846 55.7567C26.4839 55.8432 26.6639 55.9686 26.8142 56.1258C28.2839 57.7479 30.0754 59.0439 32.0737 59.9308C34.0719 60.8177 36.2329 61.2758 38.418 61.2758C40.6031 61.2758 42.7641 60.8177 44.7624 59.9308C46.7607 59.0439 48.5521 57.7479 50.0218 56.1258C50.3322 55.8222 50.7487 55.6522 51.1822 55.6522C51.6158 55.6522 52.0322 55.8222 52.3426 56.1258C53.8123 57.7479 55.6038 59.0439 57.6021 59.9308C59.6003 60.8177 61.7613 61.2758 63.9464 61.2758C66.1315 61.2758 68.2925 60.8177 70.2908 59.9308C72.2891 59.0439 74.0805 57.7479 75.5502 56.1258C75.8486 55.8356 76.2479 55.6733 76.6636 55.6733C77.0792 55.6733 77.4785 55.8356 77.7769 56.1258C77.9239 56.272 78.0406 56.446 78.1202 56.6377C78.1998 56.8294 78.2408 57.035 78.2408 57.2427C78.2408 57.4503 78.1998 57.6559 78.1202 57.8476C78.0406 58.0393 77.9239 58.2133 77.7769 58.3595C76.0144 60.2746 73.8756 61.8028 71.4953 62.8479C69.115 63.8929 66.5447 64.432 63.9464 64.4314Z" fill="#3EB073"/>
<path d="M-117.888 196C-118.512 196 -119.11 195.751 -119.551 195.309C-119.993 194.866 -120.24 194.266 -120.24 193.64V165.924C-120.256 165.819 -120.256 165.713 -120.24 165.609C-120.254 165.505 -120.254 165.399 -120.24 165.294C-120.122 164.437 -119.765 163.631 -119.21 162.969C-118.655 162.307 -117.925 161.815 -117.104 161.551C-116.698 161.377 -116.26 161.291 -115.818 161.299C-115.443 161.269 -115.065 161.269 -114.689 161.299H-63.0053C-62.4522 161.344 -61.8963 161.344 -61.3432 161.299C-58.3641 161.095 -55.5173 159.987 -53.1813 158.121C-50.8453 156.256 -49.1307 153.721 -48.2654 150.854C-47.9469 149.833 -47.7573 148.776 -47.7008 147.708C-47.7008 147.299 -47.7008 146.607 -47.7008 146.324V103.726C-47.7239 103.496 -47.7239 103.264 -47.7008 103.034C-47.7163 102.929 -47.7163 102.823 -47.7008 102.719C-47.7155 102.657 -47.7155 102.592 -47.7008 102.53C-47.6359 102.221 -47.5521 101.917 -47.4499 101.618C-47.1614 100.957 -46.7306 100.369 -46.1883 99.8961C-45.646 99.4229 -45.0057 99.0761 -44.3138 98.8809C-43.9496 98.8301 -43.5803 98.8301 -43.2162 98.8809H155.46C156.084 98.8809 156.682 99.1295 157.123 99.572C157.564 100.014 157.812 100.615 157.812 101.24C157.812 101.866 157.564 102.466 157.123 102.909C156.682 103.351 156.084 103.6 155.46 103.6H-42.9339C-42.921 103.673 -42.921 103.747 -42.9339 103.82V146.386C-42.9339 146.67 -42.9339 147.551 -42.9339 148.148C-43.0633 149.49 -43.3153 150.817 -43.6866 152.112C-44.4376 154.653 -45.6986 157.013 -47.3921 159.048C-49.0855 161.082 -51.1757 162.747 -53.5341 163.942C-55.868 165.093 -58.4034 165.777 -60.9982 165.955C-62.0331 165.955 -62.5349 165.955 -63.0053 165.955H-115.473V193.577C-115.465 193.898 -115.521 194.217 -115.64 194.515C-115.758 194.813 -115.935 195.083 -116.161 195.31C-116.387 195.536 -116.657 195.715 -116.954 195.833C-117.251 195.952 -117.569 196.009 -117.888 196Z" fill="#3EB073"/>
<path d="M-132.628 196C-133.252 196 -133.85 195.751 -134.292 195.309C-134.733 194.866 -134.98 194.266 -134.98 193.64V165.326C-134.98 164.665 -134.98 164.004 -134.98 163.344C-134.525 159.96 -133.183 156.757 -131.092 154.063C-128.873 151.17 -125.867 148.985 -122.436 147.771C-120.658 147.092 -118.785 146.699 -116.885 146.607H-62.5664C-62.553 146.523 -62.553 146.438 -62.5664 146.355V103.726C-62.5664 103.537 -62.5664 102.593 -62.5664 101.933C-62.5485 101.373 -62.4856 100.815 -62.3783 100.265V99.8562C-62.1166 98.4152 -61.6849 97.0106 -61.0924 95.6719C-59.9478 93.0205 -58.2277 90.659 -56.0574 88.7594C-53.8872 86.8599 -51.3215 85.4703 -48.5478 84.6921C-47.1572 84.2979 -45.7261 84.0657 -44.2826 84H155.272C155.895 84 156.494 84.2486 156.935 84.6911C157.376 85.1336 157.624 85.7338 157.624 86.3596C157.624 86.9853 157.376 87.5855 156.935 88.028C156.494 88.4705 155.895 88.7191 155.272 88.7191H-43.7494C-44.8121 88.7738 -45.8646 88.9533 -46.8856 89.2539C-48.9657 89.8504 -50.8882 90.9018 -52.515 92.3324C-54.1417 93.763 -55.4324 95.5374 -56.2941 97.5281C-56.7283 98.5366 -57.0441 99.5924 -57.235 100.674V101.052C-57.235 101.461 -57.235 101.838 -57.235 102.216C-57.235 102.593 -57.235 103.443 -57.235 103.663V147.016C-57.269 147.281 -57.3214 147.544 -57.3918 147.802C-57.5531 148.443 -57.8531 149.04 -58.2705 149.551C-58.6878 150.062 -59.2123 150.475 -59.8066 150.76C-60.3503 151.044 -60.9499 151.206 -61.5628 151.231C-62.0955 151.264 -62.6297 151.264 -63.1623 151.231H-116.446C-117.884 151.3 -119.303 151.597 -120.648 152.112C-123.151 153.041 -125.352 154.641 -127.011 156.738C-128.67 158.835 -129.723 161.348 -130.057 164.004C-130.085 164.497 -130.085 164.991 -130.057 165.483V193.609C-130.046 193.942 -130.106 194.274 -130.234 194.582C-130.362 194.89 -130.555 195.166 -130.799 195.393C-131.042 195.62 -131.332 195.791 -131.648 195.896C-131.963 196.001 -132.298 196.036 -132.628 196ZM-57.674 146.701C-57.674 146.701 -57.674 146.984 -57.674 147.047C-57.6599 146.932 -57.6599 146.816 -57.674 146.701Z" fill="#3EB073"/>
<path d="M40.1744 38.8539C36.3398 38.8539 32.5914 37.7128 29.4034 35.575C26.2155 33.4372 23.7313 30.3989 22.2653 26.8443C20.7993 23.2898 20.4173 19.3789 21.1677 15.6065C21.9181 11.8342 23.7671 8.36987 26.4808 5.65202C29.1945 2.93416 32.6509 1.08492 36.4126 0.338275C40.1743 -0.408369 44.0722 -0.0188572 47.6132 1.45754C51.1542 2.93394 54.179 5.43085 56.3048 8.63232C58.4307 11.8338 59.5622 15.5959 59.556 19.4427C59.5476 24.5938 57.502 29.531 53.8682 33.1704C50.2343 36.8098 45.3093 38.8539 40.1744 38.8539ZM40.1744 3.14605C36.9614 3.14605 33.8205 4.10183 31.149 5.89252C28.4775 7.68322 26.3953 10.2284 25.1657 13.2062C23.9361 16.184 23.6144 19.4608 24.2413 22.622C24.8681 25.7832 26.4153 28.687 28.6872 30.9661C30.9592 33.2453 33.8539 34.7974 37.0051 35.4262C40.1564 36.055 43.4228 35.7322 46.3912 34.4988C49.3597 33.2653 51.8969 31.1766 53.682 28.4966C55.467 25.8166 56.4198 22.6658 56.4198 19.4427C56.4198 17.3026 55.9996 15.1834 55.1832 13.2062C54.3668 11.229 53.1701 9.43249 51.6616 7.9192C50.1531 6.40592 48.3622 5.20553 46.3912 4.38655C44.4203 3.56757 42.3078 3.14605 40.1744 3.14605Z" fill="#3EB073"/>
<path d="M-0.846684 129.146H-16.0571C-16.6809 129.146 -17.2792 128.898 -17.7203 128.455C-18.1614 128.013 -18.4092 127.412 -18.4092 126.787C-18.4092 126.161 -18.1614 125.561 -17.7203 125.118C-17.2792 124.676 -16.6809 124.427 -16.0571 124.427H-0.846684C-0.222862 124.427 0.375423 124.676 0.816532 125.118C1.25764 125.561 1.50544 126.161 1.50544 126.787C1.50544 127.412 1.25764 128.013 0.816532 128.455C0.375423 128.898 -0.222862 129.146 -0.846684 129.146Z" fill="#3EB073"/>
<path d="M24.1483 129.146H8.96931C8.34549 129.146 7.7472 128.898 7.30609 128.455C6.86499 128.013 6.61719 127.412 6.61719 126.787C6.61719 126.161 6.86499 125.561 7.30609 125.118C7.7472 124.676 8.34549 124.427 8.96931 124.427H24.1483C24.7722 124.427 25.3704 124.676 25.8116 125.118C26.2527 125.561 26.5005 126.161 26.5005 126.787C26.5005 127.412 26.2527 128.013 25.8116 128.455C25.3704 128.898 24.7722 129.146 24.1483 129.146Z" fill="#3EB073"/>
<path d="M49.1752 129.146H33.9962C33.3723 129.146 32.7741 128.898 32.333 128.455C31.8919 128.013 31.644 127.412 31.644 126.787C31.644 126.161 31.8919 125.561 32.333 125.118C32.7741 124.676 33.3723 124.427 33.9962 124.427H49.1752C49.7991 124.427 50.3973 124.676 50.8384 125.118C51.2795 125.561 51.5274 126.161 51.5274 126.787C51.5274 127.412 51.2795 128.013 50.8384 128.455C50.3973 128.898 49.7991 129.146 49.1752 129.146Z" fill="#3EB073"/>
<path d="M74.2017 129.146H58.9913C58.3675 129.146 57.7692 128.898 57.3281 128.455C56.887 128.013 56.6392 127.412 56.6392 126.787C56.6392 126.161 56.887 125.561 57.3281 125.118C57.7692 124.676 58.3675 124.427 58.9913 124.427H74.2017C74.8255 124.427 75.4238 124.676 75.8649 125.118C76.306 125.561 76.5538 126.161 76.5538 126.787C76.5538 127.412 76.306 128.013 75.8649 128.455C75.4238 128.898 74.8255 129.146 74.2017 129.146Z" fill="#3EB073"/>
<path d="M99.228 129.146H84.0177C83.3938 129.146 82.7955 128.898 82.3544 128.455C81.9133 128.013 81.6655 127.412 81.6655 126.787C81.6655 126.161 81.9133 125.561 82.3544 125.118C82.7955 124.676 83.3938 124.427 84.0177 124.427H99.228C99.8518 124.427 100.45 124.676 100.891 125.118C101.332 125.561 101.58 126.161 101.58 126.787C101.58 127.412 101.332 128.013 100.891 128.455C100.45 128.898 99.8518 129.146 99.228 129.146Z" fill="#3EB073"/>
<path d="M124.224 129.146H109.045C108.421 129.146 107.822 128.898 107.381 128.455C106.94 128.013 106.692 127.412 106.692 126.787C106.692 126.161 106.94 125.561 107.381 125.118C107.822 124.676 108.421 124.427 109.045 124.427H124.224C124.847 124.427 125.446 124.676 125.887 125.118C126.328 125.561 126.576 126.161 126.576 126.787C126.576 127.412 126.328 128.013 125.887 128.455C125.446 128.898 124.847 129.146 124.224 129.146Z" fill="#3EB073"/>
</g>
<defs>
<clipPath id="clip0_106_444">
<rect width="316" height="196" fill="white" transform="translate(-158)"/>
</clipPath>
</defs>
</svg>
