<svg width="25" height="24" viewBox="0 0 25 24" fill="none" xmlns="http://www.w3.org/2000/svg">
<path fill-rule="evenodd" clip-rule="evenodd" d="M12.75 0C13.2045 -1.48773e-06 13.6201 0.25681 13.8233 0.663362L17.0917 7.20037H23.5509C24.0362 7.20037 24.4738 7.49277 24.6595 7.94121C24.8453 8.38964 24.7426 8.90581 24.3993 9.24898L18.8979 14.7493L21.1039 22.4703C21.2385 22.9414 21.0731 23.447 20.6862 23.7476C20.2993 24.0482 19.7686 24.0834 19.3454 23.8365L12.7504 19.9892L6.15465 23.8366C5.73145 24.0834 5.20068 24.0482 4.8138 23.7476C4.42691 23.447 4.26161 22.9414 4.39621 22.4703L6.60222 14.7493L1.10153 9.24892C0.75832 8.90573 0.65564 8.38959 0.841373 7.94117C1.02711 7.49275 1.46467 7.20037 1.95003 7.20037H8.40837L11.6767 0.663369C11.8799 0.256816 12.2955 1.48774e-06 12.75 0ZM12.75 3.88339L10.2234 8.937C10.0201 9.34356 9.60457 9.60037 9.15003 9.60037H4.84722L8.79854 13.5514C9.10671 13.8596 9.22359 14.3106 9.10386 14.7297L7.52394 20.2594L12.1458 17.5635C12.5195 17.3455 12.9815 17.3455 13.3551 17.5635L17.9761 20.2592L16.3962 14.7297C16.2765 14.3106 16.3934 13.8595 16.7016 13.5514L20.6534 9.60037H16.35C15.8955 9.60037 15.48 9.34356 15.2767 8.93701L12.75 3.88339Z" fill="white"/>
</svg>
