<svg width="110" height="34" viewBox="0 0 110 34" fill="none" xmlns="http://www.w3.org/2000/svg">
<g clip-path="url(#clip0_157_1238)">
<path d="M104.03 33.5H95.7268C95.3869 33.4955 95.0622 33.3581 94.8219 33.1171C94.5816 32.8761 94.4446 32.5504 94.4401 32.2096V1.7904C94.4401 1.44817 94.5757 1.11994 94.817 0.87794C95.0583 0.635941 95.3855 0.499996 95.7268 0.499996H104.03C104.2 0.497681 104.368 0.529481 104.525 0.59351C104.682 0.65754 104.825 0.752505 104.945 0.872794C105.065 0.993083 105.16 1.13624 105.223 1.29385C105.287 1.45145 105.319 1.6203 105.317 1.7904V32.2096C105.317 32.5518 105.181 32.88 104.94 33.122C104.698 33.364 104.371 33.5 104.03 33.5ZM97.082 30.8504H102.812V3.08081H97.082V30.8504Z" fill="#FDCF2A"/>
<path d="M104.27 30.5235H104.03C103.69 30.519 103.365 30.3816 103.125 30.1406C102.885 29.8996 102.748 29.5739 102.743 29.2331V4.76697C102.748 4.42612 102.885 4.10048 103.125 3.85944C103.365 3.6184 103.69 3.48102 104.03 3.47656H104.27C105.788 3.4811 107.243 4.08802 108.317 5.16473C109.39 6.24145 109.996 7.70047 110 9.22317V24.708C110.007 25.4679 109.864 26.2215 109.579 26.9256C109.294 27.6298 108.874 28.2705 108.341 28.811C107.809 29.3515 107.175 29.781 106.476 30.0749C105.777 30.3688 105.028 30.5213 104.27 30.5235ZM105.317 6.24664V27.7534C105.933 27.5335 106.467 27.1278 106.845 26.5918C107.222 26.0559 107.426 25.416 107.427 24.7597V9.27481C107.438 8.61147 107.24 7.96152 106.861 7.41772C106.482 6.87393 105.942 6.46406 105.317 6.24664Z" fill="#FDCF2A"/>
<path d="M5.97007 30.5235H5.74705C4.99234 30.5235 4.24497 30.3744 3.54771 30.0848C2.85045 29.7951 2.21695 29.3706 1.68328 28.8353C1.14962 28.3001 0.726285 27.6647 0.437469 26.9654C0.148654 26.2661 0 25.5166 0 24.7597V9.27483C0.00454102 7.74915 0.612017 6.28751 1.6893 5.21031C2.76659 4.1331 4.22581 3.52819 5.74705 3.5282H5.97007C6.30993 3.53265 6.63462 3.67004 6.87496 3.91108C7.1153 4.15212 7.25228 4.47775 7.25673 4.8186V29.2847C7.23931 29.6165 7.09661 29.9292 6.85763 30.1593C6.61865 30.3894 6.30133 30.5196 5.97007 30.5235ZM4.68342 6.24666C4.06684 6.46127 3.53225 6.86327 3.15406 7.39674C2.77588 7.93021 2.57289 8.56863 2.5733 9.22319V24.7081C2.57437 25.3644 2.77768 26.0043 3.15542 26.5402C3.53316 27.0762 4.06687 27.4819 4.68342 27.7018V6.24666Z" fill="#FDCF2A"/>
<path d="M14.2733 30.8504C14.1208 30.8468 13.9701 30.8177 13.8272 30.7644C13.6602 30.7074 13.5066 30.6165 13.3761 30.4975C13.2456 30.3784 13.1408 30.2337 13.0684 30.0723C12.996 29.911 12.9575 29.7364 12.9552 29.5595C12.953 29.3826 12.987 29.207 13.0552 29.0438L21.9932 4.26804C22.0712 4.00195 22.2384 3.77102 22.4666 3.61428C22.6948 3.45755 22.9699 3.38461 23.2455 3.40777C23.515 3.41866 23.7743 3.51422 23.9867 3.68094C24.1991 3.84766 24.3539 4.0771 24.4292 4.33685L31.7888 29.1299C31.8592 29.2974 31.8935 29.4779 31.8895 29.6596C31.8855 29.8413 31.8432 30.0201 31.7655 30.1843C31.6878 30.3485 31.5764 30.4944 31.4386 30.6124C31.3008 30.7304 31.1397 30.8179 30.9658 30.8691C30.7919 30.9204 30.6091 30.9341 30.4296 30.9096C30.25 30.8851 30.0776 30.8228 29.9237 30.7268C29.7698 30.6309 29.6379 30.5034 29.5366 30.3527C29.4352 30.202 29.3667 30.0316 29.3356 29.8525L23.0911 8.82747L15.4741 29.9213C15.4003 30.1852 15.2436 30.4181 15.0272 30.5855C14.8109 30.7529 14.5465 30.8458 14.2733 30.8504Z" fill="#FDCF2A"/>
<path d="M30.5708 30.8503C30.3659 30.8473 30.1646 30.7959 29.9832 30.7003C29.8018 30.6046 29.6454 30.4675 29.5267 30.2999C29.4081 30.1323 29.3305 29.939 29.3003 29.7357C29.27 29.5324 29.288 29.3248 29.3528 29.1298L38.2907 4.35398C38.3735 4.09423 38.5394 3.86912 38.7627 3.71358C38.986 3.55804 39.2543 3.48076 39.5259 3.49371C39.7984 3.50103 40.0615 3.59493 40.2773 3.76191C40.4931 3.92889 40.6506 4.16031 40.7268 4.42279L48.0864 29.1298C48.182 29.4583 48.1435 29.8115 47.9794 30.1115C47.8153 30.4116 47.5391 30.634 47.2115 30.7299C46.8839 30.8257 46.5318 30.7871 46.2326 30.6225C45.9334 30.458 45.7116 30.1809 45.6161 29.8524L39.3715 8.82737L31.7717 29.9212C31.6955 30.1837 31.5381 30.4151 31.3223 30.5821C31.1064 30.7491 30.8433 30.843 30.5708 30.8503Z" fill="#FDCF2A"/>
<path d="M46.8512 30.8504C46.7043 30.8468 46.5592 30.8177 46.4223 30.7643C46.2553 30.7073 46.1017 30.6165 45.9712 30.4974C45.8407 30.3784 45.736 30.2336 45.6636 30.0723C45.5912 29.9109 45.5527 29.7364 45.5504 29.5594C45.5481 29.3825 45.5822 29.207 45.6504 29.0438L54.5711 4.26798C54.6546 4.00525 54.8232 3.77798 55.05 3.62215C55.2769 3.46632 55.5491 3.39086 55.8235 3.40771C56.096 3.41503 56.3591 3.50896 56.5749 3.67594C56.7907 3.84293 56.9482 4.07432 57.0244 4.33679L64.384 29.1298C64.4795 29.4584 64.4411 29.8115 64.277 30.1116C64.1129 30.4117 63.8366 30.6341 63.5091 30.7299C63.1815 30.8257 62.8293 30.7871 62.5301 30.6226C62.2309 30.458 62.0092 30.181 61.9136 29.8524L55.6691 8.82741L48.0693 29.9213C47.9921 30.1865 47.8322 30.4199 47.6129 30.5872C47.3937 30.7544 47.1266 30.8467 46.8512 30.8504Z" fill="#FDCF2A"/>
<path d="M63.1488 30.8504C63.0236 30.8678 62.8966 30.8678 62.7714 30.8504C62.6059 30.7913 62.454 30.6992 62.3248 30.5797C62.1957 30.4603 62.0919 30.3158 62.0198 30.1551C61.9477 29.9944 61.9087 29.8208 61.9052 29.6446C61.9017 29.4684 61.9337 29.2933 61.9994 29.1299L70.9374 4.35405C71.0182 4.08967 71.1861 3.8606 71.4136 3.70433C71.6411 3.54807 71.9147 3.47384 72.1897 3.49378C72.4608 3.50619 72.7215 3.602 72.9363 3.76824C73.1512 3.93447 73.3098 4.16304 73.3906 4.42286L80.6644 29.1299C80.7348 29.2973 80.7692 29.4779 80.7651 29.6596C80.7611 29.8413 80.7189 30.0201 80.6412 30.1843C80.5635 30.3485 80.452 30.4944 80.3142 30.6124C80.1763 30.7304 80.0152 30.8179 79.8413 30.8691C79.6674 30.9203 79.4848 30.9341 79.3052 30.9096C79.1256 30.8851 78.9533 30.8228 78.7994 30.7268C78.6455 30.6308 78.5135 30.5033 78.4121 30.3527C78.3108 30.202 78.2423 30.0315 78.2112 29.8525L71.9666 8.82745L64.3497 29.9213C64.2759 30.1852 64.1191 30.4181 63.9028 30.5855C63.6864 30.7529 63.422 30.8458 63.1488 30.8504Z" fill="#FDCF2A"/>
<path d="M79.4463 30.8504C79.2413 30.8474 79.0401 30.796 78.8586 30.7004C78.6772 30.6047 78.5209 30.4675 78.4022 30.2999C78.2836 30.1324 78.206 29.9391 78.1757 29.7358C78.1455 29.5325 78.1636 29.3249 78.2283 29.1299L87.1662 4.35406C87.2522 4.09294 87.4214 3.86734 87.6476 3.71193C87.8738 3.55652 88.1447 3.4799 88.4186 3.49379C88.6881 3.50468 88.9474 3.60021 89.1598 3.76693C89.3722 3.93365 89.527 4.16311 89.6023 4.42287L96.9619 29.1299C97.0574 29.4584 97.019 29.8116 96.8549 30.1116C96.6908 30.4117 96.4146 30.6341 96.087 30.73C95.7594 30.8258 95.4072 30.7872 95.108 30.6226C94.8088 30.4581 94.5871 30.181 94.4915 29.8525L88.247 8.82746L80.6472 29.9213C80.5709 30.1838 80.4136 30.4152 80.1978 30.5822C79.9819 30.7492 79.7188 30.8431 79.4463 30.8504Z" fill="#FDCF2A"/>
<path d="M14.2733 33.5H5.97012C5.62888 33.5 5.3016 33.364 5.06031 33.122C4.81902 32.88 4.68347 32.5518 4.68347 32.2096V1.7904C4.68116 1.6203 4.71281 1.45145 4.77666 1.29385C4.8405 1.13624 4.93519 0.993083 5.05513 0.872794C5.17507 0.752505 5.31786 0.65754 5.47501 0.59351C5.63215 0.529481 5.80051 0.497681 5.97012 0.499996H14.2733C14.6145 0.499996 14.9418 0.635941 15.183 0.87794C15.4243 1.11994 15.5599 1.44817 15.5599 1.7904V32.2096C15.5555 32.5504 15.4185 32.8761 15.1782 33.1171C14.9378 33.3581 14.6132 33.4955 14.2733 33.5ZM7.25677 30.9192H13.0209V3.08081H7.29106L7.25677 30.9192Z" fill="#FDCF2A"/>
</g>
<defs>
<clipPath id="clip0_157_1238">
<rect width="110" height="33" fill="white" transform="translate(0 0.5)"/>
</clipPath>
</defs>
</svg>
