<svg width="227" height="108" viewBox="0 0 227 108" fill="none" xmlns="http://www.w3.org/2000/svg">
<g clip-path="url(#clip0_157_1129)">
<path d="M74.8559 -13.3869L225.295 -13.3869C225.747 -13.3869 226.181 -13.2066 226.501 -12.8857C226.82 -12.5648 227 -12.1295 227 -11.6756C227 -11.2217 226.82 -10.7864 226.501 -10.4655C226.181 -10.1446 225.747 -9.96429 225.295 -9.96429L73.7193 -9.9643C73.5378 -9.98132 73.3552 -9.98132 73.1738 -9.9643L72.6055 -9.9643C71.2372 -9.7188 69.9363 -9.18523 68.7883 -8.39866C67.6403 -7.6121 66.6713 -6.59039 65.9451 -5.40081C65.1927 -4.19426 64.7045 -2.84095 64.5129 -1.43059C64.4061 -0.0567267 64.3681 1.32166 64.3992 2.69936L64.3992 26.0645C64.5073 32.3659 62.1699 38.4626 57.8811 43.0656C53.5923 47.6686 47.6884 50.4171 41.4174 50.7301L37.894 50.7301L23.3001 50.7301C21.1001 50.9003 19.0235 51.8177 17.4126 53.3313C15.8826 54.7087 14.8113 56.5248 14.3438 58.5337C14.2439 58.9924 14.1755 59.4574 14.1392 59.9255L14.1392 60.4732C14.1392 60.8383 14.1392 61.2034 14.1392 61.7738L14.1392 94.8591C14.1392 95.313 13.9596 95.7482 13.6399 96.0692C13.3201 96.3901 12.8865 96.5704 12.4343 96.5704C11.9822 96.5704 11.5485 96.3901 11.2288 96.0692C10.909 95.7482 10.7294 95.313 10.7294 94.8591L10.7294 61.8422C10.7294 61.2034 10.7294 60.747 10.7294 60.3134L10.7294 59.8571C10.7842 59.1806 10.8905 58.5093 11.0476 57.8492C11.6918 55.06 13.2008 52.5478 15.3576 50.674C17.5144 48.8002 20.2077 47.6615 23.0501 47.4216L25.6869 47.4216L41.2583 47.4216C43.8592 47.2993 46.413 46.6798 48.7825 45.5962C53.7192 43.3497 57.5859 39.2556 59.5574 34.1875C60.5395 31.634 61.0256 28.9155 60.9895 26.1785L60.9895 2.97316C60.9412 1.45013 60.9944 -0.0744212 61.1486 -1.59033C61.5738 -4.4039 62.8618 -7.01451 64.8337 -9.05921C66.8055 -11.1039 69.3631 -12.4811 72.1508 -12.9991L72.6055 -12.9991C72.9738 -13.0619 73.3459 -13.1 73.7193 -13.1131L74.8559 -13.1131L74.8559 -13.3869Z" fill="#4D4C4F"/>
<path d="M74.9014 -24.0883L225.295 -24.0883C225.747 -24.0883 226.181 -23.908 226.501 -23.587C226.82 -23.2661 227 -22.8308 227 -22.3769C227 -21.9231 226.82 -21.4878 226.501 -21.1669C226.181 -20.8459 225.747 -20.6656 225.295 -20.6656L75.0832 -20.6656C74.5831 -20.6656 73.7875 -20.6656 73.1056 -20.6656C72.5553 -20.6603 72.0069 -20.5992 71.4689 -20.4831L70.787 -20.4831C66.4786 -19.6988 62.5282 -17.5653 59.5023 -14.3885C56.4763 -11.2118 54.5301 -7.155 53.9427 -2.79961C53.7502 -1.01156 53.6818 0.787787 53.7381 2.58535L53.7381 26.0645C53.7664 27.8874 53.4502 29.6992 52.8061 31.4038C51.5216 34.7161 48.9903 37.3881 45.7592 38.8423C44.2201 39.5461 42.5613 39.9489 40.8719 40.0288L37.894 40.0288L22.3909 40.0288C18.0356 40.4087 13.9102 42.1563 10.6008 45.0235C7.2914 47.8908 4.96615 51.7318 3.95533 56.001C3.733 56.9698 3.5811 57.9536 3.50073 58.9445C3.50073 59.88 3.38707 60.9296 3.50073 61.5685L3.50073 94.6538C3.50073 95.1077 3.32112 95.5429 3.00139 95.8639C2.68166 96.1848 2.24801 96.3651 1.79584 96.3651C1.34368 96.3651 0.910024 96.1848 0.590296 95.8639C0.270567 95.5429 0.0909559 95.1077 0.090956 94.6538L0.0909588 61.8423C0.0909589 61.1578 0.090959 60.0169 0.0909591 58.8988C0.192318 57.739 0.374598 56.5877 0.636501 55.4534C1.79496 50.4516 4.50219 45.9468 8.36968 42.5853C12.2372 39.2239 17.0661 37.1787 22.1635 36.7431L25.6869 36.7431L40.69 36.7431C41.9623 36.6993 43.2135 36.4046 44.3725 35.876C46.7706 34.7664 48.651 32.7727 49.6236 30.3086C50.1261 28.9916 50.3656 27.5883 50.3283 26.1786L50.3283 2.9276C50.2705 0.97758 50.3464 -0.974113 50.5556 -2.91367C51.2419 -8.00954 53.5225 -12.7551 57.0686 -16.4663C60.6147 -20.1774 65.2432 -22.6625 70.2868 -23.5634L70.9233 -23.6776C71.571 -23.7798 72.2235 -23.8484 72.8782 -23.8829L74.9014 -24.0883Z" fill="#4D4C4F"/>
<path d="M24.6185 6.92062C24.6185 7.76179 24.2857 8.56851 23.6931 9.16331C23.1006 9.7581 22.2969 10.0923 21.4589 10.0923C20.6208 10.0923 19.8171 9.7581 19.2246 9.16331C18.632 8.56851 18.2991 7.76179 18.2991 6.92062C18.3051 6.08342 18.6406 5.28257 19.2326 4.6927C19.8245 4.10284 20.6248 3.77178 21.4589 3.7718C21.8727 3.76879 22.283 3.84804 22.6663 4.00494C23.0495 4.16183 23.398 4.39326 23.6917 4.68595C23.9854 4.97864 24.2185 5.3268 24.3776 5.71033C24.5367 6.09385 24.6185 6.50519 24.6185 6.92062Z" fill="#4D4C4F"/>
<path d="M47.8278 89.3601L62.9444 89.3601C63.3966 89.3601 63.8302 89.5404 64.15 89.8613C64.4697 90.1823 64.6493 90.6176 64.6493 91.0714C64.6493 91.5253 64.4697 91.9606 64.15 92.2815C63.8302 92.6024 63.3966 92.7827 62.9444 92.7827L49.5327 92.7827L49.5327 105.789C49.5327 106.243 49.353 106.678 49.0333 106.999C48.7136 107.32 48.2799 107.5 47.8278 107.5C47.3756 107.5 46.942 107.32 46.6222 106.999C46.3025 106.678 46.1229 106.243 46.1229 105.789L46.1229 91.0714C46.1229 90.6176 46.3025 90.1823 46.6222 89.8613C46.942 89.5404 47.3756 89.3601 47.8278 89.3601Z" fill="#4D4C4F"/>
<path d="M47.8278 74.6428C48.2781 74.6488 48.7083 74.8309 49.0268 75.1506C49.3453 75.4703 49.5268 75.9021 49.5327 76.3542L49.5327 91.0714C49.5327 91.5253 49.3531 91.9605 49.0333 92.2815C48.7136 92.6024 48.2799 92.7827 47.8278 92.7827L32.7111 92.7827C32.259 92.7827 31.8253 92.6024 31.5056 92.2815C31.1859 91.9605 31.0062 91.5253 31.0062 91.0714C31.0062 90.6175 31.1859 90.1822 31.5056 89.8613C31.8253 89.5404 32.259 89.3601 32.7111 89.3601L46.1229 89.3601L46.1229 76.4454C46.1105 76.2131 46.1454 75.9807 46.2256 75.7624C46.3057 75.5442 46.4294 75.3446 46.5889 75.1759C46.7485 75.0072 46.9406 74.8729 47.1536 74.7812C47.3666 74.6896 47.596 74.6425 47.8278 74.6428Z" fill="#4D4C4F"/>
<path d="M184.469 14.1995L193.425 14.1995C193.877 14.1995 194.311 14.3797 194.631 14.7007C194.95 15.0216 195.13 15.4569 195.13 15.9108C195.13 16.3646 194.95 16.7999 194.631 17.1208C194.311 17.4418 193.877 17.6221 193.425 17.6221L184.469 17.6221C184.017 17.6221 183.583 17.4418 183.263 17.1208C182.943 16.7999 182.764 16.3646 182.764 15.9108C182.764 15.4569 182.943 15.0216 183.263 14.7007C183.583 14.3797 184.017 14.1995 184.469 14.1995Z" fill="#4D4C4F"/>
<path d="M169.739 14.1995L178.695 14.1995C179.147 14.1995 179.581 14.3797 179.9 14.7007C180.22 15.0216 180.4 15.4569 180.4 15.9108C180.4 16.3646 180.22 16.7999 179.9 17.1208C179.581 17.4418 179.147 17.6221 178.695 17.6221L169.739 17.6221C169.286 17.6221 168.853 17.4418 168.533 17.1208C168.213 16.7999 168.034 16.3646 168.034 15.9108C168.034 15.4569 168.213 15.0216 168.533 14.7007C168.853 14.3797 169.286 14.1995 169.739 14.1995Z" fill="#4D4C4F"/>
<path d="M155.008 14.1995L163.942 14.1995C164.394 14.1995 164.828 14.3797 165.147 14.7007C165.467 15.0216 165.647 15.4569 165.647 15.9108C165.647 16.3646 165.467 16.7999 165.147 17.1208C164.828 17.4418 164.394 17.6221 163.942 17.6221L155.008 17.6221C154.556 17.6221 154.123 17.4418 153.803 17.1208C153.483 16.7999 153.303 16.3646 153.303 15.9108C153.303 15.4569 153.483 15.0216 153.803 14.7007C154.123 14.3797 154.556 14.1995 155.008 14.1995Z" fill="#4D4C4F"/>
<path d="M140.255 14.1995L149.212 14.1995C149.664 14.1995 150.097 14.3797 150.417 14.7007C150.737 15.0216 150.917 15.4569 150.917 15.9108C150.917 16.3646 150.737 16.7999 150.417 17.1208C150.097 17.4418 149.664 17.6221 149.212 17.6221L140.255 17.6221C139.803 17.6221 139.37 17.4418 139.05 17.1208C138.73 16.7999 138.551 16.3646 138.551 15.9108C138.551 15.4569 138.73 15.0216 139.05 14.7007C139.37 14.3797 139.803 14.1995 140.255 14.1995Z" fill="#4D4C4F"/>
<path d="M125.525 14.1995L134.481 14.1995C134.934 14.1995 135.367 14.3797 135.687 14.7007C136.007 15.0216 136.186 15.4569 136.186 15.9108C136.186 16.3646 136.007 16.7999 135.687 17.1208C135.367 17.4418 134.934 17.6221 134.481 17.6221L125.525 17.6221C125.073 17.6221 124.639 17.4418 124.32 17.1208C124 16.7999 123.82 16.3646 123.82 15.9108C123.82 15.4569 124 15.0216 124.32 14.7007C124.639 14.3797 125.073 14.1995 125.525 14.1995Z" fill="#4D4C4F"/>
<path d="M110.772 14.1995L119.729 14.1995C120.181 14.1995 120.614 14.3797 120.934 14.7007C121.254 15.0216 121.433 15.4569 121.433 15.9108C121.433 16.3646 121.254 16.7999 120.934 17.1208C120.614 17.4418 120.181 17.6221 119.729 17.6221L110.772 17.6221C110.32 17.6221 109.886 17.4418 109.567 17.1208C109.247 16.7999 109.067 16.3646 109.067 15.9108C109.067 15.4569 109.247 15.0216 109.567 14.7007C109.886 14.3797 110.32 14.1995 110.772 14.1995Z" fill="#4D4C4F"/>
</g>
<defs>
<clipPath id="clip0_157_1129">
<rect width="227" height="138" fill="white" transform="translate(227 107.5) rotate(-180)"/>
</clipPath>
</defs>
</svg>
