<svg width="89" height="271" viewBox="0 0 89 271" fill="none" xmlns="http://www.w3.org/2000/svg">
<g clip-path="url(#clip0_157_1181)">
<path d="M56.84 53.2666C52.8518 53.272 48.9516 52.0943 45.6329 49.8823C42.3142 47.6703 39.726 44.5236 38.196 40.8401C36.666 37.1567 36.2629 33.1022 37.0376 29.1895C37.8123 25.2769 39.7301 21.682 42.5482 18.8597C45.3664 16.0374 48.9582 14.1145 52.8694 13.3344C56.7806 12.5542 60.8352 12.9519 64.5204 14.477C68.2055 16.0021 71.3555 18.5861 73.5718 21.9021C75.7881 25.2182 76.9711 29.1172 76.9711 33.1058C76.9638 38.4457 74.8414 43.5653 71.0684 47.3438C67.2955 51.1223 62.1794 53.2519 56.84 53.2666ZM56.84 17.1209C53.671 17.1155 50.5716 18.0506 47.9344 19.808C45.2972 21.5654 43.2408 24.0659 42.0256 26.9929C40.8103 29.9199 40.4909 33.1418 41.1078 36.2505C41.7247 39.3592 43.2502 42.2149 45.491 44.4559C47.7318 46.697 50.5872 48.2226 53.6956 48.8396C56.804 49.4565 60.0255 49.1371 62.9522 47.9217C65.879 46.7063 68.3793 44.6497 70.1364 42.0122C71.8936 39.3747 72.8287 36.2751 72.8232 33.1058C72.8087 28.8708 71.1201 24.8135 68.1258 21.8189C65.1315 18.8243 61.0745 17.1355 56.84 17.1209Z" fill="#E83C35"/>
<path d="M56.84 46.1314C56.29 46.1314 55.7624 45.9129 55.3735 45.5239C54.9845 45.135 54.7661 44.6074 54.7661 44.0573V22.1818C54.7661 21.6317 54.9845 21.1042 55.3735 20.7152C55.7624 20.3262 56.29 20.1077 56.84 20.1077C57.39 20.1077 57.9176 20.3262 58.3065 20.7152C58.6955 21.1042 58.9139 21.6317 58.9139 22.1818V44.0573C58.9068 44.6052 58.686 45.1286 58.2986 45.516C57.9112 45.9035 57.3878 46.1243 56.84 46.1314Z" fill="#E83C35"/>
<path d="M67.6799 35.1799H45.7789C45.2289 35.1799 44.7014 34.9614 44.3124 34.5724C43.9235 34.1834 43.705 33.6559 43.705 33.1058C43.705 32.5557 43.9235 32.0281 44.3124 31.6391C44.7014 31.2501 45.2289 31.0316 45.7789 31.0316H67.6245C68.1745 31.0316 68.7021 31.2501 69.091 31.6391C69.48 32.0281 69.6984 32.5557 69.6984 33.1058C69.6984 33.6559 69.48 34.1834 69.091 34.5724C68.7021 34.9614 68.1745 35.1799 67.6245 35.1799H67.6799Z" fill="#E83C35"/>
<path d="M63.9467 268.426L65.274 268.205C66.2103 268.037 67.1342 267.806 68.0393 267.513C69.0624 267.237 70.0302 266.767 70.8045 266.49L71.9936 265.882L63.9467 268.426Z" fill="white"/>
<path d="M63.9467 270.5C63.4265 270.499 62.9257 270.302 62.5439 269.948C62.162 269.595 61.9269 269.111 61.8851 268.592C61.8434 268.074 61.998 267.558 62.3185 267.148C62.6389 266.739 63.1016 266.464 63.6149 266.379L64.9422 266.158C65.6174 266.055 66.2832 265.898 66.9332 265.688L67.5692 265.522C68.1499 265.356 68.7306 265.107 69.256 264.914C69.543 264.775 69.8385 264.655 70.1409 264.554L71.1088 264.056C71.5938 263.813 72.1551 263.769 72.6721 263.934C73.1891 264.1 73.6206 264.461 73.874 264.941C74.1085 265.431 74.1444 265.992 73.9743 266.508C73.8042 267.023 73.4412 267.453 72.9614 267.707L71.8001 268.315L70.7769 268.73C70.1409 268.979 69.4219 269.256 68.6753 269.477L68.0393 269.67C67.1951 269.918 66.3362 270.112 65.4676 270.251L64.2509 270.445L63.9467 270.5Z" fill="#E83C35"/>
<path d="M81.036 258.138L81.8103 257.032C82.2528 256.396 82.7782 255.455 83.3036 254.543C83.829 253.63 84.2714 252.635 84.5479 251.777L85.018 250.533L81.036 258.138Z" fill="white"/>
<path d="M81.0084 260.295C80.5769 260.293 80.1584 260.147 79.8193 259.88C79.3978 259.57 79.1133 259.108 79.0256 258.593C78.9379 258.077 79.0539 257.547 79.3493 257.115L80.1236 256.036C80.4001 255.621 80.7042 255.068 81.0637 254.46L81.9486 252.801C82.1974 252.275 82.4464 251.777 82.6123 251.335L83.0823 250.09C83.1796 249.826 83.3297 249.584 83.5235 249.38C83.7173 249.175 83.9507 249.013 84.2094 248.901C84.4682 248.79 84.7468 248.733 85.0285 248.733C85.3102 248.733 85.5888 248.79 85.8476 248.901C86.117 248.991 86.3644 249.138 86.5734 249.33C86.7825 249.522 86.9485 249.757 87.0608 250.018C87.173 250.279 87.2289 250.561 87.2247 250.845C87.2206 251.129 87.1565 251.409 87.0367 251.667L86.5666 252.911C86.3271 253.536 86.0501 254.145 85.737 254.736L84.7415 256.645L83.6077 258.525L82.7782 259.631C82.5613 259.88 82.286 260.071 81.9771 260.187C81.6682 260.303 81.3353 260.34 81.0084 260.295Z" fill="#E83C35"/>
<path d="M84.8245 240.356H83.4972C83.0502 240.447 82.5892 240.447 82.1422 240.356C81.9061 240.243 81.7105 240.061 81.5818 239.833C81.4532 239.605 81.3979 239.344 81.4233 239.083V234.824L84.8245 240.356Z" fill="white"/>
<path d="M82.8611 242.43C82.3195 242.448 81.7807 242.344 81.2849 242.125C80.6632 241.827 80.146 241.348 79.8007 240.751C79.4554 240.154 79.2981 239.467 79.3493 238.779V234.686C79.3493 234.136 79.5678 233.609 79.9567 233.22C80.3457 232.831 80.8732 232.612 81.4232 232.612C81.9733 232.612 82.5007 232.831 82.8897 233.22C83.2786 233.609 83.4972 234.136 83.4972 234.686V238.171H84.8245C85.3745 238.171 85.902 238.389 86.291 238.778C86.6799 239.167 86.8984 239.695 86.8984 240.245C86.8984 240.795 86.6799 241.323 86.291 241.712C85.902 242.101 85.3745 242.319 84.8245 242.319H83.4972L83.11 240.245V242.319L82.8611 242.43Z" fill="#E83C35"/>
<path d="M81.4232 224.786C80.8732 224.786 80.3456 224.567 79.9567 224.178C79.5678 223.789 79.3493 223.262 79.3493 222.711V214.194C79.3493 213.643 79.5678 213.116 79.9567 212.727C80.3456 212.338 80.8732 212.119 81.4232 212.119C81.9733 212.119 82.5007 212.338 82.8897 212.727C83.2786 213.116 83.4972 213.643 83.4972 214.194V222.711C83.49 223.259 83.2692 223.783 82.8818 224.17C82.4944 224.558 81.971 224.778 81.4232 224.786Z" fill="#E83C35"/>
<path d="M81.4233 204.265C81.1499 204.269 80.8785 204.218 80.6252 204.115C80.3719 204.012 80.1417 203.859 79.9484 203.666C79.7551 203.473 79.6024 203.243 79.4995 202.989C79.3966 202.736 79.3456 202.465 79.3493 202.191V193.673C79.3493 193.123 79.5678 192.596 79.9567 192.207C80.3457 191.818 80.8732 191.599 81.4233 191.599C81.9733 191.599 82.5007 191.818 82.8897 192.207C83.2786 192.596 83.4972 193.123 83.4972 193.673V202.219C83.4899 202.764 83.2682 203.285 82.8801 203.668C82.4919 204.051 81.9685 204.265 81.4233 204.265Z" fill="#E83C35"/>
<path d="M86.9261 188.17C86.376 188.17 85.8485 187.951 85.4595 187.562C85.0706 187.173 84.8521 186.646 84.8521 186.096V177.578C84.8521 177.028 85.0706 176.5 85.4595 176.111C85.8485 175.722 86.376 175.504 86.9261 175.504C87.4761 175.504 88.0036 175.722 88.3926 176.111C88.7815 176.5 89 177.028 89 177.578V186.096C89.0037 186.369 88.9526 186.64 88.8497 186.894C88.7468 187.147 88.5942 187.377 88.4008 187.571C88.2075 187.764 87.9774 187.917 87.7241 188.019C87.4708 188.122 87.1994 188.173 86.9261 188.17Z" fill="#E83C35"/>
<path d="M86.9261 167.677C86.3782 167.67 85.8549 167.449 85.4675 167.062C85.0801 166.674 84.8593 166.151 84.8521 165.603V157.085C84.8521 156.535 85.0706 156.007 85.4595 155.618C85.8485 155.229 86.376 155.011 86.9261 155.011C87.4761 155.011 88.0036 155.229 88.3926 155.618C88.7815 156.007 89 156.535 89 157.085V165.603C89 166.153 88.7815 166.681 88.3926 167.07C88.0036 167.459 87.4761 167.677 86.9261 167.677Z" fill="#E83C35"/>
<path d="M86.9261 147.157C86.376 147.157 85.8485 146.938 85.4595 146.549C85.0706 146.16 84.8521 145.633 84.8521 145.083V136.565C84.8521 136.015 85.0706 135.487 85.4595 135.098C85.8485 134.709 86.376 134.491 86.9261 134.491C87.4761 134.491 88.0036 134.709 88.3926 135.098C88.7815 135.487 89 136.015 89 136.565V145.083C89.0037 145.356 88.9526 145.627 88.8497 145.881C88.7468 146.134 88.5942 146.364 88.4008 146.558C88.2075 146.751 87.9774 146.904 87.7241 147.006C87.4708 147.109 87.1994 147.161 86.9261 147.157Z" fill="#E83C35"/>
<path d="M86.9261 126.664C86.3782 126.657 85.8549 126.436 85.4675 126.049C85.0801 125.661 84.8593 125.138 84.8521 124.59V116.072C84.8521 115.522 85.0706 114.994 85.4595 114.605C85.8485 114.216 86.376 113.998 86.9261 113.998C87.4761 113.998 88.0036 114.216 88.3926 114.605C88.7815 114.994 89 115.522 89 116.072V124.59C89 125.14 88.7815 125.668 88.3926 126.057C88.0036 126.446 87.4761 126.664 86.9261 126.664Z" fill="#E83C35"/>
<path d="M86.9261 106.144C86.376 106.144 85.8485 105.925 85.4595 105.536C85.0706 105.147 84.8521 104.62 84.8521 104.07V95.5517C84.8521 95.0016 85.0706 94.4741 85.4595 94.0851C85.8485 93.6961 86.376 93.4775 86.9261 93.4775C87.4761 93.4775 88.0036 93.6961 88.3926 94.0851C88.7815 94.4741 89 95.0016 89 95.5517V104.07C89.0037 104.343 88.9526 104.614 88.8497 104.868C88.7468 105.121 88.5942 105.351 88.4008 105.545C88.2075 105.738 87.9774 105.891 87.7241 105.993C87.4708 106.096 87.1994 106.147 86.9261 106.144Z" fill="#E83C35"/>
<path d="M86.9261 85.6511C86.3782 85.6439 85.8549 85.4231 85.4675 85.0357C85.0801 84.6482 84.8593 84.1248 84.8521 83.5769V75.0037C84.8521 74.4536 85.0706 73.926 85.4595 73.5371C85.8485 73.1481 86.376 72.9296 86.9261 72.9296C87.4761 72.9296 88.0036 73.1481 88.3926 73.5371C88.7815 73.926 89 74.4536 89 75.0037V83.5216C89.0074 83.7986 88.9592 84.0743 88.8583 84.3323C88.7574 84.5904 88.6058 84.8256 88.4125 85.0241C88.2192 85.2226 87.988 85.3804 87.7327 85.4881C87.4774 85.5957 87.2031 85.6512 86.9261 85.6511Z" fill="#E83C35"/>
<path d="M86.9261 65.1308C86.376 65.1308 85.8485 64.9122 85.4595 64.5233C85.0706 64.1343 84.8521 63.6067 84.8521 63.0566V54.5388C84.8521 53.9887 85.0706 53.4611 85.4595 53.0721C85.8485 52.6831 86.376 52.4646 86.9261 52.4646C87.4761 52.4646 88.0036 52.6831 88.3926 53.0721C88.7815 53.4611 89 53.9887 89 54.5388V63.0566C89.0037 63.33 88.9526 63.6014 88.8497 63.8547C88.7468 64.1081 88.5942 64.3382 88.4008 64.5316C88.2075 64.7249 87.9774 64.8776 87.7241 64.9805C87.4708 65.0834 87.1994 65.1345 86.9261 65.1308Z" fill="#E83C35"/>
<path d="M86.9261 44.5828C86.3782 44.5757 85.8549 44.3548 85.4675 43.9674C85.0801 43.58 84.8593 43.0565 84.8521 42.5087V33.9908C84.8521 33.4407 85.0706 32.9131 85.4595 32.5241C85.8485 32.1351 86.376 31.9166 86.9261 31.9166C87.4761 31.9166 88.0036 32.1351 88.3926 32.5241C88.7815 32.9131 89 33.4407 89 33.9908V42.5087C89 43.0588 88.7815 43.5863 88.3926 43.9753C88.0036 44.3643 87.4761 44.5828 86.9261 44.5828Z" fill="#E83C35"/>
<path d="M85.5987 22.1818C84.9141 19.8955 83.9871 17.689 82.8334 15.5998C82.617 15.2076 82.3769 14.829 82.1145 14.4659L85.5987 22.1818Z" fill="white"/>
<path d="M85.5987 24.2559C85.1488 24.2605 84.7101 24.1167 84.3502 23.8468C83.9902 23.5768 83.7293 23.1958 83.6077 22.7626C83.2408 21.5032 82.7786 20.2736 82.2251 19.0844C81.9793 18.5115 81.6928 17.957 81.3678 17.425C81.2019 17.1208 81.0361 16.8166 80.8978 16.5124C80.7595 16.2082 80.4276 15.7934 80.4 15.7381C80.2095 15.5265 80.0647 15.2779 79.9745 15.0079C79.8843 14.7378 79.8506 14.4521 79.8756 14.1685C79.9006 13.8849 79.9837 13.6095 80.1197 13.3594C80.2558 13.1093 80.4418 12.8898 80.6663 12.7148C80.8908 12.5397 81.149 12.4128 81.4247 12.3418C81.7004 12.2709 81.9877 12.2574 82.2689 12.3024C82.55 12.3473 82.8188 12.4496 83.0587 12.603C83.2985 12.7564 83.5043 12.9575 83.6631 13.1938C84.0115 13.6337 84.3171 14.106 84.5756 14.6042C84.7138 14.9084 84.8521 15.1297 84.9903 15.4062C85.3753 16.056 85.7171 16.7304 86.0135 17.425C86.644 18.775 87.171 20.1711 87.5897 21.601C87.7351 22.1327 87.6658 22.7002 87.3969 23.1812C87.1279 23.6623 86.6808 24.0184 86.1518 24.173C85.973 24.2298 85.7863 24.2578 85.5987 24.2559Z" fill="#E83C35"/>
<path d="M73.5975 6.114L72.4361 5.47793C71.556 4.97625 70.63 4.55954 69.6709 4.23345C68.3423 3.71628 66.9735 3.30929 65.5782 3.0166L73.5975 6.114Z" fill="white"/>
<path d="M73.5974 8.18816C73.2288 8.19101 72.8661 8.09556 72.5466 7.91161L71.4405 7.30319C70.681 6.85929 69.8855 6.48001 69.0625 6.16933C67.8407 5.69982 66.583 5.32987 65.3016 5.06311C64.7687 4.95596 64.299 4.64379 63.9939 4.19379C63.6887 3.74379 63.5725 3.19195 63.6702 2.65708C63.7167 2.38892 63.8162 2.13273 63.9629 1.90351C64.1096 1.67429 64.3006 1.47663 64.5246 1.32212C64.7486 1.1676 65.0012 1.05934 65.2676 1.00364C65.5339 0.947946 65.8088 0.945939 66.0759 0.997755C67.609 1.29263 69.1094 1.73726 70.5556 2.32523C71.5694 2.69279 72.55 3.14613 73.4868 3.68034L74.6206 4.31642C75.0815 4.58843 75.4194 5.0281 75.5637 5.5435C75.708 6.0589 75.6475 6.61014 75.3948 7.08196C75.224 7.41228 74.9665 7.68979 74.6498 7.88469C74.3331 8.07959 73.9693 8.1845 73.5974 8.18816Z" fill="#E83C35"/>
<path d="M53.7429 4.64831H45.2259C44.6758 4.64831 44.1484 4.4298 43.7594 4.04082C43.3705 3.65184 43.1519 3.12426 43.1519 2.57416C43.1519 2.02406 43.3705 1.4965 43.7594 1.10752C44.1484 0.718536 44.6758 0.5 45.2259 0.5H53.7429C54.293 0.5 54.8205 0.718536 55.2094 1.10752C55.5984 1.4965 55.8169 2.02406 55.8169 2.57416C55.8169 3.12426 55.5984 3.65184 55.2094 4.04082C54.8205 4.4298 54.293 4.64831 53.7429 4.64831Z" fill="#E83C35"/>
<path d="M33.2523 2.57417H28.9662C28.4515 2.51841 27.9322 2.51841 27.4175 2.57417C26.9703 2.6644 26.5524 2.86391 26.2009 3.15493C25.8526 3.43524 25.5774 3.79586 25.399 4.20585L33.2523 2.57417Z" fill="white"/>
<path d="M25.399 6.39064C25.1323 6.3885 24.8688 6.33202 24.6247 6.2247C24.3652 6.12148 24.1289 5.96759 23.9296 5.77201C23.7303 5.57643 23.572 5.34309 23.4638 5.08562C23.3557 4.82815 23.3 4.55171 23.2999 4.27245C23.2998 3.99319 23.3553 3.7167 23.4632 3.45915C23.7555 2.72424 24.2316 2.0767 24.8459 1.57858C25.4665 1.05474 26.2078 0.693596 27.0028 0.527683C27.4984 0.463103 28.0004 0.463103 28.496 0.527683H33.2523C33.8023 0.527683 34.3299 0.746218 34.7188 1.1352C35.1078 1.52418 35.3262 2.05174 35.3262 2.60184C35.3262 3.15194 35.1078 3.6795 34.7188 4.06848C34.3299 4.45746 33.8023 4.676 33.2523 4.676H28.4408C28.2382 4.66177 28.0349 4.66177 27.8324 4.676C27.7413 4.65571 27.6469 4.65571 27.5559 4.676C27.4493 4.76335 27.3561 4.86584 27.2793 4.98021C27.1524 5.38222 26.9028 5.7344 26.5656 5.98735C26.2283 6.2403 25.8204 6.38133 25.399 6.39064Z" fill="#E83C35"/>
<path d="M24.9842 10.6772C25.3512 11.461 25.5759 12.3038 25.6478 13.1662C25.7185 14.0299 25.6438 14.8993 25.4266 15.7382L24.9842 10.6772Z" fill="white"/>
<path d="M25.4266 17.8124C25.234 17.8392 25.0385 17.8392 24.8459 17.8124C24.5844 17.7361 24.3405 17.6091 24.1281 17.4385C23.9158 17.268 23.7391 17.0573 23.6081 16.8185C23.4772 16.5797 23.3945 16.3174 23.3649 16.0466C23.3353 15.7758 23.3594 15.5019 23.4356 15.2404C23.5699 14.6511 23.6257 14.0467 23.6015 13.4428C23.5438 12.822 23.385 12.2148 23.1314 11.6452C22.8894 11.1501 22.8539 10.5791 23.0329 10.0579C23.2118 9.53666 23.5904 9.10786 24.0854 8.86581C24.5805 8.62377 25.1514 8.58831 25.6725 8.76724C26.1937 8.94617 26.6225 9.32484 26.8645 9.81993C27.8105 11.8726 28.0062 14.1921 27.4175 16.3743C27.2748 16.7903 27.0068 17.1518 26.6503 17.4093C26.2938 17.6668 25.8664 17.8076 25.4266 17.8124Z" fill="#E83C35"/>
<path d="M20.5597 20.7715C19.7386 21.0454 18.881 21.1945 18.0157 21.214H15.361L20.5597 20.7715Z" fill="white"/>
<path d="M15.3611 23.3157C14.811 23.3157 14.2835 23.0972 13.8945 22.7082C13.5056 22.3193 13.2871 21.7917 13.2871 21.2416C13.2871 20.6915 13.5056 20.1639 13.8945 19.7749C14.2835 19.3859 14.811 19.1674 15.3611 19.1674H18.1263C18.7581 19.1608 19.3843 19.0487 19.9791 18.8356C20.2431 18.7262 20.5269 18.6725 20.8127 18.678C21.0984 18.6835 21.38 18.748 21.6396 18.8674C21.8993 18.9869 22.1315 19.1587 22.3216 19.3721C22.5117 19.5856 22.6556 19.836 22.7443 20.1077C22.8586 20.3695 22.9168 20.6523 22.9151 20.938C22.9135 21.2236 22.8522 21.5058 22.735 21.7663C22.6178 22.0268 22.4473 22.2599 22.2346 22.4505C22.0219 22.6412 21.7717 22.7851 21.4999 22.8732C20.4632 23.2526 19.3685 23.4491 18.2645 23.454L15.3611 23.3157Z" fill="#E83C35"/>
<path d="M8.11607 23.3157H2.91736C2.36732 23.3157 1.83979 23.0972 1.45085 22.7082C1.06191 22.3192 0.843414 21.7916 0.843414 21.2415C0.843414 20.6914 1.06191 20.1638 1.45085 19.7749C1.83979 19.3859 2.36732 19.1674 2.91736 19.1674H8.11607C8.66612 19.1674 9.19364 19.3859 9.58258 19.7749C9.97153 20.1638 10.19 20.6914 10.19 21.2415C10.19 21.7916 9.97153 22.3192 9.58258 22.7082C9.19364 23.0972 8.66612 23.3157 8.11607 23.3157Z" fill="#E83C35"/>
</g>
<defs>
<clipPath id="clip0_157_1181">
<rect width="178" height="270" fill="white" transform="translate(-89 0.5)"/>
</clipPath>
</defs>
</svg>
