<svg width="173" height="150" viewBox="0 0 173 150" fill="none" xmlns="http://www.w3.org/2000/svg">
<g clip-path="url(#clip0_157_1159)">
<path d="M168.567 49.481C164.974 49.482 161.513 48.1243 158.873 45.6783C156.233 48.1256 152.771 49.4845 149.178 49.4845C145.585 49.4845 142.124 48.1256 139.484 45.6783C137.957 47.1002 136.138 48.1698 134.156 48.8119C132.173 49.4541 130.075 49.6535 128.008 49.396C125.941 49.1386 123.955 48.4306 122.189 47.3215C120.423 46.2125 118.92 44.7293 117.785 42.9757C117.611 42.7083 117.549 42.3833 117.611 42.0703C117.674 41.7573 117.856 41.4813 118.118 41.3016C118.384 41.1308 118.706 41.0726 119.014 41.1398C119.322 41.2071 119.591 41.3943 119.762 41.6603C120.755 43.2003 122.088 44.49 123.658 45.4298C125.227 46.3696 126.991 46.9341 128.812 47.0798C130.634 47.2255 132.464 46.9483 134.162 46.2698C135.86 45.5914 137.379 44.5297 138.603 43.1671C138.716 43.0465 138.853 42.9504 139.004 42.8846C139.156 42.8188 139.319 42.7847 139.484 42.7844C139.649 42.7861 139.812 42.8208 139.963 42.8865C140.114 42.9522 140.251 43.0476 140.365 43.1671C141.481 44.4002 142.842 45.3854 144.36 46.0596C145.877 46.7338 147.519 47.0821 149.178 47.0821C150.838 47.0821 152.479 46.7338 153.997 46.0596C155.514 45.3854 156.875 44.4002 157.991 43.1671C158.227 42.9362 158.543 42.807 158.873 42.807C159.202 42.807 159.518 42.9362 159.754 43.1671C160.87 44.4002 162.231 45.3854 163.748 46.0596C165.266 46.7338 166.907 47.0821 168.567 47.0821C170.226 47.0821 171.868 46.7338 173.385 46.0596C174.903 45.3854 176.264 44.4002 177.38 43.1671C177.607 42.9464 177.91 42.823 178.226 42.823C178.541 42.823 178.844 42.9464 179.071 43.1671C179.183 43.2782 179.271 43.4105 179.332 43.5562C179.392 43.7019 179.423 43.8582 179.423 44.0161C179.423 44.174 179.392 44.3303 179.332 44.476C179.271 44.6217 179.183 44.754 179.071 44.8651C177.732 46.321 176.108 47.4828 174.3 48.2772C172.492 49.0716 170.54 49.4815 168.567 49.481Z" fill="#76388D"/>
<path d="M30.4645 149.5C29.9907 149.5 29.5363 149.311 29.2013 148.975C28.8663 148.638 28.6781 148.182 28.6781 147.706V126.636C28.6663 126.557 28.6663 126.476 28.6781 126.397C28.6676 126.317 28.6676 126.237 28.6781 126.158C28.7678 125.506 29.0391 124.893 29.4605 124.39C29.8818 123.886 30.4363 123.512 31.06 123.311C31.3684 123.179 31.7012 123.114 32.0365 123.12C32.3219 123.098 32.6086 123.098 32.894 123.12H72.1477C72.5678 123.154 72.99 123.154 73.4101 123.12C75.6727 122.965 77.8348 122.123 79.609 120.704C81.3832 119.286 82.6854 117.359 83.3426 115.18C83.5844 114.404 83.7285 113.6 83.7714 112.788C83.7714 112.477 83.7714 111.951 83.7714 111.736V79.3529C83.7538 79.1779 83.7538 79.0016 83.7714 78.8267C83.7596 78.7474 83.7596 78.6668 83.7714 78.5875C83.7602 78.5404 83.7602 78.4912 83.7714 78.444C83.8207 78.2092 83.8843 77.9775 83.9619 77.7504C84.181 77.2484 84.5083 76.8013 84.9201 76.4415C85.332 76.0817 85.8183 75.8181 86.3438 75.6697C86.6204 75.6311 86.9009 75.6311 87.1775 75.6697H238.071C238.544 75.6697 238.999 75.8587 239.334 76.1951C239.669 76.5315 239.857 76.9877 239.857 77.4635C239.857 77.9392 239.669 78.3954 239.334 78.7318C238.999 79.0682 238.544 79.2572 238.071 79.2572H87.3918C87.4016 79.3126 87.4016 79.3692 87.3918 79.4246V111.784C87.3918 111.999 87.3918 112.669 87.3918 113.123C87.2935 114.143 87.1022 115.152 86.8202 116.136C86.2498 118.068 85.292 119.862 84.0059 121.409C82.7197 122.955 81.1323 124.221 79.341 125.129C77.5684 126.004 75.6429 126.524 73.6721 126.66C72.8861 126.66 72.505 126.66 72.1477 126.66H32.2985V147.658C32.3051 147.902 32.2622 148.145 32.1723 148.371C32.0825 148.597 31.9476 148.803 31.776 148.975C31.6043 149.148 31.3995 149.283 31.174 149.373C30.9486 149.464 30.7071 149.507 30.4645 149.5Z" fill="#76388D"/>
<path d="M19.2696 149.5C18.7958 149.5 18.3414 149.311 18.0064 148.975C17.6714 148.638 17.4832 148.182 17.4832 147.706V126.181C17.4832 125.679 17.4832 125.177 17.4832 124.675C17.8293 122.102 18.8484 119.668 20.4367 117.619C22.1215 115.42 24.405 113.759 27.0107 112.836C28.3609 112.32 29.7837 112.021 31.2267 111.951H72.4812C72.4914 111.888 72.4914 111.823 72.4812 111.76V79.3528C72.4812 79.2093 72.4812 78.4918 72.4812 77.9896C72.4948 77.5639 72.5425 77.14 72.6241 76.722V76.4111C72.8228 75.3157 73.1507 74.2479 73.6007 73.2302C74.47 71.2146 75.7764 69.4193 77.4247 67.9753C79.073 66.5313 81.0216 65.4749 83.1282 64.8833C84.1843 64.5836 85.2713 64.4071 86.3676 64.3572H237.928C238.402 64.3572 238.856 64.5462 239.191 64.8825C239.526 65.2189 239.714 65.6752 239.714 66.1509C239.714 66.6266 239.526 67.0829 239.191 67.4193C238.856 67.7556 238.402 67.9447 237.928 67.9447H86.7725C85.9655 67.9862 85.1661 68.1227 84.3906 68.3512C82.8108 68.8047 81.3507 69.6039 80.1152 70.6915C78.8797 71.7791 77.8994 73.128 77.245 74.6413C76.9152 75.4079 76.6753 76.2106 76.5304 77.0329V77.3199C76.5304 77.6308 76.5304 77.9178 76.5304 78.2048C76.5304 78.4918 76.5304 79.1376 76.5304 79.305V112.262C76.5045 112.464 76.4647 112.664 76.4113 112.86C76.2887 113.347 76.0609 113.801 75.7439 114.189C75.4269 114.578 75.0286 114.892 74.5772 115.108C74.1643 115.325 73.7089 115.447 73.2434 115.467C72.8388 115.492 72.4331 115.492 72.0286 115.467H31.5602C30.4676 115.519 29.3902 115.745 28.3684 116.136C26.4676 116.843 24.7961 118.059 23.5362 119.653C22.2762 121.247 21.476 123.158 21.2227 125.177C21.2012 125.551 21.2012 125.927 21.2227 126.301V147.682C21.2311 147.936 21.185 148.188 21.0878 148.422C20.9906 148.656 20.8444 148.866 20.6592 149.039C20.474 149.211 20.2541 149.341 20.0143 149.421C19.7746 149.501 19.5206 149.528 19.2696 149.5ZM76.1969 112.023C76.1969 112.023 76.1969 112.238 76.1969 112.286C76.2076 112.199 76.2076 112.11 76.1969 112.023Z" fill="#76388D"/>
<path d="M57.4037 78.7549C56.9299 78.7549 56.4755 78.566 56.1405 78.2296C55.8055 77.8932 55.6173 77.4369 55.6173 76.9612V66.2227C55.6173 65.747 55.8055 65.2907 56.1405 64.9543C56.4755 64.6179 56.9299 64.429 57.4037 64.429C57.8775 64.429 58.3319 64.6179 58.6669 64.9543C59.002 65.2907 59.1902 65.747 59.1902 66.2227V76.9612C59.1934 77.1976 59.1493 77.4324 59.0607 77.6514C58.9721 77.8705 58.8406 78.0695 58.6741 78.2367C58.5075 78.4039 58.3093 78.5359 58.0912 78.6249C57.873 78.7139 57.6392 78.7582 57.4037 78.7549Z" fill="#76388D"/>
<path d="M57.4037 86.3125V90.6414C57.4611 91.6375 57.3729 92.6367 57.1417 93.607C57.0287 94.0423 56.8773 94.4665 56.6891 94.8746L57.4037 86.3125Z" fill="#76388D"/>
<path d="M56.6892 96.6684C56.3977 96.668 56.111 96.594 55.8555 96.4532C55.6506 96.3449 55.4689 96.1971 55.3208 96.0183C55.1728 95.8395 55.0613 95.6331 54.9927 95.411C54.9242 95.1889 54.8999 94.9554 54.9212 94.7238C54.9425 94.4923 55.0091 94.2672 55.1171 94.0615C55.2449 93.7676 55.3485 93.4636 55.4268 93.1527C55.6128 92.3701 55.6771 91.5634 55.6173 90.761V86.3843C55.6173 85.9086 55.8055 85.4523 56.1405 85.1159C56.4756 84.7795 56.9299 84.5906 57.4037 84.5906C57.8775 84.5906 58.3319 84.7795 58.6669 85.1159C59.002 85.4523 59.1902 85.9086 59.1902 86.3843V90.7132C59.2629 91.8875 59.1503 93.066 58.8567 94.205C58.7143 94.7508 58.5147 95.28 58.2612 95.7835C58.1008 96.0577 57.8707 96.2841 57.5945 96.4396C57.3182 96.5951 57.0058 96.6741 56.6892 96.6684Z" fill="#76388D"/>
<path d="M52.1636 98.8687C51.3941 99.1193 50.5906 99.2484 49.7817 99.2513H47.3998L52.1636 98.8687Z" fill="#76388D"/>
<path d="M49.9008 101.045H47.376C46.9022 101.045 46.4478 100.856 46.1128 100.52C45.7778 100.183 45.5895 99.7271 45.5895 99.2513C45.5895 98.7756 45.7778 98.3193 46.1128 97.9829C46.4478 97.6466 46.9022 97.4576 47.376 97.4576H49.7579C50.3711 97.4403 50.9795 97.3438 51.5681 97.1706C52.0112 97.0387 52.4879 97.0843 52.8981 97.2979C53.3084 97.5114 53.6203 97.8763 53.7683 98.3159C53.9163 98.7555 53.8888 99.2356 53.6918 99.6553C53.4947 100.075 53.1433 100.402 52.7114 100.567C51.8037 100.867 50.8563 101.028 49.9008 101.045Z" fill="#76388D"/>
<path d="M40.4684 99.2514H23.4141C14.9107 99.2514 6.31203 99.0123 6.45494 99.8254L40.4684 99.2514Z" fill="#76388D"/>
<path d="M6.45495 101.619C6.03085 101.619 5.62064 101.467 5.29772 101.191C4.97479 100.915 4.76021 100.533 4.69236 100.112C4.6544 99.8377 4.67285 99.558 4.74658 99.2906C4.82032 99.0233 4.94778 98.7739 5.1211 98.5578C6.0024 97.5294 7.2648 97.4099 17.2688 97.4577H40.4684C40.9422 97.4577 41.3966 97.6467 41.7316 97.9831C42.0667 98.3195 42.2549 98.7757 42.2549 99.2514C42.2549 99.7272 42.0667 100.183 41.7316 100.52C41.3966 100.856 40.9422 101.045 40.4684 101.045H17.2688C13.5292 101.045 8.95595 101.045 7.57445 101.237C7.33306 101.428 7.04539 101.552 6.74079 101.595L6.45495 101.619Z" fill="#76388D"/>
<path d="M1.78642 112.692C1.31263 112.692 0.858258 112.503 0.523239 112.167C0.18822 111.831 0 111.374 0 110.899V107.957C0 107.481 0.18822 107.025 0.523239 106.689C0.858258 106.352 1.31263 106.163 1.78642 106.163C2.26021 106.163 2.71459 106.352 3.04961 106.689C3.38463 107.025 3.57285 107.481 3.57285 107.957V110.899C3.56668 111.372 3.37648 111.825 3.04279 112.16C2.7091 112.495 2.25829 112.686 1.78642 112.692Z" fill="#76388D"/>
<path d="M1.7864 120.561C1.55092 120.564 1.31718 120.52 1.09899 120.431C0.880808 120.342 0.682605 120.21 0.516077 120.043C0.34955 119.876 0.218082 119.677 0.12944 119.457C0.0407989 119.238 -0.00322425 119.004 -1.99488e-05 118.767V115.849C-1.99488e-05 115.374 0.1882 114.917 0.523219 114.581C0.858238 114.245 1.31261 114.056 1.7864 114.056C2.26019 114.056 2.71457 114.245 3.04959 114.581C3.38461 114.917 3.57283 115.374 3.57283 115.849V118.767C3.57283 119.243 3.38461 119.699 3.04959 120.036C2.71457 120.372 2.26019 120.561 1.7864 120.561Z" fill="#76388D"/>
<path d="M1.78642 128.453C1.31263 128.453 0.858258 128.264 0.523239 127.928C0.18822 127.592 0 127.135 0 126.66V123.718C0 123.242 0.18822 122.786 0.523239 122.45C0.858258 122.113 1.31263 121.924 1.78642 121.924C2.26021 121.924 2.71459 122.113 3.04961 122.45C3.38463 122.786 3.57285 123.242 3.57285 123.718V126.66C3.56668 127.133 3.37648 127.586 3.04279 127.921C2.7091 128.256 2.25829 128.447 1.78642 128.453Z" fill="#76388D"/>
<path d="M1.7864 136.322C1.55092 136.325 1.31718 136.281 1.09899 136.192C0.880808 136.103 0.682605 135.971 0.516077 135.804C0.34955 135.637 0.218082 135.437 0.12944 135.218C0.0407989 134.999 -0.00322425 134.765 -1.99488e-05 134.528V131.61C-1.99488e-05 131.135 0.1882 130.678 0.523219 130.342C0.858238 130.006 1.31261 129.817 1.7864 129.817C2.26019 129.817 2.71457 130.006 3.04959 130.342C3.38461 130.678 3.57283 131.135 3.57283 131.61V134.528C3.57283 135.004 3.38461 135.46 3.04959 135.797C2.71457 136.133 2.26019 136.322 1.7864 136.322Z" fill="#76388D"/>
<path d="M150.512 30.0369C147.6 30.0369 144.753 29.1694 142.332 27.5443C139.91 25.9191 138.024 23.6094 136.91 20.9072C135.797 18.205 135.507 15.2319 136.077 12.3642C136.647 9.4964 138.051 6.86283 140.112 4.7967C142.173 2.73058 144.798 1.32478 147.655 0.757174C150.512 0.189572 153.472 0.485681 156.162 1.60804C158.851 2.73041 161.148 4.62857 162.763 7.06234C164.378 9.49611 165.237 12.3561 165.232 15.2804C165.226 19.1963 163.672 22.9496 160.912 25.7163C158.153 28.483 154.412 30.0369 150.512 30.0369ZM150.512 2.89166C148.072 2.89166 145.686 3.61824 143.657 4.97954C141.628 6.34083 140.047 8.2757 139.113 10.5394C138.179 12.8032 137.935 15.2942 138.411 17.6973C138.887 20.1005 140.062 22.308 141.788 24.0406C143.513 25.7732 145.712 26.9531 148.105 27.4311C150.498 27.9092 152.979 27.6638 155.234 26.7261C157.488 25.7885 159.415 24.2006 160.771 22.1632C162.127 20.1259 162.85 17.7307 162.85 15.2804C162.85 13.6535 162.531 12.0425 161.911 10.5394C161.291 9.03637 160.382 7.67063 159.237 6.52023C158.091 5.36982 156.731 4.45728 155.234 3.83469C153.737 3.2121 152.132 2.89166 150.512 2.89166Z" fill="#76388D"/>
<path d="M119.357 98.6773H107.805C107.331 98.6773 106.876 98.4884 106.541 98.152C106.206 97.8156 106.018 97.3593 106.018 96.8836C106.018 96.4079 106.206 95.9516 106.541 95.6152C106.876 95.2788 107.331 95.0898 107.805 95.0898H119.357C119.831 95.0898 120.285 95.2788 120.62 95.6152C120.955 95.9516 121.143 96.4079 121.143 96.8836C121.143 97.3593 120.955 97.8156 120.62 98.152C120.285 98.4884 119.831 98.6773 119.357 98.6773Z" fill="#76388D"/>
<path d="M138.341 98.6773H126.812C126.338 98.6773 125.884 98.4884 125.549 98.152C125.214 97.8156 125.026 97.3593 125.026 96.8836C125.026 96.4079 125.214 95.9516 125.549 95.6152C125.884 95.2788 126.338 95.0898 126.812 95.0898H138.341C138.814 95.0898 139.269 95.2788 139.604 95.6152C139.939 95.9516 140.127 96.4079 140.127 96.8836C140.127 97.3593 139.939 97.8156 139.604 98.152C139.269 98.4884 138.814 98.6773 138.341 98.6773Z" fill="#76388D"/>
<path d="M157.348 98.6773H145.82C145.346 98.6773 144.892 98.4884 144.557 98.152C144.222 97.8156 144.033 97.3593 144.033 96.8836C144.033 96.4079 144.222 95.9516 144.557 95.6152C144.892 95.2788 145.346 95.0898 145.82 95.0898H157.348C157.822 95.0898 158.276 95.2788 158.611 95.6152C158.946 95.9516 159.135 96.4079 159.135 96.8836C159.135 97.3593 158.946 97.8156 158.611 98.152C158.276 98.4884 157.822 98.6773 157.348 98.6773Z" fill="#76388D"/>
<path d="M176.356 98.6773H164.803C164.33 98.6773 163.875 98.4884 163.54 98.152C163.205 97.8156 163.017 97.3593 163.017 96.8836C163.017 96.4079 163.205 95.9516 163.54 95.6152C163.875 95.2788 164.33 95.0898 164.803 95.0898H176.356C176.829 95.0898 177.284 95.2788 177.619 95.6152C177.954 95.9516 178.142 96.4079 178.142 96.8836C178.142 97.3593 177.954 97.8156 177.619 98.152C177.284 98.4884 176.829 98.6773 176.356 98.6773Z" fill="#76388D"/>
</g>
<defs>
<clipPath id="clip0_157_1159">
<rect width="240" height="149" fill="white" transform="translate(0 0.5)"/>
</clipPath>
</defs>
</svg>
