<svg width="69" height="61" viewBox="0 0 69 61" fill="none" xmlns="http://www.w3.org/2000/svg">
<g clip-path="url(#clip0_157_1233)">
<path d="M67.2295 60.5H1.89699C1.39388 60.5 0.911361 60.3013 0.555606 59.9476C0.19985 59.5939 0 59.1142 0 58.614V2.386C0 1.8858 0.19985 1.40608 0.555606 1.05239C0.911361 0.698692 1.39388 0.5 1.89699 0.5H67.2295C67.7326 0.5 68.2151 0.698692 68.5709 1.05239C68.9266 1.40608 69.1265 1.8858 69.1265 2.386V58.614C69.1265 59.1142 68.9266 59.5939 68.5709 59.9476C68.2151 60.3013 67.7326 60.5 67.2295 60.5ZM3.99634 56.728H65.206V4.272H3.79399L3.99634 56.728Z" fill="#3EB073"/>
<path d="M49.246 47.2225H19.754C19.469 47.2253 19.187 47.1641 18.929 47.0436C18.671 46.9231 18.4437 46.7463 18.2639 46.5265C18.084 46.3066 17.9563 46.0493 17.8903 45.7736C17.8242 45.4979 17.8215 45.211 17.8824 44.9341L21.0693 30.2988V9.67848C21.0758 9.18031 21.2778 8.70437 21.6322 8.35208C21.9865 7.99979 22.4652 7.79899 22.9663 7.79248H46.0337C46.5348 7.79899 47.0135 7.99979 47.3679 8.35208C47.7222 8.70437 47.9242 9.18031 47.9307 9.67848V30.2988L51.1177 44.9341C51.1723 45.2098 51.1666 45.4939 51.1012 45.7673C51.0357 46.0406 50.9119 46.2967 50.7383 46.5184C50.5603 46.7414 50.3332 46.9209 50.0745 47.043C49.8158 47.165 49.5323 47.2265 49.246 47.2225ZM22.1063 43.4505H46.9949L44.2632 30.8772C44.2506 30.7433 44.2506 30.6086 44.2632 30.4748V11.5394H24.9898V30.4748C25.0145 30.6078 25.0145 30.7442 24.9898 30.8772L22.1063 43.4505Z" fill="#3EB073"/>
<path d="M46.0337 32.386H22.9663C22.4632 32.386 21.9806 32.1873 21.6249 31.8336C21.2691 31.4799 21.0693 31.0002 21.0693 30.5C21.0693 29.9998 21.2691 29.5201 21.6249 29.1664C21.9806 28.8127 22.4632 28.614 22.9663 28.614H46.0337C46.5368 28.614 47.0193 28.8127 47.3751 29.1664C47.7308 29.5201 47.9307 29.9998 47.9307 30.5C47.9307 31.0002 47.7308 31.4799 47.3751 31.8336C47.0193 32.1873 46.5368 32.386 46.0337 32.386Z" fill="#3EB073"/>
<path d="M49.246 55.0431H19.754C19.504 55.0465 19.2558 55.0001 19.0241 54.9065C18.7924 54.8129 18.5819 54.6741 18.4051 54.4983C18.2283 54.3225 18.0886 54.1132 17.9945 53.8829C17.9004 53.6525 17.8536 53.4058 17.857 53.1571V45.3366C17.857 44.8364 18.0569 44.3566 18.4127 44.0029C18.7684 43.6493 19.2509 43.4506 19.754 43.4506H49.246C49.7491 43.4506 50.2316 43.6493 50.5874 44.0029C50.9431 44.3566 51.143 44.8364 51.143 45.3366V53.1571C51.1464 53.4058 51.0996 53.6525 51.0055 53.8829C50.9114 54.1132 50.7718 54.3225 50.5949 54.4983C50.4181 54.6741 50.2076 54.8129 49.976 54.9065C49.7443 55.0001 49.496 55.0465 49.246 55.0431ZM21.7016 51.2711H47.3996V47.2226H21.7016V51.2711Z" fill="#3EB073"/>
</g>
<defs>
<clipPath id="clip0_157_1233">
<rect width="69" height="60" fill="white" transform="translate(0 0.5)"/>
</clipPath>
</defs>
</svg>
