<svg width="227" height="127" viewBox="0 0 227 127" fill="none" xmlns="http://www.w3.org/2000/svg">
<g clip-path="url(#clip0_157_1144)">
<path d="M74.8559 17.6131L225.295 17.6131C225.747 17.6131 226.181 17.7934 226.501 18.1143C226.82 18.4352 227 18.8705 227 19.3244C227 19.7783 226.82 20.2136 226.501 20.5345C226.181 20.8554 225.747 21.0357 225.295 21.0357L73.7193 21.0357C73.5378 21.0187 73.3552 21.0187 73.1737 21.0357L72.6054 21.0357C71.2372 21.2812 69.9362 21.8148 68.7882 22.6013C67.6403 23.3879 66.6713 24.4096 65.945 25.5992C65.1927 26.8057 64.7045 28.1591 64.5129 29.5694C64.406 30.9433 64.3681 32.3217 64.3992 33.6994L64.3992 57.0645C64.5073 63.3659 62.1699 69.4626 57.8811 74.0656C53.5923 78.6686 47.6884 81.4171 41.4174 81.7301L37.894 81.7301L23.3001 81.7301C21.1001 81.9003 19.0235 82.8177 17.4126 84.3313C15.8825 85.7087 14.8112 87.5248 14.3438 89.5337C14.2439 89.9924 14.1755 90.4574 14.1392 90.9255L14.1392 91.4732C14.1392 91.8383 14.1392 92.2034 14.1392 92.7738L14.1392 125.859C14.1392 126.313 13.9596 126.748 13.6398 127.069C13.3201 127.39 12.8865 127.57 12.4343 127.57C11.9821 127.57 11.5485 127.39 11.2287 127.069C10.909 126.748 10.7294 126.313 10.7294 125.859L10.7294 92.8422C10.7294 92.2034 10.7294 91.747 10.7294 91.3134L10.7294 90.8571C10.7841 90.1806 10.8905 89.5093 11.0476 88.8492C11.6918 86.06 13.2008 83.5478 15.3576 81.674C17.5143 79.8002 20.2077 78.6615 23.0501 78.4216L25.6869 78.4216L41.2582 78.4216C43.8592 78.2993 46.413 77.6798 48.7825 76.5962C53.7192 74.3497 57.5859 70.2556 59.5574 65.1875C60.5395 62.634 61.0256 59.9155 60.9894 57.1785L60.9894 33.9732C60.9412 32.4501 60.9944 30.9256 61.1486 29.4097C61.5737 26.5961 62.8618 23.9855 64.8336 21.9408C66.8055 19.8961 69.3631 18.5189 72.1508 18.0009L72.6054 18.0009C72.9738 17.9381 73.3459 17.9 73.7193 17.8869L74.8559 17.8869L74.8559 17.6131Z" fill="#4D4C4F"/>
<path d="M74.9014 6.91174L225.295 6.91175C225.747 6.91175 226.181 7.09204 226.501 7.41297C226.82 7.7339 227 8.16919 227 8.62306C227 9.07693 226.82 9.51221 226.501 9.83315C226.181 10.1541 225.747 10.3344 225.295 10.3344L75.0832 10.3344C74.5831 10.3344 73.7875 10.3344 73.1055 10.3344C72.5552 10.3397 72.0069 10.4008 71.4688 10.5169L70.7869 10.5169C66.4786 11.3012 62.5282 13.4347 59.5022 16.6115C56.4763 19.7882 54.5301 23.845 53.9426 28.2004C53.7502 29.9884 53.6818 31.7878 53.7381 33.5854L53.738 57.0645C53.7664 58.8874 53.4502 60.6992 52.806 62.4038C51.5216 65.7161 48.9903 68.3881 45.7592 69.8423C44.22 70.5461 42.5613 70.9489 40.8718 71.0288L37.894 71.0288L22.3908 71.0288C18.0356 71.4087 13.9102 73.1563 10.6008 76.0235C7.29137 78.8908 4.96612 82.7318 3.9553 87.001C3.73297 87.9698 3.58107 88.9536 3.5007 89.9445C3.5007 90.88 3.38704 91.9296 3.5007 92.5685L3.5007 125.654C3.5007 126.108 3.32109 126.543 3.00136 126.864C2.68163 127.185 2.24798 127.365 1.79581 127.365C1.34365 127.365 0.909993 127.185 0.590265 126.864C0.270537 126.543 0.0909254 126.108 0.0909255 125.654L0.0909283 92.8423C0.0909284 92.1578 0.0909285 91.0169 0.0909286 89.8988C0.192288 88.739 0.374568 87.5877 0.63647 86.4534C1.79492 81.4516 4.50216 76.9468 8.36965 73.5853C12.2371 70.2239 17.0661 68.1787 22.1635 67.7431L25.6869 67.7431L40.6899 67.7431C41.9622 67.6993 43.2135 67.4046 44.3725 66.876C46.7705 65.7664 48.6509 63.7727 49.6235 61.3086C50.1261 59.9916 50.3656 58.5883 50.3283 57.1786L50.3283 33.9276C50.2705 31.9776 50.3464 30.0259 50.5555 28.0863C51.2419 22.9905 53.5224 18.2449 57.0685 14.5337C60.6146 10.8226 65.2431 8.33746 70.2868 7.43656L70.9233 7.32243C71.571 7.22018 72.2235 7.15164 72.8782 7.11708L74.9014 6.91174Z" fill="#4D4C4F"/>
<path d="M24.6185 37.9206C24.6185 38.7618 24.2857 39.5685 23.6931 40.1633C23.1005 40.7581 22.2969 41.0923 21.4588 41.0923C20.6208 41.0923 19.8171 40.7581 19.2246 40.1633C18.632 39.5685 18.2991 38.7618 18.2991 37.9206C18.3051 37.0834 18.6406 36.2826 19.2326 35.6927C19.8245 35.1028 20.6248 34.7718 21.4588 34.7718C21.8727 34.7688 22.283 34.848 22.6663 35.0049C23.0495 35.1618 23.398 35.3933 23.6917 35.686C23.9854 35.9786 24.2185 36.3268 24.3776 36.7103C24.5367 37.0939 24.6185 37.5052 24.6185 37.9206Z" fill="#4D4C4F"/>
<path d="M24.6185 26.5119C24.6185 27.3531 24.2857 28.1598 23.6931 28.7546C23.1005 29.3494 22.2969 29.6836 21.4588 29.6836C20.6208 29.6836 19.8171 29.3494 19.2246 28.7546C18.632 28.1598 18.2991 27.3531 18.2991 26.5119C18.2991 25.6708 18.632 24.864 19.2246 24.2693C19.8171 23.6745 20.6208 23.3403 21.4588 23.3403C22.2969 23.3403 23.1005 23.6745 23.6931 24.2693C24.2857 24.864 24.6185 25.6708 24.6185 26.5119Z" fill="#4D4C4F"/>
<path d="M24.6185 15.1032C24.6185 15.5186 24.5367 15.9299 24.3776 16.3135C24.2185 16.697 23.9854 17.0452 23.6917 17.3378C23.398 17.6305 23.0495 17.862 22.6663 18.0189C22.283 18.1758 21.8727 18.255 21.4588 18.252C20.6248 18.252 19.8245 17.921 19.2326 17.3311C18.6406 16.7412 18.3051 15.9404 18.2991 15.1032C18.2991 14.262 18.632 13.4553 19.2246 12.8605C19.8171 12.2657 20.6208 11.9316 21.4588 11.9316C22.2969 11.9316 23.1005 12.2657 23.6931 12.8605C24.2857 13.4553 24.6185 14.262 24.6185 15.1032Z" fill="#4D4C4F"/>
<path d="M24.6185 3.6716C24.6185 4.51277 24.2857 5.31949 23.6931 5.91428C23.1005 6.50908 22.2969 6.84326 21.4588 6.84326C20.6208 6.84326 19.8171 6.50908 19.2246 5.91428C18.632 5.31949 18.2991 4.51277 18.2991 3.6716C18.3051 2.83439 18.6406 2.03355 19.2326 1.44368C19.8245 0.853812 20.6248 0.522828 21.4588 0.52285C21.8727 0.519839 22.283 0.599018 22.6663 0.755913C23.0495 0.912807 23.398 1.1443 23.6917 1.437C23.9854 1.72969 24.2185 2.07778 24.3776 2.4613C24.5367 2.84483 24.6185 3.25617 24.6185 3.6716Z" fill="#4D4C4F"/>
<path d="M47.8278 120.36L62.9444 120.36C63.3966 120.36 63.8302 120.54 64.15 120.861C64.4697 121.182 64.6493 121.618 64.6493 122.071C64.6493 122.525 64.4697 122.961 64.15 123.281C63.8302 123.602 63.3966 123.783 62.9444 123.783L49.5326 123.783L49.5326 136.789C49.5326 137.243 49.353 137.678 49.0333 137.999C48.7136 138.32 48.2799 138.5 47.8278 138.5C47.3756 138.5 46.9419 138.32 46.6222 137.999C46.3025 137.678 46.1229 137.243 46.1229 136.789L46.1229 122.071C46.1229 121.618 46.3025 121.182 46.6222 120.861C46.9419 120.54 47.3756 120.36 47.8278 120.36Z" fill="#4D4C4F"/>
<path d="M47.8278 105.643C48.2781 105.649 48.7084 105.831 49.0268 106.151C49.3453 106.47 49.5268 106.902 49.5327 107.354L49.5327 122.071C49.5327 122.525 49.3531 122.961 49.0333 123.281C48.7136 123.602 48.28 123.783 47.8278 123.783L32.7111 123.783C32.259 123.783 31.8253 123.602 31.5056 123.281C31.1859 122.961 31.0063 122.525 31.0063 122.071C31.0063 121.618 31.1859 121.182 31.5056 120.861C31.8253 120.54 32.259 120.36 32.7111 120.36L46.1229 120.36L46.1229 107.445C46.1106 107.213 46.1455 106.981 46.2256 106.762C46.3057 106.544 46.4294 106.345 46.589 106.176C46.7485 106.007 46.9406 105.873 47.1536 105.781C47.3666 105.69 47.596 105.643 47.8278 105.643Z" fill="#4D4C4F"/>
<path d="M184.469 45.1995L193.425 45.1995C193.877 45.1995 194.311 45.3797 194.631 45.7007C194.95 46.0216 195.13 46.4569 195.13 46.9108C195.13 47.3646 194.95 47.7999 194.631 48.1208C194.311 48.4418 193.877 48.6221 193.425 48.6221L184.469 48.6221C184.017 48.6221 183.583 48.4418 183.263 48.1208C182.943 47.7999 182.764 47.3646 182.764 46.9108C182.764 46.4569 182.943 46.0216 183.263 45.7007C183.583 45.3797 184.017 45.1995 184.469 45.1995Z" fill="#4D4C4F"/>
<path d="M169.739 45.1995L178.695 45.1995C179.147 45.1995 179.581 45.3797 179.9 45.7007C180.22 46.0216 180.4 46.4569 180.4 46.9108C180.4 47.3646 180.22 47.7999 179.9 48.1208C179.581 48.4418 179.147 48.6221 178.695 48.6221L169.739 48.6221C169.286 48.6221 168.853 48.4418 168.533 48.1208C168.213 47.7999 168.034 47.3646 168.034 46.9108C168.034 46.4569 168.213 46.0216 168.533 45.7007C168.853 45.3797 169.286 45.1995 169.739 45.1995Z" fill="#4D4C4F"/>
<path d="M155.008 45.1995L163.942 45.1995C164.394 45.1995 164.828 45.3797 165.147 45.7007C165.467 46.0216 165.647 46.4569 165.647 46.9108C165.647 47.3646 165.467 47.7999 165.147 48.1208C164.828 48.4418 164.394 48.6221 163.942 48.6221L155.008 48.6221C154.556 48.6221 154.122 48.4418 153.803 48.1208C153.483 47.7999 153.303 47.3646 153.303 46.9108C153.303 46.4569 153.483 46.0216 153.803 45.7007C154.122 45.3797 154.556 45.1995 155.008 45.1995Z" fill="#4D4C4F"/>
<path d="M140.255 45.1995L149.212 45.1995C149.664 45.1995 150.097 45.3797 150.417 45.7007C150.737 46.0216 150.917 46.4569 150.917 46.9108C150.917 47.3646 150.737 47.7999 150.417 48.1208C150.097 48.4418 149.664 48.6221 149.212 48.6221L140.255 48.6221C139.803 48.6221 139.37 48.4418 139.05 48.1208C138.73 47.7999 138.551 47.3646 138.551 46.9108C138.551 46.4569 138.73 46.0216 139.05 45.7007C139.37 45.3797 139.803 45.1995 140.255 45.1995Z" fill="#4D4C4F"/>
<path d="M125.525 45.1995L134.482 45.1995C134.934 45.1995 135.367 45.3797 135.687 45.7007C136.007 46.0216 136.186 46.4569 136.186 46.9108C136.186 47.3646 136.007 47.7999 135.687 48.1208C135.367 48.4418 134.934 48.6221 134.482 48.6221L125.525 48.6221C125.073 48.6221 124.639 48.4418 124.32 48.1208C124 47.7999 123.82 47.3646 123.82 46.9108C123.82 46.4569 124 46.0216 124.32 45.7007C124.639 45.3797 125.073 45.1995 125.525 45.1995Z" fill="#4D4C4F"/>
<path d="M110.772 45.1995L119.729 45.1995C120.181 45.1995 120.614 45.3797 120.934 45.7007C121.254 46.0216 121.433 46.4569 121.433 46.9108C121.433 47.3646 121.254 47.7999 120.934 48.1208C120.614 48.4418 120.181 48.6221 119.729 48.6221L110.772 48.6221C110.32 48.6221 109.886 48.4418 109.567 48.1208C109.247 47.7999 109.067 47.3646 109.067 46.9108C109.067 46.4569 109.247 46.0216 109.567 45.7007C109.886 45.3797 110.32 45.1995 110.772 45.1995Z" fill="#4D4C4F"/>
</g>
<defs>
<clipPath id="clip0_157_1144">
<rect width="227" height="138" fill="white" transform="translate(227 138.5) rotate(-180)"/>
</clipPath>
</defs>
</svg>
