<svg width="187" height="20" viewBox="0 0 187 20" fill="none" xmlns="http://www.w3.org/2000/svg">
<path fill-rule="evenodd" clip-rule="evenodd" d="M19.7169 1.06583C19.4108 1.06583 19.1626 1.31398 19.1626 1.6201V18.3799C19.1626 18.686 19.4108 18.9342 19.7169 18.9342H31.5557C31.8618 18.9342 32.11 18.686 32.11 18.3799V15.0042C32.11 14.6981 31.8618 14.4499 31.5557 14.4499H24.4552V12.1114H31.0089C31.3151 12.1114 31.5632 11.8632 31.5632 11.5571V8.18139C31.5632 7.87527 31.3151 7.62711 31.0089 7.62711H24.4552V5.55011H31.5557C31.8618 5.55011 32.11 5.30196 32.11 4.99584V1.6201C32.11 1.31398 31.8618 1.06583 31.5557 1.06583H19.7169Z" fill="white"/>
<path fill-rule="evenodd" clip-rule="evenodd" d="M43.727 0.804321C41.802 0.804321 40.1151 1.17472 38.687 1.93979C37.2629 2.70266 36.162 3.78529 35.3961 5.18085L35.3961 5.18085L35.395 5.18294C34.6457 6.56222 34.2817 8.17019 34.2817 9.98812C34.2817 11.8063 34.6458 13.4209 35.3936 14.8146L35.3961 14.8191C36.162 16.2147 37.2629 17.2973 38.687 18.0602C40.1151 18.8253 41.802 19.1957 43.727 19.1957C44.8928 19.1957 46.0202 19.0207 47.1068 18.6696L47.1141 18.6672C48.194 18.3017 49.0954 17.8186 49.7975 17.2043C49.9718 17.0518 50.0329 16.8071 49.9507 16.5906L48.6432 13.1435C48.582 12.982 48.4489 12.8583 48.2834 12.8089C48.1178 12.7595 47.9387 12.7902 47.799 12.8918C47.1388 13.372 46.4886 13.7251 45.8488 13.9583C45.2102 14.1755 44.5591 14.2835 43.8934 14.2835C42.5237 14.2835 41.5867 13.9038 40.9782 13.2319C40.3546 12.5274 40.0022 11.474 40.0022 9.98812C40.0022 8.5176 40.3547 7.48174 40.9765 6.79386L40.98 6.78995C41.5892 6.10294 42.5255 5.71652 43.8934 5.71652C44.5567 5.71652 45.2059 5.83161 45.8436 6.06351L45.8541 6.06723C46.4908 6.28428 47.1391 6.6283 47.799 7.10819C47.9387 7.2098 48.1178 7.24046 48.2834 7.1911C48.4489 7.14175 48.582 7.01803 48.6432 6.8565L49.9507 3.40945C50.0329 3.19295 49.9718 2.94822 49.7975 2.79574C49.094 2.18015 48.191 1.70488 47.1104 1.35535C46.023 0.987738 44.8943 0.804321 43.727 0.804321Z" fill="white"/>
<path fill-rule="evenodd" clip-rule="evenodd" d="M52.5933 1.06583C52.2872 1.06583 52.0391 1.31398 52.0391 1.6201V18.3799C52.0391 18.686 52.2872 18.9342 52.5933 18.9342H56.9675C57.2736 18.9342 57.5218 18.686 57.5218 18.3799V12.2303H63.3311V18.3799C63.3311 18.686 63.5793 18.9342 63.8854 18.9342H68.2358C68.5419 18.9342 68.7901 18.686 68.7901 18.3799V1.6201C68.7901 1.31398 68.5419 1.06583 68.2358 1.06583H63.8854C63.5793 1.06583 63.3311 1.31398 63.3311 1.6201V7.53202H57.5218V1.6201C57.5218 1.31398 57.2736 1.06583 56.9675 1.06583H52.5933Z" fill="white"/>
<path fill-rule="evenodd" clip-rule="evenodd" d="M72.3209 1.06583C72.0148 1.06583 71.7666 1.31398 71.7666 1.6201V18.3799C71.7666 18.686 72.0148 18.9342 72.3209 18.9342H76.2672C76.5733 18.9342 76.8214 18.686 76.8214 18.3799V11.436L79.5672 16.185C79.6662 16.3563 79.8491 16.4618 80.047 16.4618H82.4243C82.6224 16.4618 82.8054 16.3561 82.9044 16.1846L85.6975 11.3444V18.3799C85.6975 18.686 85.9456 18.9342 86.2517 18.9342H90.198C90.5041 18.9342 90.7523 18.686 90.7523 18.3799V1.6201C90.7523 1.31398 90.5041 1.06583 90.198 1.06583H86.6559C86.4548 1.06583 86.2695 1.17473 86.1716 1.35041L81.307 10.0851L76.4424 1.35041C76.3445 1.17473 76.1592 1.06583 75.9581 1.06583H72.3209Z" fill="white"/>
<path fill-rule="evenodd" clip-rule="evenodd" d="M102.335 0.804321C100.56 0.804321 98.975 1.17827 97.597 1.94385C96.221 2.70828 95.1478 3.79059 94.3849 5.18085L94.3849 5.18085L94.3837 5.18294C93.6345 6.56222 93.2705 8.17019 93.2705 9.98812C93.2705 11.7933 93.6437 13.4015 94.4086 14.7954C95.1701 16.1828 96.2326 17.2717 97.5899 18.0521L97.597 18.0562C98.975 18.8217 100.56 19.1957 102.335 19.1957C104.111 19.1957 105.689 18.8218 107.053 18.0547L107.055 18.0536C108.428 17.2736 109.5 16.1846 110.262 14.7954C111.027 13.4015 111.4 11.7933 111.4 9.98812C111.4 8.16873 111.028 6.55945 110.261 5.17948C109.499 3.79031 108.426 2.7087 107.051 1.94456C105.688 1.17797 104.11 0.804321 102.335 0.804321ZM99.8442 6.67336C100.423 5.9503 101.229 5.57388 102.335 5.57388C103.442 5.57388 104.248 5.9503 104.827 6.67336C105.419 7.41369 105.751 8.49484 105.751 9.98812C105.751 11.4781 105.413 12.568 104.804 13.3257L104.803 13.3266C104.223 14.0515 103.424 14.4261 102.335 14.4261C101.23 14.4261 100.424 14.0504 99.8457 13.3286C99.2511 12.5706 98.9197 11.4794 98.9197 9.98812C98.9197 8.49484 99.2519 7.41369 99.8442 6.67336Z" fill="white"/>
<path fill-rule="evenodd" clip-rule="evenodd" d="M114.45 1.06583C114.144 1.06583 113.896 1.31398 113.896 1.6201V18.3799C113.896 18.686 114.144 18.9342 114.45 18.9342H121.392C124.383 18.9342 126.783 18.1814 128.517 16.6026L128.519 16.6006C130.258 14.9988 131.099 12.7683 131.099 9.98812C131.099 7.20822 130.258 4.98399 128.517 3.39743C126.783 1.81863 124.383 1.06583 121.392 1.06583H114.45ZM119.379 14.2835V5.71652H121.107C122.676 5.71652 123.738 6.09419 124.403 6.74668C125.066 7.39616 125.45 8.43835 125.45 9.98812C125.45 11.5369 125.066 12.5904 124.399 13.2572C123.752 13.9045 122.694 14.2835 121.107 14.2835H119.379Z" fill="white"/>
<path fill-rule="evenodd" clip-rule="evenodd" d="M134.12 1.06583C133.814 1.06583 133.565 1.31398 133.565 1.6201V18.3799C133.565 18.686 133.814 18.9342 134.12 18.9342H145.959C146.265 18.9342 146.513 18.686 146.513 18.3799V15.0042C146.513 14.6981 146.265 14.4499 145.959 14.4499H138.858V12.1114H145.412C145.718 12.1114 145.966 11.8632 145.966 11.5571V8.18139C145.966 7.87527 145.718 7.62711 145.412 7.62711H138.858V5.55011H145.959C146.265 5.55011 146.513 5.30196 146.513 4.99584V1.6201C146.513 1.31398 146.265 1.06583 145.959 1.06583H134.12Z" fill="white"/>
<path fill-rule="evenodd" clip-rule="evenodd" d="M149.697 1.06583C149.391 1.06583 149.143 1.31398 149.143 1.6201V18.3799C149.143 18.686 149.391 18.9342 149.697 18.9342H153.644C153.95 18.9342 154.198 18.686 154.198 18.3799V11.436L156.944 16.185C157.043 16.3563 157.226 16.4618 157.423 16.4618H159.801C159.999 16.4618 160.182 16.3561 160.281 16.1846L163.074 11.3444V18.3799C163.074 18.686 163.322 18.9342 163.628 18.9342H167.574C167.881 18.9342 168.129 18.686 168.129 18.3799V1.6201C168.129 1.31398 167.881 1.06583 167.574 1.06583H164.032C163.831 1.06583 163.646 1.17473 163.548 1.35041L158.683 10.0851L153.819 1.35041C153.721 1.17473 153.536 1.06583 153.335 1.06583H149.697Z" fill="white"/>
<path fill-rule="evenodd" clip-rule="evenodd" d="M169.176 1.06583C168.97 1.06583 168.781 1.18004 168.685 1.3624C168.589 1.54476 168.603 1.76519 168.72 1.93476L175.064 11.1354V18.3799C175.064 18.686 175.312 18.9342 175.618 18.9342H179.992C180.299 18.9342 180.547 18.686 180.547 18.3799V11.1354L186.891 1.93476C187.008 1.76519 187.021 1.54476 186.926 1.3624C186.83 1.18004 186.641 1.06583 186.435 1.06583H181.561C181.378 1.06583 181.206 1.15708 181.102 1.30942L177.877 6.07522L174.651 1.30942C174.548 1.15708 174.376 1.06583 174.192 1.06583H169.176Z" fill="white"/>
<path fill-rule="evenodd" clip-rule="evenodd" d="M0.554276 0.864777C0.248158 0.864777 0 1.11293 0 1.41905V4.98497C0 5.29109 0.248158 5.53925 0.554276 5.53925H5.3251V18.1789C5.3251 18.485 5.57326 18.7331 5.87938 18.7331H10.2536C10.5597 18.7331 10.8078 18.485 10.8078 18.1789V5.53925H15.5787C15.8848 5.53925 16.1329 5.29109 16.1329 4.98497V1.41905C16.1329 1.11293 15.8848 0.864777 15.5787 0.864777H0.554276Z" fill="white"/>
</svg>
