<svg width="96" height="97" viewBox="0 0 96 97" fill="none" xmlns="http://www.w3.org/2000/svg">
<g clip-path="url(#clip0_157_1758)">
<rect y="0.5" width="96" height="96" rx="48" fill="#3EB073"/>
<path d="M26.5013 83.0676C26.5013 76.0567 32.1847 70.3733 39.1956 70.3733H55.1937C62.0557 70.3733 67.7153 75.7482 68.0692 82.601V82.601C68.4565 90.0993 62.3799 96.341 54.8739 96.1548L38.8808 95.7581C31.9947 95.5872 26.5013 89.9559 26.5013 83.0676V83.0676Z" fill="#C9C9C9"/>
<rect x="38.5167" y="64.5054" width="12.8538" height="5.86803" fill="#D9D9D9"/>
<path d="M25.4118 83.067C25.4118 76.0614 31.091 70.3823 38.0965 70.3823H55.5572C62.4108 70.3823 68.0667 75.7439 68.4327 82.5877V82.5877C68.8339 90.0908 62.7601 96.3462 55.2484 96.1663L37.7927 95.748C30.9075 95.583 25.4118 89.9542 25.4118 83.067V83.067Z" fill="#F2F2F2"/>
<rect x="67.0184" y="39.3567" width="14.8098" height="10.4752" rx="5.2376" fill="#D9D9D9"/>
<rect x="14.2063" y="39.3567" width="14.8098" height="10.4752" rx="5.2376" fill="#D9D9D9"/>
<rect x="52.0955" y="24.2032" width="14.8098" height="10.4752" rx="5.2376" transform="rotate(85.8934 52.0955 24.2032)" fill="#D9D9D9"/>
<path d="M17.5593 46.6263C17.5593 36.2048 25.7128 27.6048 36.1195 27.0497L56.636 25.9553C68.1949 25.3387 77.9538 34.4451 78.1374 46.0189V46.0189C78.3215 57.626 68.8034 67.0509 57.1986 66.7524L36.6597 66.2242C26.0324 65.9509 17.5593 57.2572 17.5593 46.6263V46.6263Z" fill="#D9D9D9"/>
<path d="M16.949 47.0723C16.5589 35.5028 25.832 25.9117 37.408 25.9117H57.1766C68.4822 25.9117 77.6472 35.0767 77.6472 46.3823V46.3823C77.6472 57.6879 68.4822 66.8529 57.1766 66.8529H37.408C26.371 66.8529 17.321 58.103 16.949 47.0723V47.0723Z" fill="#F2F2F2"/>
<path d="M25.412 46.3823C25.412 39.365 31.1006 33.6764 38.1179 33.6764H56.918C63.8354 33.6764 69.4818 39.2101 69.6213 46.1262V46.1262C69.7647 53.2422 64.0355 59.0882 56.918 59.0882H38.1179C31.1006 59.0882 25.412 53.3995 25.412 46.3823V46.3823Z" fill="#455A64"/>
<rect x="46.3554" y="19.5295" width="1.11772" height="5.58859" fill="#D9D9D9"/>
<ellipse cx="46.7746" cy="19.1104" rx="2.37515" ry="2.37515" fill="#D9D9D9"/>
<circle cx="36.3531" cy="46.0293" r="2.47059" fill="#15FF57"/>
<circle cx="57.5296" cy="46.0293" r="2.47059" fill="#15FF57"/>
</g>
<defs>
<clipPath id="clip0_157_1758">
<rect y="0.5" width="96" height="96" rx="48" fill="white"/>
</clipPath>
</defs>
</svg>
