<svg width="138" height="221" viewBox="0 0 138 221" fill="none" xmlns="http://www.w3.org/2000/svg">
<g clip-path="url(#clip0_129_1500)">
<path d="M17.113 146.144L17.113 -4.29511C17.113 -4.74728 17.2933 -5.18093 17.6142 -5.50066C17.9351 -5.82039 18.3704 -6 18.8243 -6C19.2781 -6 19.7134 -5.82039 20.0344 -5.50066C20.3553 -5.18093 20.5356 -4.74728 20.5356 -4.29511L20.5356 147.281C20.5186 147.462 20.5186 147.645 20.5356 147.826V148.395C20.7811 149.763 21.3147 151.064 22.1012 152.212C22.8878 153.36 23.9095 154.329 25.0991 155.055C26.3056 155.807 27.6589 156.295 29.0693 156.487C30.4432 156.594 31.8216 156.632 33.1992 156.601H56.5644C62.8658 156.493 68.9625 158.83 73.5655 163.119C78.1685 167.408 80.917 173.312 81.23 179.583V183.106V197.7C81.4002 199.9 82.3176 201.976 83.8312 203.587C85.2086 205.117 87.0247 206.189 89.0336 206.656C89.4923 206.756 89.9573 206.824 90.4254 206.861H90.9731C91.3382 206.861 91.7033 206.861 92.2737 206.861H125.359C125.813 206.861 126.248 207.04 126.569 207.36C126.89 207.68 127.07 208.113 127.07 208.566C127.07 209.018 126.89 209.451 126.569 209.771C126.248 210.091 125.813 210.271 125.359 210.271H92.3421C91.7032 210.271 91.2469 210.271 90.8133 210.271H90.357C89.6805 210.216 89.0092 210.109 88.3491 209.952C85.5599 209.308 83.0477 207.799 81.1739 205.642C79.3001 203.486 78.1614 200.792 77.9215 197.95V195.313V179.742C77.7992 177.141 77.1797 174.587 76.0961 172.217C73.8496 167.281 69.7555 163.414 64.6874 161.443C62.1339 160.46 59.4153 159.974 56.6784 160.011H33.4731C31.95 160.059 30.4255 160.006 28.9096 159.851C26.096 159.426 23.4854 158.138 21.4407 156.166C19.396 154.194 18.0188 151.637 17.5008 148.849V148.395C17.4379 148.026 17.3999 147.654 17.3868 147.281V146.144H17.113Z" fill="#4D4C4F"/>
<path d="M6.41187 146.099L6.41187 -4.29511C6.41187 -4.74728 6.59216 -5.18093 6.91309 -5.50066C7.23402 -5.82039 7.66931 -6 8.12318 -6C8.57705 -6 9.01234 -5.82039 9.33327 -5.50066C9.65421 -5.18093 9.83449 -4.74728 9.83449 -4.29511L9.83449 145.917C9.83449 146.417 9.83449 147.212 9.83449 147.894C9.83979 148.445 9.90092 148.993 10.017 149.531V150.213C10.8013 154.521 12.9349 158.472 16.1116 161.498C19.2883 164.524 23.3451 166.47 27.7005 167.057C29.4886 167.25 31.2879 167.318 33.0855 167.262H56.5647C58.3876 167.234 60.1993 167.55 61.904 168.194C65.2163 169.478 67.8882 172.01 69.3424 175.241C70.0463 176.78 70.449 178.439 70.5289 180.128V183.106V198.609C70.9088 202.964 72.6565 207.09 75.5237 210.399C78.3909 213.709 82.2319 216.034 86.5011 217.045C87.47 217.267 88.4537 217.419 89.4446 217.499C90.3801 217.499 91.4297 217.613 92.0686 217.499H125.154C125.608 217.499 126.043 217.679 126.364 217.999C126.685 218.318 126.865 218.752 126.865 219.204C126.865 219.656 126.685 220.09 126.364 220.41C126.043 220.729 125.608 220.909 125.154 220.909H92.3424C91.6579 220.909 90.517 220.909 89.399 220.909C88.2391 220.808 87.0878 220.625 85.9535 220.363C80.9518 219.205 76.4469 216.498 73.0855 212.63C69.724 208.763 67.6788 203.934 67.2432 198.836V195.313V180.31C67.1994 179.038 66.9048 177.786 66.3762 176.627C65.2666 174.229 63.2729 172.349 60.8087 171.376C59.4918 170.874 58.0885 170.634 56.6787 170.672H33.4277C31.4777 170.729 29.526 170.654 27.5865 170.444C22.4906 169.758 17.745 167.478 14.0339 163.931C10.3227 160.385 7.83759 155.757 6.9367 150.713L6.82257 150.077C6.72031 149.429 6.65178 148.776 6.61722 148.122L6.41187 146.099Z" fill="#4D4C4F"/>
<path d="M37.4206 196.381C38.2618 196.381 39.0685 196.714 39.6633 197.307C40.2581 197.899 40.5923 198.703 40.5923 199.541C40.5923 200.379 40.2581 201.183 39.6633 201.775C39.0685 202.368 38.2618 202.701 37.4206 202.701C36.5834 202.695 35.7826 202.359 35.1927 201.767C34.6028 201.175 34.2718 200.375 34.2718 199.541C34.2688 199.127 34.348 198.717 34.5049 198.334C34.6618 197.95 34.8933 197.602 35.186 197.308C35.4786 197.014 35.8268 196.781 36.2103 196.622C36.5939 196.463 37.0052 196.381 37.4206 196.381Z" fill="#4D4C4F"/>
<path d="M26.0119 196.381C26.8531 196.381 27.6598 196.714 28.2546 197.307C28.8494 197.899 29.1836 198.703 29.1836 199.541C29.1836 200.379 28.8494 201.183 28.2546 201.775C27.6598 202.368 26.8531 202.701 26.0119 202.701C25.1708 202.701 24.364 202.368 23.7693 201.775C23.1745 201.183 22.8403 200.379 22.8403 199.541C22.8403 198.703 23.1745 197.899 23.7693 197.307C24.364 196.714 25.1708 196.381 26.0119 196.381Z" fill="#4D4C4F"/>
<path d="M14.603 196.381C15.0185 196.381 15.4298 196.463 15.8133 196.622C16.1969 196.781 16.545 197.014 16.8377 197.308C17.1304 197.602 17.3618 197.95 17.5187 198.334C17.6756 198.717 17.7549 199.127 17.7519 199.541C17.7519 200.375 17.4208 201.175 16.831 201.767C16.2411 202.359 15.4403 202.695 14.603 202.701C13.7619 202.701 12.9552 202.368 12.3604 201.775C11.7656 201.183 11.4315 200.379 11.4315 199.541C11.4315 198.703 11.7656 197.899 12.3604 197.307C12.9552 196.714 13.7619 196.381 14.603 196.381Z" fill="#4D4C4F"/>
<path d="M3.1716 196.381C4.01277 196.381 4.81949 196.714 5.41428 197.307C6.00908 197.899 6.34326 198.703 6.34326 199.541C6.34326 200.379 6.00908 201.183 5.41428 201.775C4.81949 202.368 4.01277 202.701 3.1716 202.701C2.33439 202.695 1.53355 202.359 0.943682 201.767C0.353812 201.175 0.0228281 200.375 0.02285 199.541C0.0198398 199.127 0.0990186 198.717 0.255913 198.334C0.412807 197.95 0.644303 197.602 0.936997 197.308C1.22969 197.014 1.57778 196.781 1.9613 196.622C2.34483 196.463 2.75617 196.381 3.1716 196.381Z" fill="#4D4C4F"/>
<path d="M119.86 173.172V158.055C119.86 157.603 120.04 157.17 120.361 156.85C120.682 156.53 121.118 156.351 121.571 156.351C122.025 156.351 122.461 156.53 122.781 156.85C123.102 157.17 123.283 157.603 123.283 158.055V171.467H136.289C136.743 171.467 137.178 171.647 137.499 171.967C137.82 172.286 138 172.72 138 173.172C138 173.624 137.82 174.058 137.499 174.378C137.178 174.697 136.743 174.877 136.289 174.877H121.571C121.118 174.877 120.682 174.697 120.361 174.378C120.04 174.058 119.86 173.624 119.86 173.172Z" fill="#4D4C4F"/>
<path d="M105.143 173.172C105.149 172.722 105.331 172.292 105.651 171.973C105.97 171.655 106.402 171.473 106.854 171.467H121.571C122.025 171.467 122.461 171.647 122.781 171.967C123.102 172.286 123.283 172.72 123.283 173.172V188.289C123.283 188.741 123.102 189.175 122.781 189.494C122.461 189.814 122.025 189.994 121.571 189.994C121.118 189.994 120.682 189.814 120.361 189.494C120.04 189.175 119.86 188.741 119.86 188.289V174.877H106.945C106.713 174.889 106.481 174.855 106.262 174.774C106.044 174.694 105.845 174.571 105.676 174.411C105.507 174.251 105.373 174.059 105.281 173.846C105.19 173.633 105.143 173.404 105.143 173.172Z" fill="#4D4C4F"/>
<path d="M44.6995 36.5313V27.575C44.6995 27.1228 44.8797 26.6892 45.2007 26.3695C45.5216 26.0497 45.9569 25.8701 46.4108 25.8701C46.8646 25.8701 47.2999 26.0497 47.6208 26.3695C47.9418 26.6892 48.1221 27.1228 48.1221 27.575V36.5313C48.1221 36.9835 47.9418 37.4172 47.6208 37.7369C47.2999 38.0566 46.8646 38.2362 46.4108 38.2362C45.9569 38.2362 45.5216 38.0566 45.2007 37.7369C44.8797 37.4172 44.6995 36.9835 44.6995 36.5313Z" fill="#4D4C4F"/>
<path d="M44.6995 51.2615V42.3052C44.6995 41.8531 44.8797 41.4194 45.2007 41.0997C45.5216 40.78 45.9569 40.6003 46.4108 40.6003C46.8646 40.6003 47.2999 40.78 47.6208 41.0997C47.9418 41.4194 48.1221 41.8531 48.1221 42.3052V51.2615C48.1221 51.7137 47.9418 52.1473 47.6208 52.4671C47.2999 52.7868 46.8646 52.9664 46.4108 52.9664C45.9569 52.9664 45.5216 52.7868 45.2007 52.4671C44.8797 52.1473 44.6995 51.7137 44.6995 51.2615Z" fill="#4D4C4F"/>
<path d="M44.6995 65.9917V57.0582C44.6995 56.606 44.8797 56.1723 45.2007 55.8526C45.5216 55.5329 45.9569 55.3533 46.4108 55.3533C46.8646 55.3533 47.2999 55.5329 47.6208 55.8526C47.9418 56.1723 48.1221 56.606 48.1221 57.0582V65.9917C48.1221 66.4439 47.9418 66.8776 47.6208 67.1973C47.2999 67.517 46.8646 67.6966 46.4108 67.6966C45.9569 67.6966 45.5216 67.517 45.2007 67.1973C44.8797 66.8776 44.6995 66.4439 44.6995 65.9917Z" fill="#4D4C4F"/>
<path d="M44.6995 80.7447V71.7884C44.6995 71.3362 44.8797 70.9026 45.2007 70.5829C45.5216 70.2632 45.9569 70.0835 46.4108 70.0835C46.8646 70.0835 47.2999 70.2632 47.6208 70.5829C47.9418 70.9026 48.1221 71.3362 48.1221 71.7884V80.7447C48.1221 81.1969 47.9418 81.6305 47.6208 81.9503C47.2999 82.27 46.8646 82.4496 46.4108 82.4496C45.9569 82.4496 45.5216 82.27 45.2007 81.9503C44.8797 81.6305 44.6995 81.1969 44.6995 80.7447Z" fill="#4D4C4F"/>
<path d="M44.6995 95.475V86.5186C44.6995 86.0664 44.8797 85.6328 45.2007 85.3131C45.5216 84.9933 45.9569 84.8137 46.4108 84.8137C46.8646 84.8137 47.2999 84.9933 47.6208 85.3131C47.9418 85.6328 48.1221 86.0664 48.1221 86.5186V95.475C48.1221 95.9271 47.9418 96.3608 47.6208 96.6805C47.2999 97.0002 46.8646 97.1798 46.4108 97.1798C45.9569 97.1798 45.5216 97.0002 45.2007 96.6805C44.8797 96.3608 44.6995 95.9271 44.6995 95.475Z" fill="#4D4C4F"/>
<path d="M44.6995 110.228V101.272C44.6995 100.819 44.8797 100.386 45.2007 100.066C45.5216 99.7463 45.9569 99.5667 46.4108 99.5667C46.8646 99.5667 47.2999 99.7463 47.6208 100.066C47.9418 100.386 48.1221 100.819 48.1221 101.272V110.228C48.1221 110.68 47.9418 111.114 47.6208 111.433C47.2999 111.753 46.8646 111.933 46.4108 111.933C45.9569 111.933 45.5216 111.753 45.2007 111.433C44.8797 111.114 44.6995 110.68 44.6995 110.228Z" fill="#4D4C4F"/>
</g>
<defs>
<clipPath id="clip0_129_1500">
<rect width="227" height="138" fill="white" transform="matrix(0 1 -1 0 138 -6)"/>
</clipPath>
</defs>
</svg>
