<svg width="152" height="244" viewBox="0 0 152 244" fill="none" xmlns="http://www.w3.org/2000/svg">
<g clip-path="url(#clip0_147_1399)">
<path d="M101.616 171.419C101.615 167.766 102.995 164.246 105.48 161.561C102.993 158.876 101.613 155.356 101.613 151.703C101.613 148.049 102.993 144.529 105.48 141.844C104.035 140.291 102.948 138.442 102.296 136.426C101.644 134.41 101.441 132.276 101.703 130.174C101.964 128.072 102.684 126.053 103.81 124.257C104.937 122.461 106.444 120.932 108.225 119.778C108.497 119.601 108.827 119.538 109.145 119.601C109.463 119.665 109.744 119.85 109.926 120.117C110.1 120.387 110.159 120.715 110.091 121.028C110.022 121.341 109.832 121.615 109.562 121.788C107.997 122.799 106.687 124.154 105.732 125.75C104.777 127.346 104.204 129.139 104.056 130.992C103.908 132.844 104.189 134.706 104.879 136.432C105.568 138.158 106.647 139.704 108.031 140.948C108.154 141.063 108.251 141.202 108.318 141.356C108.385 141.51 108.42 141.676 108.42 141.844C108.418 142.012 108.383 142.177 108.316 142.331C108.249 142.485 108.152 142.624 108.031 142.74C106.778 143.876 105.777 145.259 105.092 146.803C104.407 148.346 104.054 150.015 104.054 151.703C104.054 153.39 104.407 155.059 105.092 156.603C105.777 158.146 106.778 159.53 108.031 160.665C108.266 160.904 108.397 161.226 108.397 161.561C108.397 161.896 108.266 162.217 108.031 162.457C106.778 163.592 105.777 164.976 105.092 166.519C104.407 168.063 104.054 169.732 104.054 171.419C104.054 173.107 104.407 174.776 105.092 176.319C105.777 177.863 106.778 179.246 108.031 180.381C108.255 180.612 108.381 180.92 108.381 181.241C108.381 181.562 108.255 181.871 108.031 182.101C107.918 182.215 107.784 182.305 107.636 182.366C107.488 182.428 107.329 182.459 107.168 182.459C107.008 182.459 106.849 182.428 106.701 182.366C106.553 182.305 106.419 182.215 106.306 182.101C104.827 180.74 103.646 179.088 102.839 177.25C102.032 175.411 101.616 173.426 101.616 171.419Z" fill="#3EB073"/>
<path d="M0.000170479 30.9797C0.000170479 30.4979 0.192164 30.0358 0.53393 29.6951C0.875689 29.3544 1.33924 29.163 1.82256 29.163H23.2295C23.3101 29.1511 23.392 29.1511 23.4725 29.163C23.5532 29.1523 23.6349 29.1523 23.7155 29.163C24.3774 29.2543 25 29.5301 25.5115 29.9586C26.0231 30.3872 26.4028 30.951 26.607 31.5852C26.7412 31.8989 26.8075 32.2373 26.8014 32.5783C26.8243 32.8685 26.8243 33.1601 26.8014 33.4503L26.8014 73.3682C26.7669 73.7954 26.7669 74.2247 26.8014 74.652C26.9586 76.9528 27.8146 79.1515 29.2556 80.9557C30.6966 82.7599 32.6543 84.0842 34.8685 84.7525C35.657 84.9985 36.4733 85.145 37.2983 85.1886C37.6142 85.1886 38.1488 85.1886 38.3675 85.1886H71.2677C71.4454 85.1707 71.6245 85.1707 71.8022 85.1886C71.8828 85.1766 71.9647 85.1766 72.0452 85.1886C72.0931 85.1772 72.1431 85.1772 72.191 85.1886C72.4296 85.2387 72.665 85.3034 72.8957 85.3823C73.4058 85.6052 73.8599 85.9379 74.2255 86.3568C74.591 86.7756 74.8588 87.2701 75.0096 87.8045C75.0489 88.0858 75.0489 88.371 75.0096 88.6523L75.0096 242.099C75.0096 242.581 74.8176 243.043 74.4759 243.383C74.1341 243.724 73.6706 243.915 73.1872 243.915C72.7039 243.915 72.2404 243.724 71.8986 243.383C71.5568 243.043 71.3649 242.581 71.3649 242.099L71.3649 88.8703C71.3086 88.8802 71.251 88.8802 71.1948 88.8703H38.3189C38.1002 88.8703 37.4198 88.8703 36.9582 88.8703C35.9219 88.7703 34.8971 88.5757 33.8966 88.289C31.9341 87.7089 30.1113 86.7349 28.5402 85.427C26.9691 84.1191 25.6828 82.5048 24.7603 80.6833C23.871 78.8807 23.3428 76.9225 23.2052 74.9184C23.2052 74.1191 23.2052 73.7315 23.2052 73.3682L23.2052 32.8447H1.87116C1.62364 32.8514 1.37734 32.8078 1.14733 32.7164C0.9173 32.625 0.708346 32.4879 0.533259 32.3133C0.358172 32.1388 0.220599 31.9305 0.128939 31.7012C0.0372875 31.4719 -0.0065205 31.2264 0.000170479 30.9797Z" fill="#3EB073"/>
<path d="M5.87708e-05 19.5957C5.87708e-05 19.1139 0.192045 18.6518 0.533811 18.3111C0.875577 17.9704 1.33912 17.7791 1.82245 17.7791L23.6911 17.7791C24.2014 17.7791 24.7116 17.7791 25.2219 17.7791C27.8356 18.131 30.3089 19.1674 32.39 20.7826C34.6241 22.4958 36.3121 24.818 37.2497 27.4679C37.7739 28.8409 38.0773 30.2878 38.1487 31.7551L38.1487 73.7077C38.2131 73.7181 38.2787 73.7181 38.3431 73.7077H71.2676C71.4133 73.7077 72.1423 73.7077 72.6525 73.7077C73.085 73.7215 73.5157 73.7701 73.9404 73.853H74.2563C75.3692 74.0551 76.454 74.3885 77.488 74.8461C79.5357 75.7301 81.3597 77.0587 82.8268 78.7349C84.2939 80.4111 85.3671 82.3926 85.9682 84.5349C86.2726 85.6089 86.452 86.7142 86.5027 87.8291L86.5027 241.954C86.5027 242.436 86.3107 242.898 85.9689 243.238C85.6272 243.579 85.1636 243.77 84.6803 243.77C84.197 243.77 83.7335 243.579 83.3917 243.238C83.0499 242.898 82.8579 242.436 82.8579 241.954L82.8579 88.2409C82.8157 87.4202 82.677 86.6072 82.4448 85.8187C81.9841 84.2121 81.1721 82.7273 80.0672 81.4709C78.9622 80.2144 77.5918 79.2176 76.0544 78.5521C75.2754 78.2167 74.46 77.9728 73.6245 77.8254H73.3329C73.017 77.8254 72.7255 77.8254 72.4339 77.8254C72.1423 77.8254 71.4862 77.8254 71.3161 77.8254H37.8328C37.6277 77.7991 37.4248 77.7586 37.2253 77.7043C36.7306 77.5797 36.2695 77.348 35.8747 77.0256C35.48 76.7033 35.1613 76.2982 34.9413 75.8392C34.7212 75.4193 34.5968 74.9562 34.5768 74.4828C34.5516 74.0714 34.5516 73.6588 34.5768 73.2475L34.5768 32.0943C34.5241 30.9832 34.2945 29.8876 33.8965 28.8485C33.179 26.9155 31.9432 25.2158 30.3237 23.9345C28.7042 22.6532 26.763 21.8395 24.7116 21.5819C24.3313 21.56 23.95 21.56 23.5696 21.5819L1.84673 21.5819C1.58926 21.5904 1.33301 21.5436 1.09526 21.4447C0.857511 21.3458 0.64385 21.1972 0.46874 21.0089C0.29363 20.8205 0.161146 20.5969 0.0802895 20.3531C-0.000566839 20.1093 -0.0279335 19.851 5.87708e-05 19.5957ZM38.0758 77.4863C38.0758 77.4863 37.8571 77.4863 37.8085 77.4863C37.8973 77.4972 37.987 77.4972 38.0758 77.4863Z" fill="#3EB073"/>
<path d="M71.8749 58.375C71.8749 57.8932 72.0669 57.4311 72.4087 57.0904C72.7504 56.7497 73.214 56.5583 73.6973 56.5583H84.6073C85.0906 56.5583 85.5542 56.7497 85.8959 57.0904C86.2377 57.4311 86.4297 57.8932 86.4297 58.375C86.4297 58.8568 86.2377 59.3189 85.8959 59.6596C85.5542 60.0003 85.0906 60.1917 84.6073 60.1917H73.6973C73.4571 60.1949 73.2186 60.1501 72.996 60.06C72.7735 59.9699 72.5713 59.8362 72.4014 59.6668C72.2315 59.4975 72.0974 59.2959 72.007 59.0741C71.9166 58.8522 71.8716 58.6145 71.8749 58.375Z" fill="#3EB073"/>
<path d="M64.1965 58.3749H59.7985C58.7865 58.4332 57.7714 58.3435 56.7855 58.1084C56.3433 57.9935 55.9123 57.8395 55.4977 57.6482L64.1965 58.3749Z" fill="#3EB073"/>
<path d="M53.6753 57.6483C53.6758 57.3519 53.751 57.0604 53.894 56.8005C54.004 56.5921 54.1541 56.4073 54.3358 56.2568C54.5175 56.1062 54.7271 55.9929 54.9528 55.9231C55.1785 55.8534 55.4157 55.8287 55.651 55.8504C55.8862 55.8721 56.1148 55.9398 56.3238 56.0497C56.6224 56.1796 56.9313 56.2849 57.2472 56.3645C58.0422 56.5537 58.8619 56.6191 59.677 56.5583H64.1237C64.607 56.5583 65.0705 56.7497 65.4123 57.0904C65.7541 57.4311 65.946 57.8931 65.946 58.3749C65.946 58.8568 65.7541 59.3188 65.4123 59.6595C65.0705 60.0002 64.607 60.1916 64.1237 60.1916H59.7256C58.5326 60.2655 57.3353 60.1511 56.178 59.8525C55.6235 59.7077 55.0859 59.5047 54.5743 59.2469C54.2958 59.0838 54.0657 58.8498 53.9078 58.5689C53.7498 58.288 53.6696 57.9703 53.6753 57.6483Z" fill="#3EB073"/>
<path d="M51.4399 53.0461C51.1853 52.2636 51.0542 51.4465 51.0512 50.6239V48.2017L51.4399 53.0461Z" fill="#3EB073"/>
<path d="M49.2287 50.745V48.1775C49.2287 47.6957 49.4207 47.2336 49.7625 46.8929C50.1042 46.5522 50.5677 46.3608 51.0511 46.3608C51.5344 46.3608 51.9979 46.5522 52.3397 46.8929C52.6815 47.2336 52.8734 47.6957 52.8734 48.1775V50.5997C52.891 51.2233 52.989 51.842 53.165 52.4406C53.2991 52.8911 53.2527 53.3759 53.0357 53.7931C52.8187 54.2103 52.448 54.5275 52.0014 54.678C51.5548 54.8285 51.0671 54.8006 50.6407 54.6002C50.2142 54.3998 49.8823 54.0424 49.7146 53.6032C49.4098 52.6802 49.2459 51.7167 49.2287 50.745Z" fill="#3EB073"/>
<path d="M51.0511 41.1531L51.0511 23.8101C51.0511 15.1629 51.2941 6.41871 50.468 6.56404L51.0511 41.1531Z" fill="#3EB073"/>
<path d="M48.6455 6.56414C48.6457 6.13286 48.7998 5.71572 49.0803 5.38732C49.3608 5.05893 49.7492 4.84073 50.1763 4.77172C50.4555 4.73312 50.7397 4.75188 51.0113 4.82686C51.2829 4.90185 51.5363 5.03146 51.7557 5.20772C52.8006 6.10393 52.922 7.3877 52.8735 17.5609L52.8735 41.1532C52.8735 41.635 52.6815 42.0971 52.3397 42.4378C51.9979 42.7784 51.5344 42.9698 51.0511 42.9698C50.5677 42.9698 50.1042 42.7784 49.7625 42.4378C49.4207 42.0971 49.2287 41.635 49.2287 41.1532L49.2287 17.5609C49.2287 13.7581 49.2287 9.10746 49.0343 7.70258C48.8397 7.45711 48.7139 7.16457 48.6698 6.85482L48.6455 6.56414Z" fill="#3EB073"/>
<path d="M37.3953 1.81665C37.3953 1.33485 37.5873 0.872781 37.9291 0.532093C38.2708 0.191404 38.7344 0 39.2177 0L42.2064 0C42.6897 0 43.1533 0.191404 43.4951 0.532093C43.8368 0.872781 44.0288 1.33485 44.0288 1.81665C44.0288 2.29846 43.8368 2.76052 43.4951 3.10121C43.1533 3.4419 42.6897 3.6333 42.2064 3.6333L39.2177 3.6333C38.7363 3.62703 38.2765 3.43362 37.9361 3.09428C37.5956 2.75494 37.4016 2.29651 37.3953 1.81665Z" fill="#3EB073"/>
<path d="M29.4013 1.81657C29.398 1.57711 29.4429 1.33941 29.5334 1.11753C29.6238 0.895654 29.7579 0.694097 29.9278 0.524752C30.0977 0.355407 30.2999 0.221714 30.5225 0.131573C30.745 0.0414313 30.9835 -0.00333674 31.2237 -7.82231e-05L34.1881 -7.82231e-05C34.6714 -7.82231e-05 35.135 0.191326 35.4767 0.532014C35.8185 0.872703 36.0105 1.33477 36.0105 1.81657C36.0105 2.29838 35.8185 2.76044 35.4767 3.10113C35.135 3.44182 34.6714 3.63322 34.1881 3.63322H31.2237C30.7404 3.63322 30.2769 3.44182 29.9351 3.10113C29.5933 2.76044 29.4013 2.29838 29.4013 1.81657Z" fill="#3EB073"/>
<path d="M21.3829 1.81665C21.3829 1.33485 21.5749 0.872781 21.9166 0.532093C22.2584 0.191404 22.7219 0 23.2053 0L26.194 0C26.6773 0 27.1408 0.191404 27.4826 0.532093C27.8244 0.872781 28.0164 1.33485 28.0164 1.81665C28.0164 2.29846 27.8244 2.76052 27.4826 3.10121C27.1408 3.4419 26.6773 3.6333 26.194 3.6333L23.2053 3.6333C22.7239 3.62703 22.264 3.43362 21.9236 3.09428C21.5832 2.75494 21.3892 2.29651 21.3829 1.81665Z" fill="#3EB073"/>
<path d="M13.3886 1.81657C13.3853 1.57711 13.4302 1.33941 13.5207 1.11753C13.6111 0.895654 13.7452 0.694097 13.9151 0.524752C14.085 0.355407 14.2872 0.221714 14.5098 0.131573C14.7323 0.0414313 14.9708 -0.00333674 15.211 -7.82231e-05L18.1754 -7.82231e-05C18.6587 -7.82231e-05 19.1223 0.191326 19.464 0.532014C19.8058 0.872703 19.9978 1.33477 19.9978 1.81657C19.9978 2.29838 19.8058 2.76044 19.464 3.10113C19.1223 3.44182 18.6587 3.63322 18.1754 3.63322H15.211C14.7277 3.63322 14.2642 3.44182 13.9224 3.10113C13.5806 2.76044 13.3886 2.29838 13.3886 1.81657Z" fill="#3EB073"/>
<path d="M121.371 153.059C121.371 150.097 122.252 147.202 123.904 144.74C125.555 142.278 127.901 140.359 130.647 139.227C133.392 138.094 136.413 137.799 139.326 138.379C142.24 138.959 144.915 140.387 147.014 142.483C149.114 144.578 150.542 147.248 151.118 150.153C151.695 153.059 151.394 156.069 150.254 158.804C149.114 161.539 147.185 163.875 144.713 165.517C142.24 167.159 139.334 168.033 136.363 168.028C132.385 168.022 128.572 166.442 125.761 163.635C122.95 160.828 121.371 157.025 121.371 153.059ZM148.95 153.059C148.95 150.577 148.212 148.151 146.829 146.088C145.446 144.025 143.48 142.417 141.18 141.467C138.88 140.517 136.349 140.269 133.908 140.753C131.466 141.237 129.223 142.432 127.463 144.187C125.703 145.941 124.504 148.177 124.019 150.611C123.533 153.045 123.782 155.568 124.735 157.86C125.687 160.153 127.301 162.113 129.371 163.491C131.44 164.87 133.874 165.606 136.363 165.606C138.016 165.606 139.653 165.281 141.18 164.651C142.707 164.02 144.095 163.096 145.263 161.931C146.432 160.766 147.359 159.383 147.992 157.86C148.624 156.338 148.95 154.706 148.95 153.059Z" fill="#3EB073"/>
<path d="M51.6343 121.377V109.629C51.6343 109.147 51.8263 108.685 52.168 108.344C52.5098 108.004 52.9733 107.812 53.4567 107.812C53.94 107.812 54.4035 108.004 54.7453 108.344C55.0871 108.685 55.2791 109.147 55.2791 109.629V121.377C55.2791 121.858 55.0871 122.32 54.7453 122.661C54.4035 123.002 53.94 123.193 53.4567 123.193C52.9733 123.193 52.5098 123.002 52.168 122.661C51.8263 122.32 51.6343 121.858 51.6343 121.377Z" fill="#3EB073"/>
<path d="M51.6343 140.681V128.958C51.6343 128.476 51.8263 128.014 52.168 127.673C52.5098 127.332 52.9733 127.141 53.4567 127.141C53.94 127.141 54.4035 127.332 54.7453 127.673C55.0871 128.014 55.2791 128.476 55.2791 128.958V140.681C55.2791 141.163 55.0871 141.625 54.7453 141.966C54.4035 142.306 53.94 142.498 53.4567 142.498C52.9733 142.498 52.5098 142.306 52.168 141.966C51.8263 141.625 51.6343 141.163 51.6343 140.681Z" fill="#3EB073"/>
<path d="M51.6343 160.011V148.287C51.6343 147.805 51.8263 147.343 52.168 147.003C52.5098 146.662 52.9733 146.47 53.4567 146.47C53.94 146.47 54.4035 146.662 54.7453 147.003C55.0871 147.343 55.2791 147.805 55.2791 148.287V160.011C55.2791 160.492 55.0871 160.954 54.7453 161.295C54.4035 161.636 53.94 161.827 53.4567 161.827C52.9733 161.827 52.5098 161.636 52.168 161.295C51.8263 160.954 51.6343 160.492 51.6343 160.011Z" fill="#3EB073"/>
<path d="M51.6343 179.34V167.592C51.6343 167.11 51.8263 166.648 52.168 166.308C52.5098 165.967 52.9733 165.775 53.4567 165.775C53.94 165.775 54.4035 165.967 54.7453 166.308C55.0871 166.648 55.2791 167.11 55.2791 167.592V179.34C55.2791 179.822 55.0871 180.284 54.7453 180.624C54.4035 180.965 53.94 181.156 53.4567 181.156C52.9733 181.156 52.5098 180.965 52.168 180.624C51.8263 180.284 51.6343 179.822 51.6343 179.34Z" fill="#3EB073"/>
<path d="M51.6343 198.669V186.921C51.6343 186.439 51.8263 185.977 52.168 185.637C52.5098 185.296 52.9733 185.104 53.4567 185.104C53.94 185.104 54.4035 185.296 54.7453 185.637C55.0871 185.977 55.2791 186.439 55.2791 186.921V198.669C55.2791 199.151 55.0871 199.613 54.7453 199.953C54.4035 200.294 53.94 200.485 53.4567 200.485C52.9733 200.485 52.5098 200.294 52.168 199.953C51.8263 199.613 51.6343 199.151 51.6343 198.669Z" fill="#3EB073"/>
<path d="M51.6343 217.974V206.25C51.6343 205.769 51.8263 205.307 52.168 204.966C52.5098 204.625 52.9733 204.434 53.4567 204.434C53.94 204.434 54.4035 204.625 54.7453 204.966C55.0871 205.307 55.2791 205.769 55.2791 206.25V217.974C55.2791 218.456 55.0871 218.918 54.7453 219.259C54.4035 219.599 53.94 219.791 53.4567 219.791C52.9733 219.791 52.5098 219.599 52.168 219.259C51.8263 218.918 51.6343 218.456 51.6343 217.974Z" fill="#3EB073"/>
</g>
<defs>
<clipPath id="clip0_147_1399">
<rect width="244.061" height="151.38" fill="white" transform="matrix(0 1 -1 0 151.38 0)"/>
</clipPath>
</defs>
</svg>
